  0
SECTION
  2
HEADER
  9
$ACADVER
  1
AC1009
  9
$DWGCODEPAGE
  3
ANSI_1252
  9
$INSBASE
 10
0.0
 20
0.0
 30
0.0
  9
$EXTMIN
 10
-100
 20
-100
 30
-100
  9
$EXTMAX
 10
100
 20
100
 30
100
  9
$LIMMIN
 10
0.0
 20
0.0
  9
$LIMMAX
 10
420.0
 20
297.0
  9
$ORTHOMODE
 70
0
  9
$REGENMODE
 70
1
  9
$FILLMODE
 70
1
  9
$DRAGMODE
 70
2
  9
$QTEXTMODE
 70
0
  9
$MIRRTEXT
 70
1
  9
$OSMODE
 70
20583
  9
$LTSCALE
 40
1.0
  9
$ATTMODE
 70
1
  9
$TEXTSIZE
 40
2.5
  9
$TRACEWID
 40
1.0
  9
$TEXTSTYLE
  7
OpenSans
  9
$CLAYER
  8
0
  9
$CELTYPE
  6
ByLayer
  9
$CECOLOR
 62
256
  9
$DIMSCALE
 40
1.0
  9
$DIMASZ
 40
0.175
  9
$DIMEXO
 40
0.125
  9
$DIMDLI
 40
3.75
  9
$DIMRND
 40
0.0
  9
$DIMDLE
 40
0.0
  9
$DIMEXE
 40
0.375
  9
$DIMTP
 40
0.0
  9
$DIMTM
 40
0.0
  9
$DIMTXT
 40
0.25
  9
$DIMCEN
 40
2.5
  9
$DIMTSZ
 40
0.0
  9
$DIMTOL
 70
0
  9
$DIMLIM
 70
0
  9
$DIMTIH
 70
0
  9
$DIMTOH
 70
0
  9
$DIMSE1
 70
0
  9
$DIMSE2
 70
0
  9
$DIMTAD
 70
1
  9
$DIMZIN
 70
8
  9
$DIMBLK
  1
ARCHTICK
  9
$DIMASO
 70
1
  9
$DIMSHO
 70
1
  9
$DIMPOST
  1

  9
$DIMAPOST
  1

  9
$DIMALT
 70
0
  9
$DIMALTD
 70
3
  9
$DIMALTF
 40
0.03937007874
  9
$DIMLFAC
 40
100.0
  9
$DIMTOFL
 70
1
  9
$DIMTVP
 40
0.0
  9
$DIMTIX
 70
0
  9
$DIMSOXD
 70
0
  9
$DIMSAH
 70
0
  9
$DIMBLK1
  1

  9
$DIMBLK2
  1

  9
$DIMSTYLE
  2
EZDXF
  9
$DIMCLRD
 70
0
  9
$DIMCLRE
 70
0
  9
$DIMCLRT
 70
0
  9
$DIMTFAC
 40
1.0
  9
$DIMGAP
 40
0.1
  9
$COORDS
 70
1
  9
$ATTDIA
 70
0
  9
$ATTREQ
 70
1
  9
$HANDLING
 70
1
  9
$LUNITS
 70
2
  9
$LUPREC
 70
4
  9
$SKETCHINC
 40
1.0
  9
$FILLETRAD
 40
10.0
  9
$AUNITS
 70
0
  9
$AUPREC
 70
2
  9
$MENU
  1
.
  9
$ELEVATION
 40
0.0
  9
$PELEVATION
 40
0.0
  9
$THICKNESS
 40
0.0
  9
$LIMCHECK
 70
0
  9
$CHAMFERA
 40
0.0
  9
$CHAMFERB
 40
0.0
  9
$SKPOLY
 70
0
  9
$TDCREATE
 40
2459299.669583333
  9
$TDUPDATE
 40
2459299.6697685183
  9
$TDINDWG
 40
0.0
  9
$TDUSRTIMER
 40
0.0
  9
$USRTIMER
 70
1
  9
$ANGBASE
 50
0.0
  9
$ANGDIR
 70
0
  9
$PDMODE
 70
0
  9
$PDSIZE
 40
0.0
  9
$PLINEWID
 40
0.0
  9
$SPLFRAME
 70
0
  9
$SPLINETYPE
 70
6
  9
$SPLINESEGS
 70
8
  9
$HANDSEED
  5
239
  9
$SURFTAB1
 70
6
  9
$SURFTAB2
 70
6
  9
$SURFTYPE
 70
6
  9
$SURFU
 70
6
  9
$SURFV
 70
6
  9
$UCSNAME
  2

  9
$UCSORG
 10
0.0
 20
0.0
 30
0.0
  9
$UCSXDIR
 10
1.0
 20
0.0
 30
0.0
  9
$UCSYDIR
 10
0.0
 20
1.0
 30
0.0
  9
$PUCSNAME
  2

  9
$PUCSORG
 10
0.0
 20
0.0
 30
0.0
  9
$PUCSXDIR
 10
1.0
 20
0.0
 30
0.0
  9
$PUCSYDIR
 10
0.0
 20
1.0
 30
0.0
  9
$USERI1
 70
0
  9
$USERI2
 70
0
  9
$USERI3
 70
0
  9
$USERI4
 70
0
  9
$USERI5
 70
0
  9
$USERR1
 40
0.0
  9
$USERR2
 40
0.0
  9
$USERR3
 40
0.0
  9
$USERR4
 40
0.0
  9
$USERR5
 40
0.0
  9
$WORLDVIEW
 70
1
  9
$SHADEDGE
 70
3
  9
$SHADEDIF
 70
70
  9
$TILEMODE
 70
1
  9
$MAXACTVP
 70
64
  9
$PLIMCHECK
 70
0
  9
$PEXTMIN
 10
1e+20
 20
1e+20
 30
1e+20
  9
$PEXTMAX
 10
-1e+20
 20
-1e+20
 30
-1e+20
  9
$PLIMMIN
 10
0.0
 20
0.0
  9
$PLIMMAX
 10
420.0
 20
297.0
  9
$UNITMODE
 70
0
  9
$VISRETAIN
 70
1
  9
$PLINEGEN
 70
0
  9
$PSLTSCALE
 70
1
  0
ENDSEC
  0
SECTION
  2
TABLES
  0
TABLE
  2
VPORT
 70
1
  0
VPORT
  5
23
  2
*Active
 70
0
 10
0.0
 20
0.0
 11
1.0
 21
1.0
 12
70.0
 22
50.0
 13
0.0
 23
0.0
 14
0.5
 24
0.5
 15
0.5
 25
0.5
 16
0.0
 26
0.0
 36
1.0
 17
0.0
 27
0.0
 37
0.0
 40
1.0
 41
1.34
 42
50.0
 43
0.0
 44
0.0
 50
0.0
 51
0.0
 71
0
 72
1000
 73
1
 74
3
 75
0
 76
0
 77
0
 78
0
  0
ENDTAB
  0
TABLE
  2
LTYPE
 70
21
  0
LTYPE
  5
24
  2
ByBlock
 70
0
  3

 72
65
 73
0
 40
0.0
  0
LTYPE
  5
25
  2
ByLayer
 70
0
  3

 72
65
 73
0
 40
0.0
  0
LTYPE
  5
26
  2
Continuous
 70
0
  3

 72
65
 73
0
 40
0.0
  0
LTYPE
  5
2D
  2
CENTER
 70
0
  3
Center ____ _ ____ _ ____ _ ____ _ ____ _ ____
 72
65
 73
4
 40
5.08
 49
3.175
 49
-0.635
 49
0.635
 49
-0.635
  0
LTYPE
  5
2E
  2
CENTERX2
 70
0
  3
Center (2x) ________  __  ________  __  ________
 72
65
 73
4
 40
8.89
 49
6.35
 49
-0.635
 49
1.27
 49
-0.635
  0
LTYPE
  5
2F
  2
CENTER2
 70
0
  3
Center (.5x) ____ _ ____ _ ____ _ ____ _ ____
 72
65
 73
4
 40
2.54
 49
1.587
 49
-0.318
 49
0.318
 49
-0.318
  0
LTYPE
  5
30
  2
DASHED
 70
0
  3
Dashed __ __ __ __ __ __ __ __ __ __ __ __ __ _
 72
65
 73
2
 40
1.524
 49
1.27
 49
-0.254
  0
LTYPE
  5
31
  2
DASHEDX2
 70
0
  3
Dashed (2x) ____  ____  ____  ____  ____  ____
 72
65
 73
2
 40
3.048
 49
2.54
 49
-0.508
  0
LTYPE
  5
32
  2
DASHED2
 70
0
  3
Dashed (.5x) _ _ _ _ _ _ _ _ _ _ _ _ _ _
 72
65
 73
2
 40
0.762
 49
0.635
 49
-0.127
  0
LTYPE
  5
33
  2
PHANTOM
 70
0
  3
Phantom ______  __  __  ______  __  __  ______
 72
65
 73
6
 40
6.35
 49
3.175
 49
-0.635
 49
0.635
 49
-0.635
 49
0.635
 49
-0.635
  0
LTYPE
  5
34
  2
PHANTOMX2
 70
0
  3
Phantom (2x)____________    ____    ____    ____________
 72
65
 73
6
 40
10.795
 49
6.35
 49
-0.635
 49
1.27
 49
-0.635
 49
1.27
 49
-0.635
  0
LTYPE
  5
35
  2
PHANTOM2
 70
0
  3
Phantom (.5x) ___ _ _ ___ _ _ ___ _ _ ___ _ _ ___
 72
65
 73
6
 40
3.175
 49
1.587
 49
-0.318
 49
0.318
 49
-0.318
 49
0.318
 49
-0.318
  0
LTYPE
  5
36
  2
DASHDOT
 70
0
  3
Dash dot __ . __ . __ . __ . __ . __ . __ . __
 72
65
 73
4
 40
3.556
 49
2.54
 49
-0.508
 49
0.0
 49
-0.508
  0
LTYPE
  5
37
  2
DASHDOTX2
 70
0
  3
Dash dot (2x) ____  .  ____  .  ____  .  ____
 72
65
 73
4
 40
6.096
 49
5.08
 49
-0.508
 49
0.0
 49
-0.508
  0
LTYPE
  5
38
  2
DASHDOT2
 70
0
  3
Dash dot (.5x) _ . _ . _ . _ . _ . _ . _ . _
 72
65
 73
4
 40
1.778
 49
1.27
 49
-0.254
 49
0.0
 49
-0.254
  0
LTYPE
  5
39
  2
DOT
 70
0
  3
Dot .  .  .  .  .  .  .  .  .  .  .  .  .  .  .  .
 72
65
 73
2
 40
0.508
 49
0.0
 49
-0.508
  0
LTYPE
  5
3A
  2
DOTX2
 70
0
  3
Dot (2x) .    .    .    .    .    .    .    . 
 72
65
 73
2
 40
1.016
 49
0.0
 49
-1.016
  0
LTYPE
  5
3B
  2
DOT2
 70
0
  3
Dot (.5) . . . . . . . . . . . . . . . . . . . 
 72
65
 73
2
 40
0.254
 49
0.0
 49
-0.254
  0
LTYPE
  5
3C
  2
DIVIDE
 70
0
  3
Divide __ . . __ . . __ . . __ . . __ . . __
 72
65
 73
6
 40
4.064
 49
2.54
 49
-0.508
 49
0.0
 49
-0.508
 49
0.0
 49
-0.508
  0
LTYPE
  5
3D
  2
DIVIDEX2
 70
0
  3
Divide (2x) ____  . .  ____  . .  ____  . .  ____
 72
65
 73
6
 40
6.604
 49
5.08
 49
-0.508
 49
0.0
 49
-0.508
 49
0.0
 49
-0.508
  0
LTYPE
  5
3E
  2
DIVIDE2
 70
0
  3
Divide(.5x) _ . _ . _ . _ . _ . _ . _ . _
 72
65
 73
6
 40
2.032
 49
1.27
 49
-0.254
 49
0.0
 49
-0.254
 49
0.0
 49
-0.254
  0
ENDTAB
  0
TABLE
  2
LAYER
 70
3
  0
LAYER
  5
27
  2
0
 70
0
 62
7
  6
Continuous
  0
LAYER
  5
28
  2
Defpoints
 70
0
 62
7
  6
Continuous
  0
LAYER
  5
8E
  2
AC_Mitigation_Check
 70
0
 62
3
  6
Continuous
  0
ENDTAB
  0
TABLE
  2
STYLE
 70
26
  0
STYLE
  5
29
  2
Standard
 70
0
 40
0.0
 41
1.0
 50
0.0
 71
0
 42
2.5
  3
txt
  4

  0
STYLE
  5
3F
  2
OpenSans-Light
 70
0
 40
0.0
 41
1.0
 50
0.0
 71
0
 42
2.5
  3
OpenSans-Light.ttf
  4

  0
STYLE
  5
40
  2
OpenSans-Light-Italic
 70
0
 40
0.0
 41
1.0
 50
0.0
 71
0
 42
2.5
  3
OpenSans-LightItalic.ttf
  4

  0
STYLE
  5
41
  2
OpenSans
 70
0
 40
0.0
 41
1.0
 50
0.0
 71
0
 42
2.5
  3
OpenSans-Regular.ttf
  4

  0
STYLE
  5
42
  2
OpenSans-Italic
 70
0
 40
0.0
 41
1.0
 50
0.0
 71
0
 42
2.5
  3
OpenSans-Italic.ttf
  4

  0
STYLE
  5
43
  2
OpenSans-SemiBold
 70
0
 40
0.0
 41
1.0
 50
0.0
 71
0
 42
2.5
  3
OpenSans-SemiBold.ttf
  4

  0
STYLE
  5
44
  2
OpenSans-SemiBoldItalic
 70
0
 40
0.0
 41
1.0
 50
0.0
 71
0
 42
2.5
  3
OpenSans-SemiBoldItalic.ttf
  4

  0
STYLE
  5
45
  2
OpenSans-Bold
 70
0
 40
0.0
 41
1.0
 50
0.0
 71
0
 42
2.5
  3
OpenSans-Bold.ttf
  4

  0
STYLE
  5
46
  2
OpenSans-BoldItalic
 70
0
 40
0.0
 41
1.0
 50
0.0
 71
0
 42
2.5
  3
OpenSans-BoldItalic.ttf
  4

  0
STYLE
  5
47
  2
OpenSans-ExtraBold
 70
0
 40
0.0
 41
1.0
 50
0.0
 71
0
 42
2.5
  3
OpenSans-ExtraBold.ttf
  4

  0
STYLE
  5
48
  2
OpenSans-ExtraBoldItalic
 70
0
 40
0.0
 41
1.0
 50
0.0
 71
0
 42
2.5
  3
OpenSans-ExtraBoldItalic.ttf
  4

  0
STYLE
  5
49
  2
OpenSansCondensed-Bold
 70
0
 40
0.0
 41
1.0
 50
0.0
 71
0
 42
2.5
  3
OpenSansCondensed-Bold.ttf
  4

  0
STYLE
  5
4A
  2
OpenSansCondensed-Light
 70
0
 40
0.0
 41
1.0
 50
0.0
 71
0
 42
2.5
  3
OpenSansCondensed-Light.ttf
  4

  0
STYLE
  5
4B
  2
OpenSansCondensed-Italic
 70
0
 40
0.0
 41
1.0
 50
0.0
 71
0
 42
2.5
  3
OpenSansCondensed-LightItalic.ttf
  4

  0
STYLE
  5
4C
  2
LiberationSans
 70
0
 40
0.0
 41
1.0
 50
0.0
 71
0
 42
2.5
  3
LiberationSans-Regular.ttf
  4

  0
STYLE
  5
4D
  2
LiberationSans-Bold
 70
0
 40
0.0
 41
1.0
 50
0.0
 71
0
 42
2.5
  3
LiberationSans-Bold.ttf
  4

  0
STYLE
  5
4E
  2
LiberationSans-BoldItalic
 70
0
 40
0.0
 41
1.0
 50
0.0
 71
0
 42
2.5
  3
LiberationSans-BoldItalic.ttf
  4

  0
STYLE
  5
4F
  2
LiberationSans-Italic
 70
0
 40
0.0
 41
1.0
 50
0.0
 71
0
 42
2.5
  3
LiberationSans-Italic.ttf
  4

  0
STYLE
  5
50
  2
LiberationSerif
 70
0
 40
0.0
 41
1.0
 50
0.0
 71
0
 42
2.5
  3
LiberationSerif-Regular.ttf
  4

  0
STYLE
  5
51
  2
LiberationSerif-Bold
 70
0
 40
0.0
 41
1.0
 50
0.0
 71
0
 42
2.5
  3
LiberationSerif-Bold.ttf
  4

  0
STYLE
  5
52
  2
LiberationSerif-BoldItalic
 70
0
 40
0.0
 41
1.0
 50
0.0
 71
0
 42
2.5
  3
LiberationSerif-BoldItalic.ttf
  4

  0
STYLE
  5
53
  2
LiberationSerif-Italic
 70
0
 40
0.0
 41
1.0
 50
0.0
 71
0
 42
2.5
  3
LiberationSerif-Italic.ttf
  4

  0
STYLE
  5
54
  2
LiberationMono
 70
0
 40
0.0
 41
1.0
 50
0.0
 71
0
 42
2.5
  3
LiberationMono-Regular.ttf
  4

  0
STYLE
  5
55
  2
LiberationMono-Bold
 70
0
 40
0.0
 41
1.0
 50
0.0
 71
0
 42
2.5
  3
LiberationMono-Bold.ttf
  4

  0
STYLE
  5
56
  2
LiberationMono-BoldItalic
 70
0
 40
0.0
 41
1.0
 50
0.0
 71
0
 42
2.5
  3
LiberationMono-BoldItalic.ttf
  4

  0
STYLE
  5
57
  2
LiberationMono-Italic
 70
0
 40
0.0
 41
1.0
 50
0.0
 71
0
 42
2.5
  3
LiberationMono-Italic.ttf
  4

  0
ENDTAB
  0
TABLE
  2
VIEW
 70
0
  0
ENDTAB
  0
TABLE
  2
UCS
 70
0
  0
ENDTAB
  0
TABLE
  2
APPID
 70
2
  0
APPID
  5
2A
  2
ACAD
 70
0
  0
APPID
  5
238
  2
HATCHBACKGROUNDCOLOR
 70
0
  0
ENDTAB
  0
TABLE
  2
DIMSTYLE
 70
11
  0
DIMSTYLE
105
2B
  2
Standard
 70
0
  3

  4

  5

  6

  7

 40
1.0
 41
2.5
 42
0.625
 43
3.75
 44
1.25
 45
0.0
 46
0.0
 47
0.0
 48
0.0
140
2.5
141
2.5
142
0.0
143
0.03937007874
144
1.0
145
0.0
146
1.0
147
0.625
 71
0
 72
0
 73
0
 74
0
 75
0
 76
0
 77
1
 78
8
170
0
171
3
172
1
173
0
174
0
175
0
176
0
177
0
178
0
  0
DIMSTYLE
105
71
  2
EZDXF
 70
0
  3

  4

  5
ARCHTICK
  6

  7

 40
1.0
 41
0.175
 42
0.125
 43
3.75
 44
0.375
 45
0.0
 46
0.0
 47
0.0
 48
0.0
140
0.25
141
2.5
142
0.0
143
0.03937007874
144
100.0
145
0.0
146
1.0
147
0.1
 71
0
 72
0
 73
0
 74
0
 75
0
 76
0
 77
1
 78
8
170
0
171
3
172
1
173
0
174
0
175
0
176
0
177
0
178
0
  0
DIMSTYLE
105
7D
  2
EZ_M_100_H25_CM
 70
0
  3

  4

  5

  6

  7

 40
1.0
 41
0.25
 42
0.125
 43
3.75
 44
0.375
 45
0.0
 46
0.0
 47
0.0
 48
0.0
140
0.25
141
2.5
142
0.125
143
0.03937007874
144
100.0
145
0.0
146
1.0
147
0.1
 71
0
 72
0
 73
0
 74
0
 75
0
 76
0
 77
1
 78
8
170
0
171
3
172
1
173
0
174
0
175
0
176
0
177
0
178
0
  0
DIMSTYLE
105
7E
  2
EZ_M_50_H25_CM
 70
0
  3

  4

  5

  6

  7

 40
1.0
 41
0.125
 42
0.0625
 43
3.75
 44
0.1875
 45
0.0
 46
0.0
 47
0.0
 48
0.0
140
0.125
141
2.5
142
0.0625
143
0.03937007874
144
100.0
145
0.0
146
1.0
147
0.05
 71
0
 72
0
 73
0
 74
0
 75
0
 76
0
 77
1
 78
8
170
0
171
3
172
1
173
0
174
0
175
0
176
0
177
0
178
0
  0
DIMSTYLE
105
7F
  2
EZ_M_25_H25_CM
 70
0
  3

  4

  5

  6

  7

 40
1.0
 41
0.0625
 42
0.03125
 43
3.75
 44
0.09375
 45
0.0
 46
0.0
 47
0.0
 48
0.0
140
0.0625
141
2.5
142
0.03125
143
0.03937007874
144
100.0
145
0.0
146
1.0
147
0.025
 71
0
 72
0
 73
0
 74
0
 75
0
 76
0
 77
1
 78
8
170
0
171
3
172
1
173
0
174
0
175
0
176
0
177
0
178
0
  0
DIMSTYLE
105
80
  2
EZ_M_20_H25_CM
 70
0
  3

  4

  5

  6

  7

 40
1.0
 41
0.05
 42
0.025
 43
3.75
 44
0.07500000000000001
 45
0.0
 46
0.0
 47
0.0
 48
0.0
140
0.05
141
2.5
142
0.025
143
0.03937007874
144
100.0
145
0.0
146
1.0
147
0.020000000000000004
 71
0
 72
0
 73
0
 74
0
 75
0
 76
0
 77
1
 78
8
170
0
171
3
172
1
173
0
174
0
175
0
176
0
177
0
178
0
  0
DIMSTYLE
105
81
  2
EZ_M_10_H25_CM
 70
0
  3

  4

  5

  6

  7

 40
1.0
 41
0.025
 42
0.0125
 43
3.75
 44
0.037500000000000006
 45
0.0
 46
0.0
 47
0.0
 48
0.0
140
0.025
141
2.5
142
0.0125
143
0.03937007874
144
100.0
145
0.0
146
1.0
147
0.010000000000000002
 71
0
 72
0
 73
0
 74
0
 75
0
 76
0
 77
1
 78
8
170
0
171
3
172
1
173
0
174
0
175
0
176
0
177
0
178
0
  0
DIMSTYLE
105
82
  2
EZ_M_5_H25_CM
 70
0
  3

  4

  5

  6

  7

 40
1.0
 41
0.0125
 42
0.00625
 43
3.75
 44
0.018750000000000003
 45
0.0
 46
0.0
 47
0.0
 48
0.0
140
0.0125
141
2.5
142
0.00625
143
0.03937007874
144
100.0
145
0.0
146
1.0
147
0.005000000000000001
 71
0
 72
0
 73
0
 74
0
 75
0
 76
0
 77
1
 78
8
170
0
171
3
172
1
173
0
174
0
175
0
176
0
177
0
178
0
  0
DIMSTYLE
105
83
  2
EZ_M_1_H25_CM
 70
0
  3

  4

  5

  6

  7

 40
1.0
 41
0.0025
 42
0.00125
 43
3.75
 44
0.00375
 45
0.0
 46
0.0
 47
0.0
 48
0.0
140
0.0025
141
2.5
142
0.00125
143
0.03937007874
144
100.0
145
0.0
146
1.0
147
0.001
 71
0
 72
0
 73
0
 74
0
 75
0
 76
0
 77
1
 78
8
170
0
171
3
172
1
173
0
174
0
175
0
176
0
177
0
178
0
  0
DIMSTYLE
105
84
  2
EZ_RADIUS
 70
0
  3

  4

  5
CLOSEDBLANK
  6

  7

 40
1.0
 41
0.25
 42
0.125
 43
3.75
 44
0.375
 45
0.0
 46
0.0
 47
0.0
 48
0.0
140
0.25
141
0.0
142
0.0
143
0.03937007874
144
100.0
145
0.0
146
1.0
147
0.1
 71
0
 72
0
 73
0
 74
0
 75
0
 76
0
 77
1
 78
8
170
0
171
3
172
0
173
0
174
0
175
0
176
0
177
0
178
0
  0
DIMSTYLE
105
8D
  2
EZ_RADIUS_INSIDE
 70
0
  3

  4

  5
CLOSEDBLANK
  6

  7

 40
1.0
 41
0.25
 42
0.125
 43
3.75
 44
0.375
 45
0.0
 46
0.0
 47
0.0
 48
0.0
140
0.25
141
0.0
142
0.0
143
0.03937007874
144
100.0
145
0.0
146
1.0
147
0.1
 71
0
 72
0
 73
0
 74
0
 75
0
 76
0
 77
0
 78
8
170
0
171
3
172
0
173
0
174
1
175
0
176
0
177
0
178
0
  0
ENDTAB
  0
ENDSEC
  0
SECTION
  2
BLOCKS
  0
BLOCK
  5
18
  8
0
  2
$Model_Space
 70
0
 10
0.0
 20
0.0
 30
0.0
  3
$Model_Space
  1

  0
ENDBLK
  5
19
  8
0
  0
BLOCK
  5
1C
  8
0
  2
$Paper_Space
 70
0
 10
0.0
 20
0.0
 30
0.0
  3
$Paper_Space
  1

  0
ENDBLK
  5
1D
  8
0
  0
BLOCK
  5
73
  8
0
  2
_ARCHTICK
 70
0
 10
0.0
 20
0.0
 30
0.0
  3
_ARCHTICK
  1

  0
POLYLINE
  5
75
  8
0
  6
BYBLOCK
 62
0
 66
1
 10
0.0
 20
0.0
 30
0.0
 70
0
 40
0.15
 41
0.15
  0
VERTEX
  5
77
  8
0
  6
BYBLOCK
 10
-0.5
 20
-0.5000000000000001
 30
0.0
 70
0
  0
VERTEX
  5
78
  8
0
  6
BYBLOCK
 10
0.5000000000000001
 20
0.5000000000000001
 30
0.0
 70
0
  0
SEQEND
  5
76
  8
0
  0
ENDBLK
  5
74
  8
0
  0
BLOCK
  5
7A
  8
0
  2
_CLOSEDFILLED
 70
0
 10
0.0
 20
0.0
 30
0.0
  3
_CLOSEDFILLED
  1

  0
SOLID
  5
7C
  8
0
  6
BYBLOCK
 62
0
 10
-1.0
 20
0.1643989837240255
 30
0.0
 11
0.0
 21
0.0
 31
0.0
 12
-1.0
 22
-0.1643989837240255
 32
0.0
 13
-1.0
 23
-0.1643989837240255
 33
0.0
  0
ENDBLK
  5
7B
  8
0
  0
BLOCK
  5
86
  8
0
  2
_CLOSEDBLANK
 70
0
 10
0.0
 20
0.0
 30
0.0
  3
_CLOSEDBLANK
  1

  0
POLYLINE
  5
88
  8
0
  6
BYBLOCK
 62
0
 66
1
 10
0.0
 20
0.0
 30
0.0
 70
1
  0
VERTEX
  5
8A
  8
0
  6
BYBLOCK
 10
-1.0
 20
0.1643989837240255
 30
0.0
 70
0
  0
VERTEX
  5
8B
  8
0
  6
BYBLOCK
 10
0.0
 20
0.0
 30
0.0
 70
0
  0
VERTEX
  5
8C
  8
0
  6
BYBLOCK
 10
-1.0
 20
-0.1643989837240255
 30
0.0
 70
0
  0
SEQEND
  5
89
  8
0
  0
ENDBLK
  5
87
  8
0
  0
ENDSEC
  0
SECTION
  2
ENTITIES
  0
TEXT
  5
8F
  8
AC_Mitigation_Check
 10
817087.6
 20
826098.0
 30
0.0
 40
0.25
  1
 AW(BT) 3/F - 18/F
 72
1
 11
817087.6
 21
826098.0
 31
0.0
 73
2
  0
TEXT
  5
90
  8
AC_Mitigation_Check
 10
817086.7
 20
826098.8
 30
0.0
 40
0.25
  1
 F.G. 3/F - 18/F
 72
1
 11
817086.7
 21
826098.8
 31
0.0
 73
2
  0
TEXT
  5
91
  8
AC_Mitigation_Check
 10
817085.4
 20
826099.9
 30
0.0
 40
0.25
  1
 AB(BT) 3/F - 18/F
 72
1
 11
817085.4
 21
826099.9
 31
0.0
 73
2
  0
TEXT
  5
92
  8
AC_Mitigation_Check
 10
817083.8
 20
826101.0
 30
0.0
 40
0.25
  1
 AW(BT) 3/F - 18/F
 72
1
 11
817083.8
 21
826101.0
 31
0.0
 73
2
  0
TEXT
  5
93
  8
AC_Mitigation_Check
 10
817082.3
 20
826102.2
 30
0.0
 40
0.25
  1
 AW(BT) 3/F - 18/F
 72
1
 11
817082.3
 21
826102.2
 31
0.0
 73
2
  0
TEXT
  5
94
  8
AC_Mitigation_Check
 10
817080.0
 20
826104.3
 30
0.0
 40
0.25
  1
 AW(BT) 3/F - 18/F
 72
1
 11
817080.0
 21
826104.3
 31
0.0
 73
2
  0
TEXT
  5
95
  8
AC_Mitigation_Check
 10
817079.1
 20
826106.8
 30
0.0
 40
0.25
  1
 F.G. 3/F - 18/F
 72
1
 11
817079.1
 21
826106.8
 31
0.0
 73
2
  0
TEXT
  5
96
  8
AC_Mitigation_Check
 10
817080.8
 20
826108.7
 30
0.0
 40
0.25
  1
 M.U.P. 5/F - 18/F
 72
1
 11
817080.8
 21
826108.7
 31
0.0
 73
2
  0
TEXT
  5
97
  8
AC_Mitigation_Check
 10
817084.0
 20
826108.8
 30
0.0
 40
0.25
  1
 F.G. 9/F - 18/F
 72
1
 11
817084.0
 21
826108.8
 31
0.0
 73
2
  0
TEXT
  5
98
  8
AC_Mitigation_Check
 10
817100.4
 20
826092.4
 30
0.0
 40
0.25
  1
 M.U.P. 2/F - 18/F
 72
1
 11
817100.4
 21
826092.4
 31
0.0
 73
2
  0
TEXT
  5
99
  8
AC_Mitigation_Check
 10
817099.2
 20
826090.5
 30
0.0
 40
0.25
  1
  
 72
1
 11
817099.2
 21
826090.5
 31
0.0
 73
2
  0
TEXT
  5
9A
  8
AC_Mitigation_Check
 10
817096.3
 20
826090.9
 30
0.0
 40
0.25
  1
 AW(BT) 1/F - 18/F
 72
1
 11
817096.3
 21
826090.9
 31
0.0
 73
2
  0
TEXT
  5
9B
  8
AC_Mitigation_Check
 10
817094.5
 20
826092.4
 30
0.0
 40
0.25
  1
 AW(BT) 2/F - 18/F
 72
1
 11
817094.5
 21
826092.4
 31
0.0
 73
2
  0
TEXT
  5
9C
  8
AC_Mitigation_Check
 10
817092.9
 20
826093.7
 30
0.0
 40
0.25
  1
 AW(BT) 2/F - 18/F
 72
1
 11
817092.9
 21
826093.7
 31
0.0
 73
2
  0
TEXT
  5
9D
  8
AC_Mitigation_Check
 10
817091.9
 20
826094.6
 30
0.0
 40
0.25
  1
 AB(BT) 2/F - 18/F
 72
1
 11
817091.9
 21
826094.6
 31
0.0
 73
2
  0
TEXT
  5
9E
  8
AC_Mitigation_Check
 10
817090.2
 20
826095.9
 30
0.0
 40
0.25
  1
 F.G. 2/F - 18/F
 72
1
 11
817090.2
 21
826095.9
 31
0.0
 73
2
  0
TEXT
  5
9F
  8
AC_Mitigation_Check
 10
817103.0
 20
826096.2
 30
0.0
 40
0.25
  1
 AB(BT) 2/F - 18/F
 72
1
 11
817103.0
 21
826096.2
 31
0.0
 73
2
  0
TEXT
  5
A0
  8
AC_Mitigation_Check
 10
817101.5
 20
826095.7
 30
0.0
 40
0.25
  1
 F.G. 2/F - 18/F
 72
1
 11
817101.5
 21
826095.7
 31
0.0
 73
2
  0
TEXT
  5
A1
  8
AC_Mitigation_Check
 10
817107.5
 20
826096.6
 30
0.0
 40
0.25
  1
 AW(BT) 2/F - 19/F
 72
1
 11
817107.5
 21
826096.6
 31
0.0
 73
2
  0
TEXT
  5
A2
  8
AC_Mitigation_Check
 10
817105.8
 20
826096.1
 30
0.0
 40
0.25
  1
 F.G. 2/F - 19/F
 72
1
 11
817105.8
 21
826096.1
 31
0.0
 73
2
  0
TEXT
  5
A3
  8
AC_Mitigation_Check
 10
817104.6
 20
826095.9
 30
0.0
 40
0.25
  1
 AB(BT) 2/F - 19/F
 72
1
 11
817104.6
 21
826095.9
 31
0.0
 73
2
  0
TEXT
  5
A4
  8
AC_Mitigation_Check
 10
817112.8
 20
826097.8
 30
0.0
 40
0.25
  1
 AB(BT) 2/F - 19/F
 72
1
 11
817112.8
 21
826097.8
 31
0.0
 73
2
  0
TEXT
  5
A5
  8
AC_Mitigation_Check
 10
817111.6
 20
826097.6
 30
0.0
 40
0.25
  1
 F.G. 2/F - 19/F
 72
1
 11
817111.6
 21
826097.6
 31
0.0
 73
2
  0
TEXT
  5
A6
  8
AC_Mitigation_Check
 10
817109.9
 20
826097.1
 30
0.0
 40
0.25
  1
 AW(BT) 2/F - 19/F
 72
1
 11
817109.9
 21
826097.1
 31
0.0
 73
2
  0
TEXT
  5
A7
  8
AC_Mitigation_Check
 10
817117.2
 20
826098.2
 30
0.0
 40
0.25
  1
 AW(BT) 2/F - 19/F
 72
1
 11
817117.2
 21
826098.2
 31
0.0
 73
2
  0
TEXT
  5
A8
  8
AC_Mitigation_Check
 10
817115.5
 20
826097.8
 30
0.0
 40
0.25
  1
 F.G. 2/F - 19/F
 72
1
 11
817115.5
 21
826097.8
 31
0.0
 73
2
  0
TEXT
  5
A9
  8
AC_Mitigation_Check
 10
817114.3
 20
826097.7
 30
0.0
 40
0.25
  1
 AB(BT) 2/F - 19/F
 72
1
 11
817114.3
 21
826097.7
 31
0.0
 73
2
  0
TEXT
  5
AA
  8
AC_Mitigation_Check
 10
817122.6
 20
826099.5
 30
0.0
 40
0.25
  1
 AB(BT) 2/F - 19/F
 72
1
 11
817122.6
 21
826099.5
 31
0.0
 73
2
  0
TEXT
  5
AB
  8
AC_Mitigation_Check
 10
817121.3
 20
826099.2
 30
0.0
 40
0.25
  1
 F.G. 2/F - 19/F
 72
1
 11
817121.3
 21
826099.2
 31
0.0
 73
2
  0
TEXT
  5
AC
  8
AC_Mitigation_Check
 10
817119.6
 20
826098.8
 30
0.0
 40
0.25
  1
 AW(BT) 2/F - 19/F
 72
1
 11
817119.6
 21
826098.8
 31
0.0
 73
2
  0
TEXT
  5
AD
  8
AC_Mitigation_Check
 10
817128.4
 20
826107.2
 30
0.0
 40
0.25
  1
  
 72
1
 11
817128.4
 21
826107.2
 31
0.0
 73
2
  0
TEXT
  5
AE
  8
AC_Mitigation_Check
 10
817129.7
 20
826104.1
 30
0.0
 40
0.25
  1
 F.G. 1/F - 19/F
 72
1
 11
817129.7
 21
826104.1
 31
0.0
 73
2
  0
TEXT
  5
AF
  8
AC_Mitigation_Check
 10
817127.2
 20
826102.2
 30
0.0
 40
0.25
  1
 AW(BT) 1/F - 19/F
 72
1
 11
817127.2
 21
826102.2
 31
0.0
 73
2
  0
TEXT
  5
B0
  8
AC_Mitigation_Check
 10
817124.8
 20
826101.6
 30
0.0
 40
0.25
  1
 F.G. 1/F - 19/F
 72
1
 11
817124.8
 21
826101.6
 31
0.0
 73
2
  0
TEXT
  5
B1
  8
AC_Mitigation_Check
 10
817123.6
 20
826101.0
 30
0.0
 40
0.25
  1
 AB(BT) 1/F - 19/F
 72
1
 11
817123.6
 21
826101.0
 31
0.0
 73
2
  0
TEXT
  5
B2
  8
AC_Mitigation_Check
 10
817126.4
 20
826116.7
 30
0.0
 40
0.25
  1
  
 72
1
 11
817126.4
 21
826116.7
 31
0.0
 73
2
  0
TEXT
  5
B3
  8
AC_Mitigation_Check
 10
817127.4
 20
826116.1
 30
0.0
 40
0.25
  1
  
 72
1
 11
817127.4
 21
826116.1
 31
0.0
 73
2
  0
TEXT
  5
B4
  8
AC_Mitigation_Check
 10
817129.2
 20
826115.2
 30
0.0
 40
0.25
  1
  
 72
1
 11
817129.2
 21
826115.2
 31
0.0
 73
2
  0
TEXT
  5
B5
  8
AC_Mitigation_Check
 10
817130.6
 20
826113.1
 30
0.0
 40
0.25
  1
  
 72
1
 11
817130.6
 21
826113.1
 31
0.0
 73
2
  0
TEXT
  5
B6
  8
AC_Mitigation_Check
 10
817129.6
 20
826111.4
 30
0.0
 40
0.25
  1
  
 72
1
 11
817129.6
 21
826111.4
 31
0.0
 73
2
  0
TEXT
  5
B7
  8
AC_Mitigation_Check
 10
817128.4
 20
826109.5
 30
0.0
 40
0.25
  1
  
 72
1
 11
817128.4
 21
826109.5
 31
0.0
 73
2
  0
TEXT
  5
B8
  8
AC_Mitigation_Check
 10
817123.9
 20
826118.3
 30
0.0
 40
0.25
  1
  
 72
1
 11
817123.9
 21
826118.3
 31
0.0
 73
2
  0
TEXT
  5
B9
  8
AC_Mitigation_Check
 10
817125.3
 20
826117.8
 30
0.0
 40
0.25
  1
  
 72
1
 11
817125.3
 21
826117.8
 31
0.0
 73
2
  0
TEXT
  5
BA
  8
AC_Mitigation_Check
 10
817120.8
 20
826120.0
 30
0.0
 40
0.25
  1
  
 72
1
 11
817120.8
 21
826120.0
 31
0.0
 73
2
  0
TEXT
  5
BB
  8
AC_Mitigation_Check
 10
817122.2
 20
826119.3
 30
0.0
 40
0.25
  1
  
 72
1
 11
817122.2
 21
826119.3
 31
0.0
 73
2
  0
TEXT
  5
BC
  8
AC_Mitigation_Check
 10
817111.7
 20
826116.6
 30
0.0
 40
0.25
  1
 AW(BT) 12/F - 19/F
 72
1
 11
817111.7
 21
826116.6
 31
0.0
 73
2
  0
TEXT
  5
BD
  8
AC_Mitigation_Check
 10
817112.7
 20
826118.6
 30
0.0
 40
0.25
  1
 F.G. 15/F - 19/F
 72
1
 11
817112.7
 21
826118.6
 31
0.0
 73
2
  0
TEXT
  5
BE
  8
AC_Mitigation_Check
 10
817113.3
 20
826120.6
 30
0.0
 40
0.25
  1
 F.G. 15/F - 19/F
 72
1
 11
817113.3
 21
826120.6
 31
0.0
 73
2
  0
TEXT
  5
BF
  8
AC_Mitigation_Check
 10
817116.3
 20
826120.8
 30
0.0
 40
0.25
  1
  
 72
1
 11
817116.3
 21
826120.8
 31
0.0
 73
2
  0
TEXT
  5
C0
  8
AC_Mitigation_Check
 10
817117.8
 20
826119.8
 30
0.0
 40
0.25
  1
  
 72
1
 11
817117.8
 21
826119.8
 31
0.0
 73
2
  0
TEXT
  5
C1
  8
AC_Mitigation_Check
 10
817118.9
 20
826119.3
 30
0.0
 40
0.25
  1
  
 72
1
 11
817118.9
 21
826119.3
 31
0.0
 73
2
  0
TEXT
  5
C2
  8
AC_Mitigation_Check
 10
817110.1
 20
826112.3
 30
0.0
 40
0.25
  1
 AB(BT) 11/F - 19/F
 72
1
 11
817110.1
 21
826112.3
 31
0.0
 73
2
  0
TEXT
  5
C3
  8
AC_Mitigation_Check
 10
817111.7
 20
826112.7
 30
0.0
 40
0.25
  1
 F.G. 12/F - 19/F
 72
1
 11
817111.7
 21
826112.7
 31
0.0
 73
2
  0
TEXT
  5
C4
  8
AC_Mitigation_Check
 10
817107.3
 20
826111.5
 30
0.0
 40
0.25
  1
 F.G. 11/F - 19/F
 72
1
 11
817107.3
 21
826111.5
 31
0.0
 73
2
  0
TEXT
  5
C5
  8
AC_Mitigation_Check
 10
817108.9
 20
826111.9
 30
0.0
 40
0.25
  1
 AB(BT) 11/F - 19/F
 72
1
 11
817108.9
 21
826111.9
 31
0.0
 73
2
  0
TEXT
  5
C6
  8
AC_Mitigation_Check
 10
817103.9
 20
826110.8
 30
0.0
 40
0.25
  1
  
 72
1
 11
817103.9
 21
826110.8
 31
0.0
 73
2
  0
TEXT
  5
C7
  8
AC_Mitigation_Check
 10
817105.5
 20
826111.1
 30
0.0
 40
0.25
  1
 F.G. 16/F - 19/F
 72
1
 11
817105.5
 21
826111.1
 31
0.0
 73
2
  0
TEXT
  5
C8
  8
AC_Mitigation_Check
 10
817101.1
 20
826109.9
 30
0.0
 40
0.25
  1
  
 72
1
 11
817101.1
 21
826109.9
 31
0.0
 73
2
  0
TEXT
  5
C9
  8
AC_Mitigation_Check
 10
817102.6
 20
826110.5
 30
0.0
 40
0.25
  1
  
 72
1
 11
817102.6
 21
826110.5
 31
0.0
 73
2
  0
TEXT
  5
CA
  8
AC_Mitigation_Check
 10
817098.3
 20
826110.9
 30
0.0
 40
0.25
  1
  
 72
1
 11
817098.3
 21
826110.9
 31
0.0
 73
2
  0
TEXT
  5
CB
  8
AC_Mitigation_Check
 10
817099.5
 20
826109.9
 30
0.0
 40
0.25
  1
  
 72
1
 11
817099.5
 21
826109.9
 31
0.0
 73
2
  0
TEXT
  5
CC
  8
AC_Mitigation_Check
 10
817092.1
 20
826116.4
 30
0.0
 40
0.25
  1
 F.G. 9/F - 19/F
 72
1
 11
817092.1
 21
826116.4
 31
0.0
 73
2
  0
TEXT
  5
CD
  8
AC_Mitigation_Check
 10
817093.2
 20
826116.6
 30
0.0
 40
0.25
  1
 AB(BT) 9/F - 19/F
 72
1
 11
817093.2
 21
826116.6
 31
0.0
 73
2
  0
TEXT
  5
CE
  8
AC_Mitigation_Check
 10
817095.1
 20
826116.8
 30
0.0
 40
0.25
  1
 AW(BT) 9/F - 19/F
 72
1
 11
817095.1
 21
826116.8
 31
0.0
 73
2
  0
TEXT
  5
CF
  8
AC_Mitigation_Check
 10
817097.4
 20
826117.3
 30
0.0
 40
0.25
  1
 AW(BT) 9/F - 19/F
 72
1
 11
817097.4
 21
826117.3
 31
0.0
 73
2
  0
TEXT
  5
D0
  8
AC_Mitigation_Check
 10
817100.0
 20
826116.4
 30
0.0
 40
0.25
  1
 F.G. 10/F - 19/F
 72
1
 11
817100.0
 21
826116.4
 31
0.0
 73
2
  0
TEXT
  5
D1
  8
AC_Mitigation_Check
 10
817099.9
 20
826114.6
 30
0.0
 40
0.25
  1
  
 72
1
 11
817099.9
 21
826114.6
 31
0.0
 73
2
  0
TEXT
  5
D2
  8
AC_Mitigation_Check
 10
817085.5
 20
826111.4
 30
0.0
 40
0.25
  1
 AW(BT) 7/F - 19/F
 72
1
 11
817085.5
 21
826111.4
 31
0.0
 73
2
  0
TEXT
  5
D3
  8
AC_Mitigation_Check
 10
817085.3
 20
826115.6
 30
0.0
 40
0.25
  1
 F.G. 6/F - 19/F
 72
1
 11
817085.3
 21
826115.6
 31
0.0
 73
2
  0
TEXT
  5
D4
  8
AC_Mitigation_Check
 10
817087.6
 20
826117.4
 30
0.0
 40
0.25
  1
 AW(BT) 7/F - 19/F
 72
1
 11
817087.6
 21
826117.4
 31
0.0
 73
2
  0
TEXT
  5
D5
  8
AC_Mitigation_Check
 10
817089.8
 20
826116.1
 30
0.0
 40
0.25
  1
 AB(BT) 9/F - 19/F
 72
1
 11
817089.8
 21
826116.1
 31
0.0
 73
2
  0
TEXT
  5
D6
  8
AC_Mitigation_Check
 10
817091.0
 20
826116.2
 30
0.0
 40
0.25
  1
 F.G. 9/F - 19/F
 72
1
 11
817091.0
 21
826116.2
 31
0.0
 73
2
  0
TEXT
  5
D7
  8
AC_Mitigation_Check
 10
817086.8
 20
826108.8
 30
0.0
 40
0.25
  1
 AW(BT) 19/F
 72
1
 11
817086.8
 21
826108.8
 31
0.0
 73
2
  0
TEXT
  5
D8
  8
AC_Mitigation_Check
 10
817086.1
 20
826107.2
 30
0.0
 40
0.25
  1
  
 72
1
 11
817086.1
 21
826107.2
 31
0.0
 73
2
  0
TEXT
  5
D9
  8
AC_Mitigation_Check
 10
817080.7
 20
826108.5
 30
0.0
 40
0.25
  1
 M.U.P. 19/F
 72
1
 11
817080.7
 21
826108.5
 31
0.0
 73
2
  0
TEXT
  5
DA
  8
AC_Mitigation_Check
 10
817079.1
 20
826106.8
 30
0.0
 40
0.25
  1
 F.G. 19/F
 72
1
 11
817079.1
 21
826106.8
 31
0.0
 73
2
  0
TEXT
  5
DB
  8
AC_Mitigation_Check
 10
817080.0
 20
826104.2
 30
0.0
 40
0.25
  1
 AW(BT) 19/F
 72
1
 11
817080.0
 21
826104.2
 31
0.0
 73
2
  0
TEXT
  5
DC
  8
AC_Mitigation_Check
 10
817083.6
 20
826101.3
 30
0.0
 40
0.25
  1
 AW(BT) 19/F
 72
1
 11
817083.6
 21
826101.3
 31
0.0
 73
2
  0
TEXT
  5
DD
  8
AC_Mitigation_Check
 10
817085.3
 20
826100.0
 30
0.0
 40
0.25
  1
 AB(BT) 19/F
 72
1
 11
817085.3
 21
826100.0
 31
0.0
 73
2
  0
TEXT
  5
DE
  8
AC_Mitigation_Check
 10
817086.4
 20
826098.9
 30
0.0
 40
0.25
  1
 F.G. 19/F
 72
1
 11
817086.4
 21
826098.9
 31
0.0
 73
2
  0
TEXT
  5
DF
  8
AC_Mitigation_Check
 10
817090.5
 20
826097.8
 30
0.0
 40
0.25
  1
  
 72
1
 11
817090.5
 21
826097.8
 31
0.0
 73
2
  0
TEXT
  5
E0
  8
AC_Mitigation_Check
 10
817097.5
 20
826098.5
 30
0.0
 40
0.25
  1
  
 72
1
 11
817097.5
 21
826098.5
 31
0.0
 73
2
  0
TEXT
  5
E1
  8
AC_Mitigation_Check
 10
817178.0
 20
826101.3
 30
0.0
 40
0.25
  1
  
 72
1
 11
817178.0
 21
826101.3
 31
0.0
 73
2
  0
TEXT
  5
E2
  8
AC_Mitigation_Check
 10
817179.1
 20
826101.7
 30
0.0
 40
0.25
  1
  
 72
1
 11
817179.1
 21
826101.7
 31
0.0
 73
2
  0
TEXT
  5
E3
  8
AC_Mitigation_Check
 10
817180.8
 20
826102.1
 30
0.0
 40
0.25
  1
  
 72
1
 11
817180.8
 21
826102.1
 31
0.0
 73
2
  0
TEXT
  5
E4
  8
AC_Mitigation_Check
 10
817183.2
 20
826102.6
 30
0.0
 40
0.25
  1
  
 72
1
 11
817183.2
 21
826102.6
 31
0.0
 73
2
  0
TEXT
  5
E5
  8
AC_Mitigation_Check
 10
817185.7
 20
826101.9
 30
0.0
 40
0.25
  1
 F.G. UG/F - 18/F
 72
1
 11
817185.7
 21
826101.9
 31
0.0
 73
2
  0
TEXT
  5
E6
  8
AC_Mitigation_Check
 10
817185.9
 20
826100.0
 30
0.0
 40
0.25
  1
 F.G. UG/F - 18/F
 72
1
 11
817185.9
 21
826100.0
 31
0.0
 73
2
  0
TEXT
  5
E7
  8
AC_Mitigation_Check
 10
817185.3
 20
826089.0
 30
0.0
 40
0.25
  1
 F.G. UG/F - 18/F
 72
1
 11
817185.3
 21
826089.0
 31
0.0
 73
2
  0
TEXT
  5
E8
  8
AC_Mitigation_Check
 10
817183.5
 20
826087.1
 30
0.0
 40
0.25
  1
 AW(BT) G/F - 18/F
 72
1
 11
817183.5
 21
826087.1
 31
0.0
 73
2
  0
TEXT
  5
E9
  8
AC_Mitigation_Check
 10
817181.7
 20
826086.0
 30
0.0
 40
0.25
  1
 F.G. UG/F - 18/F
 72
1
 11
817181.7
 21
826086.0
 31
0.0
 73
2
  0
TEXT
  5
EA
  8
AC_Mitigation_Check
 10
817180.6
 20
826085.8
 30
0.0
 40
0.25
  1
 AB(BT) UG/F - 18/F
 72
1
 11
817180.6
 21
826085.8
 31
0.0
 73
2
  0
TEXT
  5
EB
  8
AC_Mitigation_Check
 10
817178.9
 20
826085.3
 30
0.0
 40
0.25
  1
 F.G. UG/F - 18/F
 72
1
 11
817178.9
 21
826085.3
 31
0.0
 73
2
  0
TEXT
  5
EC
  8
AC_Mitigation_Check
 10
817177.9
 20
826085.1
 30
0.0
 40
0.25
  1
 AB(BT) UG/F - 18/F
 72
1
 11
817177.9
 21
826085.1
 31
0.0
 73
2
  0
TEXT
  5
ED
  8
AC_Mitigation_Check
 10
817175.2
 20
826084.7
 30
0.0
 40
0.25
  1
 AB(BT) UG/F - 18/F
 72
1
 11
817175.2
 21
826084.7
 31
0.0
 73
2
  0
TEXT
  5
EE
  8
AC_Mitigation_Check
 10
817174.5
 20
826084.7
 30
0.0
 40
0.25
  1
 F.G. UG/F - 18/F
 72
1
 11
817174.5
 21
826084.7
 31
0.0
 73
2
  0
TEXT
  5
EF
  8
AC_Mitigation_Check
 10
817173.2
 20
826084.4
 30
0.0
 40
0.25
  1
 AW(BT) UG/F - 18/F
 72
1
 11
817173.2
 21
826084.4
 31
0.0
 73
2
  0
TEXT
  5
F0
  8
AC_Mitigation_Check
 10
817171.9
 20
826084.1
 30
0.0
 40
0.25
  1
 AW(BT) UG/F - 18/F
 72
1
 11
817171.9
 21
826084.1
 31
0.0
 73
2
  0
TEXT
  5
F1
  8
AC_Mitigation_Check
 10
817167.9
 20
826086.1
 30
0.0
 40
0.25
  1
  
 72
1
 11
817167.9
 21
826086.1
 31
0.0
 73
2
  0
TEXT
  5
F2
  8
AC_Mitigation_Check
 10
817169.1
 20
826086.4
 30
0.0
 40
0.25
  1
  
 72
1
 11
817169.1
 21
826086.4
 31
0.0
 73
2
  0
TEXT
  5
F3
  8
AC_Mitigation_Check
 10
817165.3
 20
826084.3
 30
0.0
 40
0.25
  1
 AB(BT) UG/F - 19/F
 72
1
 11
817165.3
 21
826084.3
 31
0.0
 73
2
  0
TEXT
  5
F4
  8
AC_Mitigation_Check
 10
817164.9
 20
826084.6
 30
0.0
 40
0.25
  1
 F.G. UG/F - 19/F
 72
1
 11
817164.9
 21
826084.6
 31
0.0
 73
2
  0
TEXT
  5
F5
  8
AC_Mitigation_Check
 10
817163.5
 20
826085.4
 30
0.0
 40
0.25
  1
 AW(BT) UG/F - 19/F
 72
1
 11
817163.5
 21
826085.4
 31
0.0
 73
2
  0
TEXT
  5
F6
  8
AC_Mitigation_Check
 10
817161.3
 20
826085.8
 30
0.0
 40
0.25
  1
 AW(BT) UG/F - 19/F
 72
1
 11
817161.3
 21
826085.8
 31
0.0
 73
2
  0
TEXT
  5
F7
  8
AC_Mitigation_Check
 10
817159.6
 20
826088.4
 30
0.0
 40
0.25
  1
 AW(BT) UG/F - 19/F
 72
1
 11
817159.6
 21
826088.4
 31
0.0
 73
2
  0
TEXT
  5
F8
  8
AC_Mitigation_Check
 10
817158.1
 20
826089.2
 30
0.0
 40
0.25
  1
 F.G. UG/F - 19/F
 72
1
 11
817158.1
 21
826089.2
 31
0.0
 73
2
  0
TEXT
  5
F9
  8
AC_Mitigation_Check
 10
817157.6
 20
826089.5
 30
0.0
 40
0.25
  1
 AW(BT) UG/F - 19/F
 72
1
 11
817157.6
 21
826089.5
 31
0.0
 73
2
  0
TEXT
  5
FA
  8
AC_Mitigation_Check
 10
817155.2
 20
826090.7
 30
0.0
 40
0.25
  1
 AB(BT) UG/F - 19/F
 72
1
 11
817155.2
 21
826090.7
 31
0.0
 73
2
  0
TEXT
  5
FB
  8
AC_Mitigation_Check
 10
817154.7
 20
826091.0
 30
0.0
 40
0.25
  1
 F.G. UG/F - 19/F
 72
1
 11
817154.7
 21
826091.0
 31
0.0
 73
2
  0
TEXT
  5
FC
  8
AC_Mitigation_Check
 10
817153.0
 20
826091.7
 30
0.0
 40
0.25
  1
 AW(BT) UG/F - 19/F
 72
1
 11
817153.0
 21
826091.7
 31
0.0
 73
2
  0
TEXT
  5
FD
  8
AC_Mitigation_Check
 10
817150.8
 20
826092.8
 30
0.0
 40
0.25
  1
 AW(BT) UG/F - 19/F
 72
1
 11
817150.8
 21
826092.8
 31
0.0
 73
2
  0
TEXT
  5
FE
  8
AC_Mitigation_Check
 10
817149.3
 20
826093.6
 30
0.0
 40
0.25
  1
 F.G. UG/F - 19/F
 72
1
 11
817149.3
 21
826093.6
 31
0.0
 73
2
  0
TEXT
  5
FF
  8
AC_Mitigation_Check
 10
817148.8
 20
826093.9
 30
0.0
 40
0.25
  1
 AB(BT) UG/F - 19/F
 72
1
 11
817148.8
 21
826093.9
 31
0.0
 73
2
  0
TEXT
  5
100
  8
AC_Mitigation_Check
 10
817146.3
 20
826095.1
 30
0.0
 40
0.25
  1
 AB(BT) UG/F - 19/F
 72
1
 11
817146.3
 21
826095.1
 31
0.0
 73
2
  0
TEXT
  5
101
  8
AC_Mitigation_Check
 10
817145.8
 20
826095.3
 30
0.0
 40
0.25
  1
 F.G. UG/F - 19/F
 72
1
 11
817145.8
 21
826095.3
 31
0.0
 73
2
  0
TEXT
  5
102
  8
AC_Mitigation_Check
 10
817144.2
 20
826096.1
 30
0.0
 40
0.25
  1
 AW(BT) UG/F - 19/F
 72
1
 11
817144.2
 21
826096.1
 31
0.0
 73
2
  0
TEXT
  5
103
  8
AC_Mitigation_Check
 10
817142.0
 20
826097.2
 30
0.0
 40
0.25
  1
 AW(BT) 1/F - 19/F
 72
1
 11
817142.0
 21
826097.2
 31
0.0
 73
2
  0
TEXT
  5
104
  8
AC_Mitigation_Check
 10
817140.4
 20
826098.0
 30
0.0
 40
0.25
  1
 F.G. 1/F - 19/F
 72
1
 11
817140.4
 21
826098.0
 31
0.0
 73
2
  0
TEXT
  5
105
  8
AC_Mitigation_Check
 10
817139.4
 20
826098.6
 30
0.0
 40
0.25
  1
 AB(BT) 1/F - 19/F
 72
1
 11
817139.4
 21
826098.6
 31
0.0
 73
2
  0
TEXT
  5
106
  8
AC_Mitigation_Check
 10
817139.4
 20
826102.0
 30
0.0
 40
0.25
  1
  
 72
1
 11
817139.4
 21
826102.0
 31
0.0
 73
2
  0
TEXT
  5
107
  8
AC_Mitigation_Check
 10
817137.9
 20
826102.7
 30
0.0
 40
0.25
  1
 F.G. 1/F - 11/F
 72
1
 11
817137.9
 21
826102.7
 31
0.0
 73
2
  0
TEXT
  5
108
  8
AC_Mitigation_Check
 10
817136.8
 20
826104.9
 30
0.0
 40
0.25
  1
 F.G. 2/F - 10/F
 72
1
 11
817136.8
 21
826104.9
 31
0.0
 73
2
  0
TEXT
  5
109
  8
AC_Mitigation_Check
 10
817138.0
 20
826112.8
 30
0.0
 40
0.25
  1
  
 72
1
 11
817138.0
 21
826112.8
 31
0.0
 73
2
  0
TEXT
  5
10A
  8
AC_Mitigation_Check
 10
817139.2
 20
826115.2
 30
0.0
 40
0.25
  1
  
 72
1
 11
817139.2
 21
826115.2
 31
0.0
 73
2
  0
TEXT
  5
10B
  8
AC_Mitigation_Check
 10
817141.8
 20
826115.3
 30
0.0
 40
0.25
  1
  
 72
1
 11
817141.8
 21
826115.3
 31
0.0
 73
2
  0
TEXT
  5
10C
  8
AC_Mitigation_Check
 10
817143.9
 20
826114.3
 30
0.0
 40
0.25
  1
  
 72
1
 11
817143.9
 21
826114.3
 31
0.0
 73
2
  0
TEXT
  5
10D
  8
AC_Mitigation_Check
 10
817145.3
 20
826113.6
 30
0.0
 40
0.25
  1
  
 72
1
 11
817145.3
 21
826113.6
 31
0.0
 73
2
  0
TEXT
  5
10E
  8
AC_Mitigation_Check
 10
817146.5
 20
826113.0
 30
0.0
 40
0.25
  1
  
 72
1
 11
817146.5
 21
826113.0
 31
0.0
 73
2
  0
TEXT
  5
10F
  8
AC_Mitigation_Check
 10
817147.6
 20
826112.0
 30
0.0
 40
0.25
  1
  
 72
1
 11
817147.6
 21
826112.0
 31
0.0
 73
2
  0
TEXT
  5
110
  8
AC_Mitigation_Check
 10
817148.7
 20
826111.5
 30
0.0
 40
0.25
  1
  
 72
1
 11
817148.7
 21
826111.5
 31
0.0
 73
2
  0
TEXT
  5
111
  8
AC_Mitigation_Check
 10
817150.3
 20
826110.8
 30
0.0
 40
0.25
  1
  
 72
1
 11
817150.3
 21
826110.8
 31
0.0
 73
2
  0
TEXT
  5
112
  8
AC_Mitigation_Check
 10
817152.6
 20
826109.7
 30
0.0
 40
0.25
  1
  
 72
1
 11
817152.6
 21
826109.7
 31
0.0
 73
2
  0
TEXT
  5
113
  8
AC_Mitigation_Check
 10
817154.1
 20
826108.8
 30
0.0
 40
0.25
  1
  
 72
1
 11
817154.1
 21
826108.8
 31
0.0
 73
2
  0
TEXT
  5
114
  8
AC_Mitigation_Check
 10
817155.0
 20
826108.2
 30
0.0
 40
0.25
  1
  
 72
1
 11
817155.0
 21
826108.2
 31
0.0
 73
2
  0
TEXT
  5
115
  8
AC_Mitigation_Check
 10
817156.0
 20
826106.9
 30
0.0
 40
0.25
  1
  
 72
1
 11
817156.0
 21
826106.9
 31
0.0
 73
2
  0
TEXT
  5
116
  8
AC_Mitigation_Check
 10
817157.1
 20
826106.4
 30
0.0
 40
0.25
  1
  
 72
1
 11
817157.1
 21
826106.4
 31
0.0
 73
2
  0
TEXT
  5
117
  8
AC_Mitigation_Check
 10
817158.8
 20
826105.7
 30
0.0
 40
0.25
  1
  
 72
1
 11
817158.8
 21
826105.7
 31
0.0
 73
2
  0
TEXT
  5
118
  8
AC_Mitigation_Check
 10
817160.9
 20
826104.6
 30
0.0
 40
0.25
  1
  
 72
1
 11
817160.9
 21
826104.6
 31
0.0
 73
2
  0
TEXT
  5
119
  8
AC_Mitigation_Check
 10
817162.6
 20
826103.9
 30
0.0
 40
0.25
  1
  
 72
1
 11
817162.6
 21
826103.9
 31
0.0
 73
2
  0
TEXT
  5
11A
  8
AC_Mitigation_Check
 10
817163.6
 20
826103.3
 30
0.0
 40
0.25
  1
  
 72
1
 11
817163.6
 21
826103.3
 31
0.0
 73
2
  0
TEXT
  5
11B
  8
AC_Mitigation_Check
 10
817165.0
 20
826102.9
 30
0.0
 40
0.25
  1
  
 72
1
 11
817165.0
 21
826102.9
 31
0.0
 73
2
  0
TEXT
  5
11C
  8
AC_Mitigation_Check
 10
817166.0
 20
826102.3
 30
0.0
 40
0.25
  1
  
 72
1
 11
817166.0
 21
826102.3
 31
0.0
 73
2
  0
TEXT
  5
11D
  8
AC_Mitigation_Check
 10
817167.6
 20
826101.5
 30
0.0
 40
0.25
  1
  
 72
1
 11
817167.6
 21
826101.5
 31
0.0
 73
2
  0
TEXT
  5
11E
  8
AC_Mitigation_Check
 10
817169.8
 20
826100.3
 30
0.0
 40
0.25
  1
  
 72
1
 11
817169.8
 21
826100.3
 31
0.0
 73
2
  0
TEXT
  5
11F
  8
AC_Mitigation_Check
 10
817171.3
 20
826099.7
 30
0.0
 40
0.25
  1
  
 72
1
 11
817171.3
 21
826099.7
 31
0.0
 73
2
  0
TEXT
  5
120
  8
AC_Mitigation_Check
 10
817172.4
 20
826099.2
 30
0.0
 40
0.25
  1
  
 72
1
 11
817172.4
 21
826099.2
 31
0.0
 73
2
  0
TEXT
  5
121
  8
AC_Mitigation_Check
 10
817173.9
 20
826099.8
 30
0.0
 40
0.25
  1
  
 72
1
 11
817173.9
 21
826099.8
 31
0.0
 73
2
  0
TEXT
  5
122
  8
AC_Mitigation_Check
 10
817175.3
 20
826100.8
 30
0.0
 40
0.25
  1
  
 72
1
 11
817175.3
 21
826100.8
 31
0.0
 73
2
  0
TEXT
  5
123
  8
AC_Mitigation_Check
 10
817176.6
 20
826101.2
 30
0.0
 40
0.25
  1
  
 72
1
 11
817176.6
 21
826101.2
 31
0.0
 73
2
  0
TEXT
  5
124
  8
AC_Mitigation_Check
 10
817173.9
 20
826099.6
 30
0.0
 40
0.25
  1
  
 72
1
 11
817173.9
 21
826099.6
 31
0.0
 73
2
  0
TEXT
  5
125
  8
AC_Mitigation_Check
 10
817175.4
 20
826100.7
 30
0.0
 40
0.25
  1
  
 72
1
 11
817175.4
 21
826100.7
 31
0.0
 73
2
  0
TEXT
  5
126
  8
AC_Mitigation_Check
 10
817176.7
 20
826101.0
 30
0.0
 40
0.25
  1
  
 72
1
 11
817176.7
 21
826101.0
 31
0.0
 73
2
  0
TEXT
  5
127
  8
AC_Mitigation_Check
 10
817180.4
 20
826102.0
 30
0.0
 40
0.25
  1
  
 72
1
 11
817180.4
 21
826102.0
 31
0.0
 73
2
  0
TEXT
  5
128
  8
AC_Mitigation_Check
 10
817182.0
 20
826095.9
 30
0.0
 40
0.25
  1
  
 72
1
 11
817182.0
 21
826095.9
 31
0.0
 73
2
  0
TEXT
  5
129
  8
AC_Mitigation_Check
 10
817180.3
 20
826093.8
 30
0.0
 40
0.25
  1
  
 72
1
 11
817180.3
 21
826093.8
 31
0.0
 73
2
  0
TEXT
  5
12A
  8
AC_Mitigation_Check
 10
817180.8
 20
826091.6
 30
0.0
 40
0.25
  1
  
 72
1
 11
817180.8
 21
826091.6
 31
0.0
 73
2
  0
TEXT
  5
12B
  8
AC_Mitigation_Check
 10
817177.1
 20
826087.8
 30
0.0
 40
0.25
  1
  
 72
1
 11
817177.1
 21
826087.8
 31
0.0
 73
2
  0
TEXT
  5
12C
  8
AC_Mitigation_Check
 10
817214.5
 20
826128.6
 30
0.0
 40
0.25
  1
  
 72
1
 11
817214.5
 21
826128.6
 31
0.0
 73
2
  0
TEXT
  5
12D
  8
AC_Mitigation_Check
 10
817214.5
 20
826129.8
 30
0.0
 40
0.25
  1
  
 72
1
 11
817214.5
 21
826129.8
 31
0.0
 73
2
  0
TEXT
  5
12E
  8
AC_Mitigation_Check
 10
817214.5
 20
826131.5
 30
0.0
 40
0.25
  1
  
 72
1
 11
817214.5
 21
826131.5
 31
0.0
 73
2
  0
TEXT
  5
12F
  8
AC_Mitigation_Check
 10
817214.6
 20
826133.8
 30
0.0
 40
0.25
  1
  
 72
1
 11
817214.6
 21
826133.8
 31
0.0
 73
2
  0
TEXT
  5
130
  8
AC_Mitigation_Check
 10
817225.6
 20
826136.7
 30
0.0
 40
0.25
  1
 AW(BT) 18/F - 19/F
 72
1
 11
817225.6
 21
826136.7
 31
0.0
 73
2
  0
TEXT
  5
131
  8
AC_Mitigation_Check
 10
817229.4
 20
826136.8
 30
0.0
 40
0.25
  1
 F.G. 15/F - 19/F
 72
1
 11
817229.4
 21
826136.8
 31
0.0
 73
2
  0
TEXT
  5
132
  8
AC_Mitigation_Check
 10
817231.4
 20
826137.0
 30
0.0
 40
0.25
  1
 F.G. 11/F - 19/F
 72
1
 11
817231.4
 21
826137.0
 31
0.0
 73
2
  0
TEXT
  5
133
  8
AC_Mitigation_Check
 10
817232.8
 20
826134.6
 30
0.0
 40
0.25
  1
 AW(BT) 9/F - 19/F
 72
1
 11
817232.8
 21
826134.6
 31
0.0
 73
2
  0
TEXT
  5
134
  8
AC_Mitigation_Check
 10
817231.0
 20
826132.5
 30
0.0
 40
0.25
  1
  
 72
1
 11
817231.0
 21
826132.5
 31
0.0
 73
2
  0
TEXT
  5
135
  8
AC_Mitigation_Check
 10
817231.1
 20
826131.3
 30
0.0
 40
0.25
  1
 F.G. 17/F - 19/F
 72
1
 11
817231.1
 21
826131.3
 31
0.0
 73
2
  0
TEXT
  5
136
  8
AC_Mitigation_Check
 10
817231.0
 20
826129.4
 30
0.0
 40
0.25
  1
 AW(BT) 11/F - 19/F
 72
1
 11
817231.0
 21
826129.4
 31
0.0
 73
2
  0
TEXT
  5
137
  8
AC_Mitigation_Check
 10
817231.0
 20
826127.7
 30
0.0
 40
0.25
  1
 F.G. 10/F - 19/F
 72
1
 11
817231.0
 21
826127.7
 31
0.0
 73
2
  0
TEXT
  5
138
  8
AC_Mitigation_Check
 10
817231.0
 20
826126.6
 30
0.0
 40
0.25
  1
 AB(BT) 10/F - 19/F
 72
1
 11
817231.0
 21
826126.6
 31
0.0
 73
2
  0
TEXT
  5
139
  8
AC_Mitigation_Check
 10
817230.9
 20
826125.2
 30
0.0
 40
0.25
  1
 AB(BT) 10/F - 19/F
 72
1
 11
817230.9
 21
826125.2
 31
0.0
 73
2
  0
TEXT
  5
13A
  8
AC_Mitigation_Check
 10
817230.7
 20
826124.0
 30
0.0
 40
0.25
  1
 F.G. 10/F - 19/F
 72
1
 11
817230.7
 21
826124.0
 31
0.0
 73
2
  0
TEXT
  5
13B
  8
AC_Mitigation_Check
 10
817230.6
 20
826122.0
 30
0.0
 40
0.25
  1
 AW(BT) 11/F - 19/F
 72
1
 11
817230.6
 21
826122.0
 31
0.0
 73
2
  0
TEXT
  5
13C
  8
AC_Mitigation_Check
 10
817230.5
 20
826119.5
 30
0.0
 40
0.25
  1
 AW(BT) 11/F - 19/F
 72
1
 11
817230.5
 21
826119.5
 31
0.0
 73
2
  0
TEXT
  5
13D
  8
AC_Mitigation_Check
 10
817230.7
 20
826118.0
 30
0.0
 40
0.25
  1
 F.G. 11/F - 19/F
 72
1
 11
817230.7
 21
826118.0
 31
0.0
 73
2
  0
TEXT
  5
13E
  8
AC_Mitigation_Check
 10
817230.5
 20
826116.6
 30
0.0
 40
0.25
  1
 AB(BT) 11/F - 19/F
 72
1
 11
817230.5
 21
826116.6
 31
0.0
 73
2
  0
TEXT
  5
13F
  8
AC_Mitigation_Check
 10
817230.6
 20
826115.3
 30
0.0
 40
0.25
  1
 AB(BT) 11/F - 19/F
 72
1
 11
817230.6
 21
826115.3
 31
0.0
 73
2
  0
TEXT
  5
140
  8
AC_Mitigation_Check
 10
817230.5
 20
826114.1
 30
0.0
 40
0.25
  1
 F.G. 12/F - 19/F
 72
1
 11
817230.5
 21
826114.1
 31
0.0
 73
2
  0
TEXT
  5
141
  8
AC_Mitigation_Check
 10
817230.4
 20
826112.2
 30
0.0
 40
0.25
  1
 AW(BT) 12/F - 19/F
 72
1
 11
817230.4
 21
826112.2
 31
0.0
 73
2
  0
TEXT
  5
142
  8
AC_Mitigation_Check
 10
817230.3
 20
826109.9
 30
0.0
 40
0.25
  1
 AW(BT) 15/F - 19/F
 72
1
 11
817230.3
 21
826109.9
 31
0.0
 73
2
  0
TEXT
  5
143
  8
AC_Mitigation_Check
 10
817230.3
 20
826108.1
 30
0.0
 40
0.25
  1
 F.G. 16/F - 19/F
 72
1
 11
817230.3
 21
826108.1
 31
0.0
 73
2
  0
TEXT
  5
144
  8
AC_Mitigation_Check
 10
817230.3
 20
826106.9
 30
0.0
 40
0.25
  1
 AB(BT) 17/F - 19/F
 72
1
 11
817230.3
 21
826106.9
 31
0.0
 73
2
  0
TEXT
  5
145
  8
AC_Mitigation_Check
 10
817230.1
 20
826105.5
 30
0.0
 40
0.25
  1
 AB(BT) 19/F
 72
1
 11
817230.1
 21
826105.5
 31
0.0
 73
2
  0
TEXT
  5
146
  8
AC_Mitigation_Check
 10
817230.1
 20
826104.3
 30
0.0
 40
0.25
  1
  
 72
1
 11
817230.1
 21
826104.3
 31
0.0
 73
2
  0
TEXT
  5
147
  8
AC_Mitigation_Check
 10
817230.2
 20
826102.4
 30
0.0
 40
0.25
  1
  
 72
1
 11
817230.2
 21
826102.4
 31
0.0
 73
2
  0
TEXT
  5
148
  8
AC_Mitigation_Check
 10
817232.1
 20
826101.0
 30
0.0
 40
0.25
  1
  
 72
1
 11
817232.1
 21
826101.0
 31
0.0
 73
2
  0
TEXT
  5
149
  8
AC_Mitigation_Check
 10
817233.4
 20
826100.2
 30
0.0
 40
0.25
  1
  
 72
1
 11
817233.4
 21
826100.2
 31
0.0
 73
2
  0
TEXT
  5
14A
  8
AC_Mitigation_Check
 10
817234.7
 20
826099.3
 30
0.0
 40
0.25
  1
 F.G. 7/F - 18/F
 72
1
 11
817234.7
 21
826099.3
 31
0.0
 73
2
  0
TEXT
  5
14B
  8
AC_Mitigation_Check
 10
817234.3
 20
826096.2
 30
0.0
 40
0.25
  1
 AW(BT) UG/F - 18/F
 72
1
 11
817234.3
 21
826096.2
 31
0.0
 73
2
  0
TEXT
  5
14C
  8
AC_Mitigation_Check
 10
817232.9
 20
826094.2
 30
0.0
 40
0.25
  1
 F.G. UG/F - 18/F
 72
1
 11
817232.9
 21
826094.2
 31
0.0
 73
2
  0
TEXT
  5
14D
  8
AC_Mitigation_Check
 10
817232.1
 20
826093.2
 30
0.0
 40
0.25
  1
 AB(BT) UG/F - 18/F
 72
1
 11
817232.1
 21
826093.2
 31
0.0
 73
2
  0
TEXT
  5
14E
  8
AC_Mitigation_Check
 10
817231.3
 20
826092.1
 30
0.0
 40
0.25
  1
 AB(BT) UG/F - 18/F
 72
1
 11
817231.3
 21
826092.1
 31
0.0
 73
2
  0
TEXT
  5
14F
  8
AC_Mitigation_Check
 10
817230.4
 20
826090.7
 30
0.0
 40
0.25
  1
 F.G. UG/F - 18/F
 72
1
 11
817230.4
 21
826090.7
 31
0.0
 73
2
  0
TEXT
  5
150
  8
AC_Mitigation_Check
 10
817228.6
 20
826089.3
 30
0.0
 40
0.25
  1
 AW(BT) UG/F - 17/F
 72
1
 11
817228.6
 21
826089.3
 31
0.0
 73
2
  0
TEXT
  5
151
  8
AC_Mitigation_Check
 10
817227.4
 20
826087.9
 30
0.0
 40
0.25
  1
 F.G. UG/F - 16/F
 72
1
 11
817227.4
 21
826087.9
 31
0.0
 73
2
  0
TEXT
  5
152
  8
AC_Mitigation_Check
 10
817226.7
 20
826087.0
 30
0.0
 40
0.25
  1
 AB(BT) UG/F - 16/F
 72
1
 11
817226.7
 21
826087.0
 31
0.0
 73
2
  0
TEXT
  5
153
  8
AC_Mitigation_Check
 10
817226.1
 20
826085.7
 30
0.0
 40
0.25
  1
 AB(BT) UG/F - 17/F
 72
1
 11
817226.1
 21
826085.7
 31
0.0
 73
2
  0
TEXT
  5
154
  8
AC_Mitigation_Check
 10
817225.2
 20
826084.4
 30
0.0
 40
0.25
  1
 F.G. UG/F - 15/F
 72
1
 11
817225.2
 21
826084.4
 31
0.0
 73
2
  0
TEXT
  5
155
  8
AC_Mitigation_Check
 10
817224.9
 20
826082.7
 30
0.0
 40
0.25
  1
 F.G. UG/F - 18/F
 72
1
 11
817224.9
 21
826082.7
 31
0.0
 73
2
  0
TEXT
  5
156
  8
AC_Mitigation_Check
 10
817224.3
 20
826081.8
 30
0.0
 40
0.25
  1
 AB(BT) UG/F - 9/F
 72
1
 11
817224.3
 21
826081.8
 31
0.0
 73
2
  0
TEXT
  5
157
  8
AC_Mitigation_Check
 10
817224.2
 20
826079.3
 30
0.0
 40
0.25
  1
 AW(BT) UG/F - 18/F
 72
1
 11
817224.2
 21
826079.3
 31
0.0
 73
2
  0
TEXT
  5
158
  8
AC_Mitigation_Check
 10
817221.7
 20
826078.1
 30
0.0
 40
0.25
  1
 F.G. UG/F - 18/F
 72
1
 11
817221.7
 21
826078.1
 31
0.0
 73
2
  0
TEXT
  5
159
  8
AC_Mitigation_Check
 10
817220.2
 20
826079.5
 30
0.0
 40
0.25
  1
 F.G. G/F - 18/F
 72
1
 11
817220.2
 21
826079.5
 31
0.0
 73
2
  0
TEXT
  5
15A
  8
AC_Mitigation_Check
 10
817218.0
 20
826081.4
 30
0.0
 40
0.25
  1
 AW(BT) UG/F - 18/F
 72
1
 11
817218.0
 21
826081.4
 31
0.0
 73
2
  0
TEXT
  5
15B
  8
AC_Mitigation_Check
 10
817213.0
 20
826082.5
 30
0.0
 40
0.25
  1
 AW(BT) G/F - 18/F
 72
1
 11
817213.0
 21
826082.5
 31
0.0
 73
2
  0
TEXT
  5
15C
  8
AC_Mitigation_Check
 10
817211.6
 20
826083.5
 30
0.0
 40
0.25
  1
 F.G. G/F - 18/F
 72
1
 11
817211.6
 21
826083.5
 31
0.0
 73
2
  0
TEXT
  5
15D
  8
AC_Mitigation_Check
 10
817211.2
 20
826083.9
 30
0.0
 40
0.25
  1
 AB(BT) UG/F - 18/F
 72
1
 11
817211.2
 21
826083.9
 31
0.0
 73
2
  0
TEXT
  5
15E
  8
AC_Mitigation_Check
 10
817209.0
 20
826085.5
 30
0.0
 40
0.25
  1
 AB(BT) UG/F - 18/F
 72
1
 11
817209.0
 21
826085.5
 31
0.0
 73
2
  0
TEXT
  5
15F
  8
AC_Mitigation_Check
 10
817208.4
 20
826085.9
 30
0.0
 40
0.25
  1
 F.G. UG/F - 18/F
 72
1
 11
817208.4
 21
826085.9
 31
0.0
 73
2
  0
TEXT
  5
160
  8
AC_Mitigation_Check
 10
817207.0
 20
826087.0
 30
0.0
 40
0.25
  1
 AW(BT) UG/F - 18/F
 72
1
 11
817207.0
 21
826087.0
 31
0.0
 73
2
  0
TEXT
  5
161
  8
AC_Mitigation_Check
 10
817205.5
 20
826088.0
 30
0.0
 40
0.25
  1
 F.G. UG/F - 18/F
 72
1
 11
817205.5
 21
826088.0
 31
0.0
 73
2
  0
TEXT
  5
162
  8
AC_Mitigation_Check
 10
817204.6
 20
826088.7
 30
0.0
 40
0.25
  1
 AB(BT) UG/F - 18/F
 72
1
 11
817204.6
 21
826088.7
 31
0.0
 73
2
  0
TEXT
  5
163
  8
AC_Mitigation_Check
 10
817202.0
 20
826088.7
 30
0.0
 40
0.25
  1
 AW(BT) G/F - 18/F
 72
1
 11
817202.0
 21
826088.7
 31
0.0
 73
2
  0
TEXT
  5
164
  8
AC_Mitigation_Check
 10
817201.1
 20
826091.2
 30
0.0
 40
0.25
  1
 F.G. UG/F - 18/F
 72
1
 11
817201.1
 21
826091.2
 31
0.0
 73
2
  0
TEXT
  5
165
  8
AC_Mitigation_Check
 10
817202.5
 20
826092.8
 30
0.0
 40
0.25
  1
  
 72
1
 11
817202.5
 21
826092.8
 31
0.0
 73
2
  0
TEXT
  5
166
  8
AC_Mitigation_Check
 10
817204.7
 20
826095.7
 30
0.0
 40
0.25
  1
  
 72
1
 11
817204.7
 21
826095.7
 31
0.0
 73
2
  0
TEXT
  5
167
  8
AC_Mitigation_Check
 10
817210.4
 20
826096.9
 30
0.0
 40
0.25
  1
  
 72
1
 11
817210.4
 21
826096.9
 31
0.0
 73
2
  0
TEXT
  5
168
  8
AC_Mitigation_Check
 10
817211.4
 20
826098.4
 30
0.0
 40
0.25
  1
  
 72
1
 11
817211.4
 21
826098.4
 31
0.0
 73
2
  0
TEXT
  5
169
  8
AC_Mitigation_Check
 10
817212.1
 20
826099.3
 30
0.0
 40
0.25
  1
  
 72
1
 11
817212.1
 21
826099.3
 31
0.0
 73
2
  0
TEXT
  5
16A
  8
AC_Mitigation_Check
 10
817213.0
 20
826100.5
 30
0.0
 40
0.25
  1
  
 72
1
 11
817213.0
 21
826100.5
 31
0.0
 73
2
  0
TEXT
  5
16B
  8
AC_Mitigation_Check
 10
817213.7
 20
826101.6
 30
0.0
 40
0.25
  1
  
 72
1
 11
817213.7
 21
826101.6
 31
0.0
 73
2
  0
TEXT
  5
16C
  8
AC_Mitigation_Check
 10
817214.7
 20
826102.9
 30
0.0
 40
0.25
  1
  
 72
1
 11
817214.7
 21
826102.9
 31
0.0
 73
2
  0
TEXT
  5
16D
  8
AC_Mitigation_Check
 10
817215.4
 20
826104.5
 30
0.0
 40
0.25
  1
  
 72
1
 11
817215.4
 21
826104.5
 31
0.0
 73
2
  0
TEXT
  5
16E
  8
AC_Mitigation_Check
 10
817215.6
 20
826106.2
 30
0.0
 40
0.25
  1
  
 72
1
 11
817215.6
 21
826106.2
 31
0.0
 73
2
  0
TEXT
  5
16F
  8
AC_Mitigation_Check
 10
817215.7
 20
826107.3
 30
0.0
 40
0.25
  1
  
 72
1
 11
817215.7
 21
826107.3
 31
0.0
 73
2
  0
TEXT
  5
170
  8
AC_Mitigation_Check
 10
817215.8
 20
826108.8
 30
0.0
 40
0.25
  1
  
 72
1
 11
817215.8
 21
826108.8
 31
0.0
 73
2
  0
TEXT
  5
171
  8
AC_Mitigation_Check
 10
817215.8
 20
826110.0
 30
0.0
 40
0.25
  1
  
 72
1
 11
817215.8
 21
826110.0
 31
0.0
 73
2
  0
TEXT
  5
172
  8
AC_Mitigation_Check
 10
817215.8
 20
826111.8
 30
0.0
 40
0.25
  1
  
 72
1
 11
817215.8
 21
826111.8
 31
0.0
 73
2
  0
TEXT
  5
173
  8
AC_Mitigation_Check
 10
817215.9
 20
826114.3
 30
0.0
 40
0.25
  1
  
 72
1
 11
817215.9
 21
826114.3
 31
0.0
 73
2
  0
TEXT
  5
174
  8
AC_Mitigation_Check
 10
817215.9
 20
826116.0
 30
0.0
 40
0.25
  1
  
 72
1
 11
817215.9
 21
826116.0
 31
0.0
 73
2
  0
TEXT
  5
175
  8
AC_Mitigation_Check
 10
817215.9
 20
826117.2
 30
0.0
 40
0.25
  1
  
 72
1
 11
817215.9
 21
826117.2
 31
0.0
 73
2
  0
TEXT
  5
176
  8
AC_Mitigation_Check
 10
817214.9
 20
826118.6
 30
0.0
 40
0.25
  1
  
 72
1
 11
817214.9
 21
826118.6
 31
0.0
 73
2
  0
TEXT
  5
177
  8
AC_Mitigation_Check
 10
817214.9
 20
826119.9
 30
0.0
 40
0.25
  1
  
 72
1
 11
817214.9
 21
826119.9
 31
0.0
 73
2
  0
TEXT
  5
178
  8
AC_Mitigation_Check
 10
817214.9
 20
826121.5
 30
0.0
 40
0.25
  1
  
 72
1
 11
817214.9
 21
826121.5
 31
0.0
 73
2
  0
TEXT
  5
179
  8
AC_Mitigation_Check
 10
817214.7
 20
826124.1
 30
0.0
 40
0.25
  1
  
 72
1
 11
817214.7
 21
826124.1
 31
0.0
 73
2
  0
TEXT
  5
17A
  8
AC_Mitigation_Check
 10
817214.8
 20
826125.9
 30
0.0
 40
0.25
  1
  
 72
1
 11
817214.8
 21
826125.9
 31
0.0
 73
2
  0
TEXT
  5
17B
  8
AC_Mitigation_Check
 10
817214.8
 20
826127.1
 30
0.0
 40
0.25
  1
  
 72
1
 11
817214.8
 21
826127.1
 31
0.0
 73
2
  0
TEXT
  5
17C
  8
AC_Mitigation_Check
 10
817212.0
 20
826099.3
 30
0.0
 40
0.25
  1
  
 72
1
 11
817212.0
 21
826099.3
 31
0.0
 73
2
  0
TEXT
  5
17D
  8
AC_Mitigation_Check
 10
817211.2
 20
826098.3
 30
0.0
 40
0.25
  1
  
 72
1
 11
817211.2
 21
826098.3
 31
0.0
 73
2
  0
TEXT
  5
17E
  8
AC_Mitigation_Check
 10
817210.1
 20
826096.7
 30
0.0
 40
0.25
  1
  
 72
1
 11
817210.1
 21
826096.7
 31
0.0
 73
2
  0
TEXT
  5
17F
  8
AC_Mitigation_Check
 10
817206.4
 20
826090.0
 30
0.0
 40
0.25
  1
  
 72
1
 11
817206.4
 21
826090.0
 31
0.0
 73
2
  0
TEXT
  5
180
  8
AC_Mitigation_Check
 10
817211.0
 20
826087.5
 30
0.0
 40
0.25
  1
  
 72
1
 11
817211.0
 21
826087.5
 31
0.0
 73
2
  0
TEXT
  5
181
  8
AC_Mitigation_Check
 10
817225.0
 20
826087.5
 30
0.0
 40
0.25
  1
  
 72
1
 11
817225.0
 21
826087.5
 31
0.0
 73
2
  0
TEXT
  5
182
  8
AC_Mitigation_Check
 10
817227.7
 20
826091.2
 30
0.0
 40
0.25
  1
  
 72
1
 11
817227.7
 21
826091.2
 31
0.0
 73
2
  0
TEXT
  5
183
  8
AC_Mitigation_Check
 10
817229.1
 20
826093.1
 30
0.0
 40
0.25
  1
  
 72
1
 11
817229.1
 21
826093.1
 31
0.0
 73
2
  0
TEXT
  5
184
  8
AC_Mitigation_Check
 10
817232.1
 20
826093.2
 30
0.0
 40
0.25
  1
 AB(BT) 19/F
 72
1
 11
817232.1
 21
826093.2
 31
0.0
 73
2
  0
TEXT
  5
185
  8
AC_Mitigation_Check
 10
817232.9
 20
826094.2
 30
0.0
 40
0.25
  1
 F.G. 19/F
 72
1
 11
817232.9
 21
826094.2
 31
0.0
 73
2
  0
TEXT
  5
186
  8
AC_Mitigation_Check
 10
817234.4
 20
826096.1
 30
0.0
 40
0.25
  1
 F.G. 19/F
 72
1
 11
817234.4
 21
826096.1
 31
0.0
 73
2
  0
TEXT
  5
187
  8
AC_Mitigation_Check
 10
817235.1
 20
826099.2
 30
0.0
 40
0.25
  1
 F.G. 19/F
 72
1
 11
817235.1
 21
826099.2
 31
0.0
 73
2
  0
TEXT
  5
188
  8
AC_Mitigation_Check
 10
817233.4
 20
826100.1
 30
0.0
 40
0.25
  1
 F.G. 19/F
 72
1
 11
817233.4
 21
826100.1
 31
0.0
 73
2
  0
TEXT
  5
189
  8
AC_Mitigation_Check
 10
817232.2
 20
826100.9
 30
0.0
 40
0.25
  1
  
 72
1
 11
817232.2
 21
826100.9
 31
0.0
 73
2
  0
TEXT
  5
18A
  8
AC_Mitigation_Check
 10
817205.3
 20
826166.3
 30
0.0
 40
0.25
  1
 F.G. 6/F - 18/F
 72
1
 11
817205.3
 21
826166.3
 31
0.0
 73
2
  0
TEXT
  5
18B
  8
AC_Mitigation_Check
 10
817204.4
 20
826162.4
 30
0.0
 40
0.25
  1
 AW(BT) 10/F - 18/F
 72
1
 11
817204.4
 21
826162.4
 31
0.0
 73
2
  0
TEXT
  5
18C
  8
AC_Mitigation_Check
 10
817205.9
 20
826160.6
 30
0.0
 40
0.25
  1
  
 72
1
 11
817205.9
 21
826160.6
 31
0.0
 73
2
  0
TEXT
  5
18D
  8
AC_Mitigation_Check
 10
817207.0
 20
826159.3
 30
0.0
 40
0.25
  1
  
 72
1
 11
817207.0
 21
826159.3
 31
0.0
 73
2
  0
TEXT
  5
18E
  8
AC_Mitigation_Check
 10
817207.9
 20
826158.4
 30
0.0
 40
0.25
  1
  
 72
1
 11
817207.9
 21
826158.4
 31
0.0
 73
2
  0
TEXT
  5
18F
  8
AC_Mitigation_Check
 10
817207.8
 20
826156.2
 30
0.0
 40
0.25
  1
  
 72
1
 11
817207.8
 21
826156.2
 31
0.0
 73
2
  0
TEXT
  5
190
  8
AC_Mitigation_Check
 10
817208.5
 20
826155.4
 30
0.0
 40
0.25
  1
  
 72
1
 11
817208.5
 21
826155.4
 31
0.0
 73
2
  0
TEXT
  5
191
  8
AC_Mitigation_Check
 10
817209.9
 20
826154.1
 30
0.0
 40
0.25
  1
  
 72
1
 11
817209.9
 21
826154.1
 31
0.0
 73
2
  0
TEXT
  5
192
  8
AC_Mitigation_Check
 10
817212.5
 20
826154.0
 30
0.0
 40
0.25
  1
  
 72
1
 11
817212.5
 21
826154.0
 31
0.0
 73
2
  0
TEXT
  5
193
  8
AC_Mitigation_Check
 10
817213.4
 20
826153.1
 30
0.0
 40
0.25
  1
  
 72
1
 11
817213.4
 21
826153.1
 31
0.0
 73
2
  0
TEXT
  5
194
  8
AC_Mitigation_Check
 10
817214.6
 20
826152.1
 30
0.0
 40
0.25
  1
  
 72
1
 11
817214.6
 21
826152.1
 31
0.0
 73
2
  0
TEXT
  5
195
  8
AC_Mitigation_Check
 10
817216.5
 20
826150.6
 30
0.0
 40
0.25
  1
  
 72
1
 11
817216.5
 21
826150.6
 31
0.0
 73
2
  0
TEXT
  5
196
  8
AC_Mitigation_Check
 10
817220.5
 20
826151.6
 30
0.0
 40
0.25
  1
  
 72
1
 11
817220.5
 21
826151.6
 31
0.0
 73
2
  0
TEXT
  5
197
  8
AC_Mitigation_Check
 10
817222.8
 20
826154.1
 30
0.0
 40
0.25
  1
  
 72
1
 11
817222.8
 21
826154.1
 31
0.0
 73
2
  0
TEXT
  5
198
  8
AC_Mitigation_Check
 10
817223.6
 20
826154.9
 30
0.0
 40
0.25
  1
  
 72
1
 11
817223.6
 21
826154.9
 31
0.0
 73
2
  0
TEXT
  5
199
  8
AC_Mitigation_Check
 10
817224.9
 20
826156.3
 30
0.0
 40
0.25
  1
  
 72
1
 11
817224.9
 21
826156.3
 31
0.0
 73
2
  0
TEXT
  5
19A
  8
AC_Mitigation_Check
 10
817226.3
 20
826157.5
 30
0.0
 40
0.25
  1
  
 72
1
 11
817226.3
 21
826157.5
 31
0.0
 73
2
  0
TEXT
  5
19B
  8
AC_Mitigation_Check
 10
817227.2
 20
826158.5
 30
0.0
 40
0.25
  1
  
 72
1
 11
817227.2
 21
826158.5
 31
0.0
 73
2
  0
TEXT
  5
19C
  8
AC_Mitigation_Check
 10
817228.4
 20
826159.8
 30
0.0
 40
0.25
  1
  
 72
1
 11
817228.4
 21
826159.8
 31
0.0
 73
2
  0
TEXT
  5
19D
  8
AC_Mitigation_Check
 10
817230.1
 20
826161.7
 30
0.0
 40
0.25
  1
 AW(BT) 16/F - 19/F
 72
1
 11
817230.1
 21
826161.7
 31
0.0
 73
2
  0
TEXT
  5
19E
  8
AC_Mitigation_Check
 10
817231.3
 20
826163.0
 30
0.0
 40
0.25
  1
 F.G. 12/F - 19/F
 72
1
 11
817231.3
 21
826163.0
 31
0.0
 73
2
  0
TEXT
  5
19F
  8
AC_Mitigation_Check
 10
817232.0
 20
826163.9
 30
0.0
 40
0.25
  1
 AB(BT) 11/F - 19/F
 72
1
 11
817232.0
 21
826163.9
 31
0.0
 73
2
  0
TEXT
  5
1A0
  8
AC_Mitigation_Check
 10
817231.8
 20
826166.4
 30
0.0
 40
0.25
  1
  
 72
1
 11
817231.8
 21
826166.4
 31
0.0
 73
2
  0
TEXT
  5
1A1
  8
AC_Mitigation_Check
 10
817233.0
 20
826167.4
 30
0.0
 40
0.25
  1
  
 72
1
 11
817233.0
 21
826167.4
 31
0.0
 73
2
  0
TEXT
  5
1A2
  8
AC_Mitigation_Check
 10
817234.0
 20
826168.6
 30
0.0
 40
0.25
  1
  
 72
1
 11
817234.0
 21
826168.6
 31
0.0
 73
2
  0
TEXT
  5
1A3
  8
AC_Mitigation_Check
 10
817234.9
 20
826169.3
 30
0.0
 40
0.25
  1
 F.G. 12/F - 19/F
 72
1
 11
817234.9
 21
826169.3
 31
0.0
 73
2
  0
TEXT
  5
1A4
  8
AC_Mitigation_Check
 10
817236.0
 20
826170.6
 30
0.0
 40
0.25
  1
 AW(BT) 10/F - 19/F
 72
1
 11
817236.0
 21
826170.6
 31
0.0
 73
2
  0
TEXT
  5
1A5
  8
AC_Mitigation_Check
 10
817237.7
 20
826172.2
 30
0.0
 40
0.25
  1
 AW(BT) 6/F - 19/F
 72
1
 11
817237.7
 21
826172.2
 31
0.0
 73
2
  0
TEXT
  5
1A6
  8
AC_Mitigation_Check
 10
817238.3
 20
826174.8
 30
0.0
 40
0.25
  1
 F.G. 3/F - 19/F
 72
1
 11
817238.3
 21
826174.8
 31
0.0
 73
2
  0
TEXT
  5
1A7
  8
AC_Mitigation_Check
 10
817236.4
 20
826176.4
 30
0.0
 40
0.25
  1
 F.G. 5/F - 19/F
 72
1
 11
817236.4
 21
826176.4
 31
0.0
 73
2
  0
TEXT
  5
1A8
  8
AC_Mitigation_Check
 10
817232.8
 20
826175.9
 30
0.0
 40
0.25
  1
 F.G. 6/F - 19/F
 72
1
 11
817232.8
 21
826175.9
 31
0.0
 73
2
  0
TEXT
  5
1A9
  8
AC_Mitigation_Check
 10
817228.2
 20
826178.8
 30
0.0
 40
0.25
  1
 F.G. 6/F - 19/F
 72
1
 11
817228.2
 21
826178.8
 31
0.0
 73
2
  0
TEXT
  5
1AA
  8
AC_Mitigation_Check
 10
817226.8
 20
826177.2
 30
0.0
 40
0.25
  1
 AB(BT) 6/F - 19/F
 72
1
 11
817226.8
 21
826177.2
 31
0.0
 73
2
  0
TEXT
  5
1AB
  8
AC_Mitigation_Check
 10
817223.0
 20
826177.3
 30
0.0
 40
0.25
  1
 F.G. 6/F - 19/F
 72
1
 11
817223.0
 21
826177.3
 31
0.0
 73
2
  0
TEXT
  5
1AC
  8
AC_Mitigation_Check
 10
817221.4
 20
826175.7
 30
0.0
 40
0.25
  1
 AB(BT) 6/F - 19/F
 72
1
 11
817221.4
 21
826175.7
 31
0.0
 73
2
  0
TEXT
  5
1AD
  8
AC_Mitigation_Check
 10
817220.5
 20
826174.6
 30
0.0
 40
0.25
  1
 AB(BT) 6/F - 19/F
 72
1
 11
817220.5
 21
826174.6
 31
0.0
 73
2
  0
TEXT
  5
1AE
  8
AC_Mitigation_Check
 10
817219.8
 20
826174.0
 30
0.0
 40
0.25
  1
 F.G. 6/F - 19/F
 72
1
 11
817219.8
 21
826174.0
 31
0.0
 73
2
  0
TEXT
  5
1AF
  8
AC_Mitigation_Check
 10
817218.5
 20
826172.7
 30
0.0
 40
0.25
  1
 F.G. 6/F - 19/F
 72
1
 11
817218.5
 21
826172.7
 31
0.0
 73
2
  0
TEXT
  5
1B0
  8
AC_Mitigation_Check
 10
817217.3
 20
826171.4
 30
0.0
 40
0.25
  1
 AB(BT) 6/F - 19/F
 72
1
 11
817217.3
 21
826171.4
 31
0.0
 73
2
  0
TEXT
  5
1B1
  8
AC_Mitigation_Check
 10
817212.1
 20
826170.3
 30
0.0
 40
0.25
  1
 AW(BT) 6/F - 19/F
 72
1
 11
817212.1
 21
826170.3
 31
0.0
 73
2
  0
TEXT
  5
1B2
  8
AC_Mitigation_Check
 10
817211.2
 20
826169.4
 30
0.0
 40
0.25
  1
 AW(BT) 6/F - 19/F
 72
1
 11
817211.2
 21
826169.4
 31
0.0
 73
2
  0
TEXT
  5
1B3
  8
AC_Mitigation_Check
 10
817210.6
 20
826167.9
 30
0.0
 40
0.25
  1
 F.G. 7/F - 19/F
 72
1
 11
817210.6
 21
826167.9
 31
0.0
 73
2
  0
TEXT
  5
1B4
  8
AC_Mitigation_Check
 10
817209.5
 20
826167.1
 30
0.0
 40
0.25
  1
 AB(BT) 6/F - 19/F
 72
1
 11
817209.5
 21
826167.1
 31
0.0
 73
2
  0
TEXT
  5
1B5
  8
AC_Mitigation_Check
 10
817205.3
 20
826166.3
 30
0.0
 40
0.25
  1
 F.G. 19/F
 72
1
 11
817205.3
 21
826166.3
 31
0.0
 73
2
  0
TEXT
  5
1B6
  8
AC_Mitigation_Check
 10
817204.8
 20
826162.0
 30
0.0
 40
0.25
  1
  
 72
1
 11
817204.8
 21
826162.0
 31
0.0
 73
2
  0
TEXT
  5
1B7
  8
AC_Mitigation_Check
 10
817206.5
 20
826159.7
 30
0.0
 40
0.25
  1
  
 72
1
 11
817206.5
 21
826159.7
 31
0.0
 73
2
  0
TEXT
  5
1B8
  8
AC_Mitigation_Check
 10
817208.2
 20
826158.1
 30
0.0
 40
0.25
  1
  
 72
1
 11
817208.2
 21
826158.1
 31
0.0
 73
2
  0
TEXT
  5
1B9
  8
AC_Mitigation_Check
 10
817210.4
 20
826155.9
 30
0.0
 40
0.25
  1
  
 72
1
 11
817210.4
 21
826155.9
 31
0.0
 73
2
  0
TEXT
  5
1BA
  8
AC_Mitigation_Check
 10
817212.8
 20
826153.5
 30
0.0
 40
0.25
  1
  
 72
1
 11
817212.8
 21
826153.5
 31
0.0
 73
2
  0
TEXT
  5
1BB
  8
AC_Mitigation_Check
 10
817215.9
 20
826153.5
 30
0.0
 40
0.25
  1
  
 72
1
 11
817215.9
 21
826153.5
 31
0.0
 73
2
  0
TEXT
  5
1BC
  8
AC_Mitigation_Check
 10
817160.5
 20
826167.2
 30
0.0
 40
0.25
  1
  
 72
1
 11
817160.5
 21
826167.2
 31
0.0
 73
2
  0
TEXT
  5
1BD
  8
AC_Mitigation_Check
 10
817159.2
 20
826167.2
 30
0.0
 40
0.25
  1
  
 72
1
 11
817159.2
 21
826167.2
 31
0.0
 73
2
  0
TEXT
  5
1BE
  8
AC_Mitigation_Check
 10
817157.5
 20
826166.8
 30
0.0
 40
0.25
  1
  
 72
1
 11
817157.5
 21
826166.8
 31
0.0
 73
2
  0
TEXT
  5
1BF
  8
AC_Mitigation_Check
 10
817155.0
 20
826166.3
 30
0.0
 40
0.25
  1
  
 72
1
 11
817155.0
 21
826166.3
 31
0.0
 73
2
  0
TEXT
  5
1C0
  8
AC_Mitigation_Check
 10
817153.3
 20
826165.9
 30
0.0
 40
0.25
  1
  
 72
1
 11
817153.3
 21
826165.9
 31
0.0
 73
2
  0
TEXT
  5
1C1
  8
AC_Mitigation_Check
 10
817152.2
 20
826165.7
 30
0.0
 40
0.25
  1
  
 72
1
 11
817152.2
 21
826165.7
 31
0.0
 73
2
  0
TEXT
  5
1C2
  8
AC_Mitigation_Check
 10
817150.9
 20
826164.7
 30
0.0
 40
0.25
  1
  
 72
1
 11
817150.9
 21
826164.7
 31
0.0
 73
2
  0
TEXT
  5
1C3
  8
AC_Mitigation_Check
 10
817149.8
 20
826164.4
 30
0.0
 40
0.25
  1
  
 72
1
 11
817149.8
 21
826164.4
 31
0.0
 73
2
  0
TEXT
  5
1C4
  8
AC_Mitigation_Check
 10
817148.1
 20
826164.0
 30
0.0
 40
0.25
  1
  
 72
1
 11
817148.1
 21
826164.0
 31
0.0
 73
2
  0
TEXT
  5
1C5
  8
AC_Mitigation_Check
 10
817145.7
 20
826163.3
 30
0.0
 40
0.25
  1
  
 72
1
 11
817145.7
 21
826163.3
 31
0.0
 73
2
  0
TEXT
  5
1C6
  8
AC_Mitigation_Check
 10
817143.7
 20
826163.1
 30
0.0
 40
0.25
  1
  
 72
1
 11
817143.7
 21
826163.1
 31
0.0
 73
2
  0
TEXT
  5
1C7
  8
AC_Mitigation_Check
 10
817142.6
 20
826162.7
 30
0.0
 40
0.25
  1
  
 72
1
 11
817142.6
 21
826162.7
 31
0.0
 73
2
  0
TEXT
  5
1C8
  8
AC_Mitigation_Check
 10
817141.2
 20
826163.2
 30
0.0
 40
0.25
  1
  
 72
1
 11
817141.2
 21
826163.2
 31
0.0
 73
2
  0
TEXT
  5
1C9
  8
AC_Mitigation_Check
 10
817140.1
 20
826162.9
 30
0.0
 40
0.25
  1
  
 72
1
 11
817140.1
 21
826162.9
 31
0.0
 73
2
  0
TEXT
  5
1CA
  8
AC_Mitigation_Check
 10
817138.3
 20
826162.4
 30
0.0
 40
0.25
  1
  
 72
1
 11
817138.3
 21
826162.4
 31
0.0
 73
2
  0
TEXT
  5
1CB
  8
AC_Mitigation_Check
 10
817134.8
 20
826175.2
 30
0.0
 40
0.25
  1
 AW(BT)re 5/F - 18/F
 72
1
 11
817134.8
 21
826175.2
 31
0.0
 73
2
  0
TEXT
  5
1CC
  8
AC_Mitigation_Check
 10
817136.6
 20
826177.8
 30
0.0
 40
0.25
  1
 F.G. 3/F - 18/F
 72
1
 11
817136.6
 21
826177.8
 31
0.0
 73
2
  0
TEXT
  5
1CD
  8
AC_Mitigation_Check
 10
817139.0
 20
826178.3
 30
0.0
 40
0.25
  1
 M.B. 3/F - 18/F
 72
1
 11
817139.0
 21
826178.3
 31
0.0
 73
2
  0
TEXT
  5
1CE
  8
AC_Mitigation_Check
 10
817141.8
 20
826176.7
 30
0.0
 40
0.25
  1
 AW(BT)re 6/F - 18/F
 72
1
 11
817141.8
 21
826176.7
 31
0.0
 73
2
  0
TEXT
  5
1CF
  8
AC_Mitigation_Check
 10
817141.5
 20
826176.6
 30
0.0
 40
0.25
  1
 AW(BT)re 6/F - 18/F
 72
1
 11
817141.5
 21
826176.6
 31
0.0
 73
2
  0
TEXT
  5
1D0
  8
AC_Mitigation_Check
 10
817143.4
 20
826179.1
 30
0.0
 40
0.25
  1
 M.B. 3/F - 18/F
 72
1
 11
817143.4
 21
826179.1
 31
0.0
 73
2
  0
TEXT
  5
1D1
  8
AC_Mitigation_Check
 10
817145.7
 20
826179.7
 30
0.0
 40
0.25
  1
 F.G. 3/F - 18/F
 72
1
 11
817145.7
 21
826179.7
 31
0.0
 73
2
  0
TEXT
  5
1D2
  8
AC_Mitigation_Check
 10
817148.4
 20
826178.1
 30
0.0
 40
0.25
  1
 AW(BT)re 5/F - 18/F
 72
1
 11
817148.4
 21
826178.1
 31
0.0
 73
2
  0
TEXT
  5
1D3
  8
AC_Mitigation_Check
 10
817148.0
 20
826178.0
 30
0.0
 40
0.25
  1
 AW(BT)re 6/F - 18/F
 72
1
 11
817148.0
 21
826178.0
 31
0.0
 73
2
  0
TEXT
  5
1D4
  8
AC_Mitigation_Check
 10
817150.0
 20
826180.7
 30
0.0
 40
0.25
  1
 F.G. 3/F - 18/F
 72
1
 11
817150.0
 21
826180.7
 31
0.0
 73
2
  0
TEXT
  5
1D5
  8
AC_Mitigation_Check
 10
817152.3
 20
826181.2
 30
0.0
 40
0.25
  1
 M.B. 3/F - 18/F
 72
1
 11
817152.3
 21
826181.2
 31
0.0
 73
2
  0
TEXT
  5
1D6
  8
AC_Mitigation_Check
 10
817155.1
 20
826179.6
 30
0.0
 40
0.25
  1
 AW(BT)re 6/F - 18/F
 72
1
 11
817155.1
 21
826179.6
 31
0.0
 73
2
  0
TEXT
  5
1D7
  8
AC_Mitigation_Check
 10
817154.8
 20
826179.6
 30
0.0
 40
0.25
  1
 AW(BT)re 6/F - 18/F
 72
1
 11
817154.8
 21
826179.6
 31
0.0
 73
2
  0
TEXT
  5
1D8
  8
AC_Mitigation_Check
 10
817156.5
 20
826182.1
 30
0.0
 40
0.25
  1
 M.B. 3/F - 18/F
 72
1
 11
817156.5
 21
826182.1
 31
0.0
 73
2
  0
TEXT
  5
1D9
  8
AC_Mitigation_Check
 10
817158.8
 20
826182.6
 30
0.0
 40
0.25
  1
 F.G. 3/F - 18/F
 72
1
 11
817158.8
 21
826182.6
 31
0.0
 73
2
  0
TEXT
  5
1DA
  8
AC_Mitigation_Check
 10
817161.7
 20
826181.0
 30
0.0
 40
0.25
  1
 AW(BT)re 6/F - 18/F
 72
1
 11
817161.7
 21
826181.0
 31
0.0
 73
2
  0
TEXT
  5
1DB
  8
AC_Mitigation_Check
 10
817161.3
 20
826181.0
 30
0.0
 40
0.25
  1
 AW(BT)re 6/F - 18/F
 72
1
 11
817161.3
 21
826181.0
 31
0.0
 73
2
  0
TEXT
  5
1DC
  8
AC_Mitigation_Check
 10
817163.1
 20
826183.4
 30
0.0
 40
0.25
  1
 F.G. 3/F - 18/F
 72
1
 11
817163.1
 21
826183.4
 31
0.0
 73
2
  0
TEXT
  5
1DD
  8
AC_Mitigation_Check
 10
817165.5
 20
826183.9
 30
0.0
 40
0.25
  1
 M.B. 3/F - 18/F
 72
1
 11
817165.5
 21
826183.9
 31
0.0
 73
2
  0
TEXT
  5
1DE
  8
AC_Mitigation_Check
 10
817168.2
 20
826182.5
 30
0.0
 40
0.25
  1
 AW(BT)re 6/F - 18/F
 72
1
 11
817168.2
 21
826182.5
 31
0.0
 73
2
  0
TEXT
  5
1DF
  8
AC_Mitigation_Check
 10
817167.9
 20
826182.4
 30
0.0
 40
0.25
  1
 AW(BT)re 6/F - 18/F
 72
1
 11
817167.9
 21
826182.4
 31
0.0
 73
2
  0
TEXT
  5
1E0
  8
AC_Mitigation_Check
 10
817169.8
 20
826185.1
 30
0.0
 40
0.25
  1
 M.B. 3/F - 18/F
 72
1
 11
817169.8
 21
826185.1
 31
0.0
 73
2
  0
TEXT
  5
1E1
  8
AC_Mitigation_Check
 10
817172.1
 20
826185.6
 30
0.0
 40
0.25
  1
 F.G. 3/F - 18/F
 72
1
 11
817172.1
 21
826185.6
 31
0.0
 73
2
  0
TEXT
  5
1E2
  8
AC_Mitigation_Check
 10
817174.9
 20
826183.9
 30
0.0
 40
0.25
  1
 AW(BT)re 5/F - 18/F
 72
1
 11
817174.9
 21
826183.9
 31
0.0
 73
2
  0
TEXT
  5
1E3
  8
AC_Mitigation_Check
 10
817174.6
 20
826183.9
 30
0.0
 40
0.25
  1
 AW(BT)re 5/F - 18/F
 72
1
 11
817174.6
 21
826183.9
 31
0.0
 73
2
  0
TEXT
  5
1E4
  8
AC_Mitigation_Check
 10
817176.3
 20
826186.5
 30
0.0
 40
0.25
  1
 F.G. 3/F - 18/F
 72
1
 11
817176.3
 21
826186.5
 31
0.0
 73
2
  0
TEXT
  5
1E5
  8
AC_Mitigation_Check
 10
817178.7
 20
826187.0
 30
0.0
 40
0.25
  1
 M.B. 3/F - 18/F
 72
1
 11
817178.7
 21
826187.0
 31
0.0
 73
2
  0
TEXT
  5
1E6
  8
AC_Mitigation_Check
 10
817181.4
 20
826185.5
 30
0.0
 40
0.25
  1
 AW(BT)re 6/F - 18/F
 72
1
 11
817181.4
 21
826185.5
 31
0.0
 73
2
  0
TEXT
  5
1E7
  8
AC_Mitigation_Check
 10
817181.3
 20
826185.4
 30
0.0
 40
0.25
  1
 AW(BT)re 6/F - 18/F
 72
1
 11
817181.3
 21
826185.4
 31
0.0
 73
2
  0
TEXT
  5
1E8
  8
AC_Mitigation_Check
 10
817183.0
 20
826187.9
 30
0.0
 40
0.25
  1
 M.B. 3/F - 18/F
 72
1
 11
817183.0
 21
826187.9
 31
0.0
 73
2
  0
TEXT
  5
1E9
  8
AC_Mitigation_Check
 10
817185.3
 20
826188.4
 30
0.0
 40
0.25
  1
 F.G. 3/F - 18/F
 72
1
 11
817185.3
 21
826188.4
 31
0.0
 73
2
  0
TEXT
  5
1EA
  8
AC_Mitigation_Check
 10
817188.1
 20
826186.9
 30
0.0
 40
0.25
  1
 AW(BT)re 3/F - 18/F
 72
1
 11
817188.1
 21
826186.9
 31
0.0
 73
2
  0
TEXT
  5
1EB
  8
AC_Mitigation_Check
 10
817188.7
 20
826173.6
 30
0.0
 40
0.25
  1
 AW(BT) 11/F - 18/F
 72
1
 11
817188.7
 21
826173.6
 31
0.0
 73
2
  0
TEXT
  5
1EC
  8
AC_Mitigation_Check
 10
817186.9
 20
826173.3
 30
0.0
 40
0.25
  1
  
 72
1
 11
817186.9
 21
826173.3
 31
0.0
 73
2
  0
TEXT
  5
1ED
  8
AC_Mitigation_Check
 10
817185.7
 20
826173.1
 30
0.0
 40
0.25
  1
  
 72
1
 11
817185.7
 21
826173.1
 31
0.0
 73
2
  0
TEXT
  5
1EE
  8
AC_Mitigation_Check
 10
817184.3
 20
826172.7
 30
0.0
 40
0.25
  1
  
 72
1
 11
817184.3
 21
826172.7
 31
0.0
 73
2
  0
TEXT
  5
1EF
  8
AC_Mitigation_Check
 10
817183.2
 20
826172.5
 30
0.0
 40
0.25
  1
  
 72
1
 11
817183.2
 21
826172.5
 31
0.0
 73
2
  0
TEXT
  5
1F0
  8
AC_Mitigation_Check
 10
817181.5
 20
826172.1
 30
0.0
 40
0.25
  1
  
 72
1
 11
817181.5
 21
826172.1
 31
0.0
 73
2
  0
TEXT
  5
1F1
  8
AC_Mitigation_Check
 10
817179.7
 20
826171.0
 30
0.0
 40
0.25
  1
  
 72
1
 11
817179.7
 21
826171.0
 31
0.0
 73
2
  0
TEXT
  5
1F2
  8
AC_Mitigation_Check
 10
817178.7
 20
826170.8
 30
0.0
 40
0.25
  1
  
 72
1
 11
817178.7
 21
826170.8
 31
0.0
 73
2
  0
TEXT
  5
1F3
  8
AC_Mitigation_Check
 10
817176.9
 20
826170.3
 30
0.0
 40
0.25
  1
  
 72
1
 11
817176.9
 21
826170.3
 31
0.0
 73
2
  0
TEXT
  5
1F4
  8
AC_Mitigation_Check
 10
817174.4
 20
826169.9
 30
0.0
 40
0.25
  1
  
 72
1
 11
817174.4
 21
826169.9
 31
0.0
 73
2
  0
TEXT
  5
1F5
  8
AC_Mitigation_Check
 10
817172.6
 20
826169.4
 30
0.0
 40
0.25
  1
  
 72
1
 11
817172.6
 21
826169.4
 31
0.0
 73
2
  0
TEXT
  5
1F6
  8
AC_Mitigation_Check
 10
817171.6
 20
826169.1
 30
0.0
 40
0.25
  1
  
 72
1
 11
817171.6
 21
826169.1
 31
0.0
 73
2
  0
TEXT
  5
1F7
  8
AC_Mitigation_Check
 10
817170.1
 20
826168.8
 30
0.0
 40
0.25
  1
  
 72
1
 11
817170.1
 21
826168.8
 31
0.0
 73
2
  0
TEXT
  5
1F8
  8
AC_Mitigation_Check
 10
817169.0
 20
826168.5
 30
0.0
 40
0.25
  1
  
 72
1
 11
817169.0
 21
826168.5
 31
0.0
 73
2
  0
TEXT
  5
1F9
  8
AC_Mitigation_Check
 10
817167.3
 20
826168.2
 30
0.0
 40
0.25
  1
  
 72
1
 11
817167.3
 21
826168.2
 31
0.0
 73
2
  0
TEXT
  5
1FA
  8
AC_Mitigation_Check
 10
817164.9
 20
826167.6
 30
0.0
 40
0.25
  1
  
 72
1
 11
817164.9
 21
826167.6
 31
0.0
 73
2
  0
TEXT
  5
1FB
  8
AC_Mitigation_Check
 10
817163.1
 20
826167.3
 30
0.0
 40
0.25
  1
  
 72
1
 11
817163.1
 21
826167.3
 31
0.0
 73
2
  0
TEXT
  5
1FC
  8
AC_Mitigation_Check
 10
817161.9
 20
826166.9
 30
0.0
 40
0.25
  1
  
 72
1
 11
817161.9
 21
826166.9
 31
0.0
 73
2
  0
TEXT
  5
1FD
  8
AC_Mitigation_Check
 10
817107.8
 20
826136.9
 30
0.0
 40
0.25
  1
  
 72
1
 11
817107.8
 21
826136.9
 31
0.0
 73
2
  0
TEXT
  5
1FE
  8
AC_Mitigation_Check
 10
817109.8
 20
826135.8
 30
0.0
 40
0.25
  1
  
 72
1
 11
817109.8
 21
826135.8
 31
0.0
 73
2
  0
TEXT
  5
1FF
  8
AC_Mitigation_Check
 10
817113.8
 20
826136.2
 30
0.0
 40
0.25
  1
  
 72
1
 11
817113.8
 21
826136.2
 31
0.0
 73
2
  0
TEXT
  5
200
  8
AC_Mitigation_Check
 10
817114.6
 20
826138.0
 30
0.0
 40
0.25
  1
  
 72
1
 11
817114.6
 21
826138.0
 31
0.0
 73
2
  0
TEXT
  5
201
  8
AC_Mitigation_Check
 10
817115.2
 20
826139.1
 30
0.0
 40
0.25
  1
  
 72
1
 11
817115.2
 21
826139.1
 31
0.0
 73
2
  0
TEXT
  5
202
  8
AC_Mitigation_Check
 10
817099.5
 20
826138.2
 30
0.0
 40
0.25
  1
 F.G. 7/F - 18/F
 72
1
 11
817099.5
 21
826138.2
 31
0.0
 73
2
  0
TEXT
  5
203
  8
AC_Mitigation_Check
 10
817099.9
 20
826137.1
 30
0.0
 40
0.25
  1
 AB(BT) 7/F - 18/F
 72
1
 11
817099.9
 21
826137.1
 31
0.0
 73
2
  0
TEXT
  5
204
  8
AC_Mitigation_Check
 10
817100.5
 20
826134.9
 30
0.0
 40
0.25
  1
 AW(BT) 7/F - 18/F
 72
1
 11
817100.5
 21
826134.9
 31
0.0
 73
2
  0
TEXT
  5
205
  8
AC_Mitigation_Check
 10
817102.5
 20
826133.0
 30
0.0
 40
0.25
  1
 F.G. 9/F - 18/F
 72
1
 11
817102.5
 21
826133.0
 31
0.0
 73
2
  0
TEXT
  5
206
  8
AC_Mitigation_Check
 10
817098.6
 20
826141.1
 30
0.0
 40
0.25
  1
 AB(BT) 7/F - 18/F
 72
1
 11
817098.6
 21
826141.1
 31
0.0
 73
2
  0
TEXT
  5
207
  8
AC_Mitigation_Check
 10
817099.2
 20
826139.6
 30
0.0
 40
0.25
  1
 F.G. 7/F - 18/F
 72
1
 11
817099.2
 21
826139.6
 31
0.0
 73
2
  0
TEXT
  5
208
  8
AC_Mitigation_Check
 10
817097.7
 20
826144.3
 30
0.0
 40
0.25
  1
 AW(BT) 8/F - 18/F
 72
1
 11
817097.7
 21
826144.3
 31
0.0
 73
2
  0
TEXT
  5
209
  8
AC_Mitigation_Check
 10
817098.1
 20
826143.1
 30
0.0
 40
0.25
  1
 F.G. 8/F - 18/F
 72
1
 11
817098.1
 21
826143.1
 31
0.0
 73
2
  0
TEXT
  5
20A
  8
AC_Mitigation_Check
 10
817098.0
 20
826142.4
 30
0.0
 40
0.25
  1
 AB(BT) 7/F - 18/F
 72
1
 11
817098.0
 21
826142.4
 31
0.0
 73
2
  0
TEXT
  5
20B
  8
AC_Mitigation_Check
 10
817103.8
 20
826152.1
 30
0.0
 40
0.25
  1
 F.G. 6/F - 18/F
 72
1
 11
817103.8
 21
826152.1
 31
0.0
 73
2
  0
TEXT
  5
20C
  8
AC_Mitigation_Check
 10
817103.7
 20
826151.9
 30
0.0
 40
0.25
  1
 AB(BT) 6/F - 18/F
 72
1
 11
817103.7
 21
826151.9
 31
0.0
 73
2
  0
TEXT
  5
20D
  8
AC_Mitigation_Check
 10
817105.8
 20
826156.2
 30
0.0
 40
0.25
  1
 AB(BT) 6/F - 18/F
 72
1
 11
817105.8
 21
826156.2
 31
0.0
 73
2
  0
TEXT
  5
20E
  8
AC_Mitigation_Check
 10
817105.5
 20
826155.7
 30
0.0
 40
0.25
  1
 F.G. 6/F - 18/F
 72
1
 11
817105.5
 21
826155.7
 31
0.0
 73
2
  0
TEXT
  5
20F
  8
AC_Mitigation_Check
 10
817105.1
 20
826154.0
 30
0.0
 40
0.25
  1
 AW(BT) 5/F - 18/F
 72
1
 11
817105.1
 21
826154.0
 31
0.0
 73
2
  0
TEXT
  5
210
  8
AC_Mitigation_Check
 10
817109.2
 20
826158.2
 30
0.0
 40
0.25
  1
 AB(BT) 6/F - 18/F
 72
1
 11
817109.2
 21
826158.2
 31
0.0
 73
2
  0
TEXT
  5
211
  8
AC_Mitigation_Check
 10
817108.7
 20
826157.4
 30
0.0
 40
0.25
  1
 F.G. 6/F - 18/F
 72
1
 11
817108.7
 21
826157.4
 31
0.0
 73
2
  0
TEXT
  5
212
  8
AC_Mitigation_Check
 10
817110.7
 20
826161.4
 30
0.0
 40
0.25
  1
 F.G. 6/F - 18/F
 72
1
 11
817110.7
 21
826161.4
 31
0.0
 73
2
  0
TEXT
  5
213
  8
AC_Mitigation_Check
 10
817110.6
 20
826161.2
 30
0.0
 40
0.25
  1
 AB(BT) 5/F - 18/F
 72
1
 11
817110.6
 21
826161.2
 31
0.0
 73
2
  0
TEXT
  5
214
  8
AC_Mitigation_Check
 10
817112.1
 20
826163.9
 30
0.0
 40
0.25
  1
 AB(BT) 6/F - 18/F
 72
1
 11
817112.1
 21
826163.9
 31
0.0
 73
2
  0
TEXT
  5
215
  8
AC_Mitigation_Check
 10
817111.5
 20
826163.1
 30
0.0
 40
0.25
  1
 F.G. 6/F - 18/F
 72
1
 11
817111.5
 21
826163.1
 31
0.0
 73
2
  0
TEXT
  5
216
  8
AC_Mitigation_Check
 10
817113.6
 20
826167.4
 30
0.0
 40
0.25
  1
 F.G. 5/F - 18/F
 72
1
 11
817113.6
 21
826167.4
 31
0.0
 73
2
  0
TEXT
  5
217
  8
AC_Mitigation_Check
 10
817113.5
 20
826167.2
 30
0.0
 40
0.25
  1
 AB(BT) 5/F - 18/F
 72
1
 11
817113.5
 21
826167.2
 31
0.0
 73
2
  0
TEXT
  5
218
  8
AC_Mitigation_Check
 10
817119.6
 20
826171.9
 30
0.0
 40
0.25
  1
 F.G. 5/F - 18/F
 72
1
 11
817119.6
 21
826171.9
 31
0.0
 73
2
  0
TEXT
  5
219
  8
AC_Mitigation_Check
 10
817117.5
 20
826170.7
 30
0.0
 40
0.25
  1
 F.G. 6/F - 18/F
 72
1
 11
817117.5
 21
826170.7
 31
0.0
 73
2
  0
TEXT
  5
21A
  8
AC_Mitigation_Check
 10
817117.4
 20
826170.1
 30
0.0
 40
0.25
  1
 AB(BT) 5/F - 18/F
 72
1
 11
817117.4
 21
826170.1
 31
0.0
 73
2
  0
TEXT
  5
21B
  8
AC_Mitigation_Check
 10
817128.0
 20
826173.4
 30
0.0
 40
0.25
  1
 AW(BT)re 6/F - 18/F
 72
1
 11
817128.0
 21
826173.4
 31
0.0
 73
2
  0
TEXT
  5
21C
  8
AC_Mitigation_Check
 10
817125.1
 20
826175.2
 30
0.0
 40
0.25
  1
 M.B. 3/F - 18/F
 72
1
 11
817125.1
 21
826175.2
 31
0.0
 73
2
  0
TEXT
  5
21D
  8
AC_Mitigation_Check
 10
817122.8
 20
826174.7
 30
0.0
 40
0.25
  1
 F.G. 3/F - 18/F
 72
1
 11
817122.8
 21
826174.7
 31
0.0
 73
2
  0
TEXT
  5
21E
  8
AC_Mitigation_Check
 10
817121.2
 20
826172.0
 30
0.0
 40
0.25
  1
 AW(BT)re 5/F - 18/F
 72
1
 11
817121.2
 21
826172.0
 31
0.0
 73
2
  0
TEXT
  5
21F
  8
AC_Mitigation_Check
 10
817134.5
 20
826174.9
 30
0.0
 40
0.25
  1
 AW(BT)re 5/F - 18/F
 72
1
 11
817134.5
 21
826174.9
 31
0.0
 73
2
  0
TEXT
  5
220
  8
AC_Mitigation_Check
 10
817131.8
 20
826176.6
 30
0.0
 40
0.25
  1
 F.G. 3/F - 18/F
 72
1
 11
817131.8
 21
826176.6
 31
0.0
 73
2
  0
TEXT
  5
221
  8
AC_Mitigation_Check
 10
817129.5
 20
826176.1
 30
0.0
 40
0.25
  1
 M.B. 3/F - 18/F
 72
1
 11
817129.5
 21
826176.1
 31
0.0
 73
2
  0
TEXT
  5
222
  8
AC_Mitigation_Check
 10
817127.9
 20
826173.5
 30
0.0
 40
0.25
  1
 AW(BT)re 5/F - 18/F
 72
1
 11
817127.9
 21
826173.5
 31
0.0
 73
2
  0
TEXT
  5
223
  8
AC_Mitigation_Check
 10
817132.5
 20
826161.3
 30
0.0
 40
0.25
  1
  
 72
1
 11
817132.5
 21
826161.3
 31
0.0
 73
2
  0
TEXT
  5
224
  8
AC_Mitigation_Check
 10
817133.5
 20
826161.5
 30
0.0
 40
0.25
  1
  
 72
1
 11
817133.5
 21
826161.5
 31
0.0
 73
2
  0
TEXT
  5
225
  8
AC_Mitigation_Check
 10
817135.3
 20
826161.8
 30
0.0
 40
0.25
  1
  
 72
1
 11
817135.3
 21
826161.8
 31
0.0
 73
2
  0
TEXT
  5
226
  8
AC_Mitigation_Check
 10
817128.1
 20
826160.8
 30
0.0
 40
0.25
  1
  
 72
1
 11
817128.1
 21
826160.8
 31
0.0
 73
2
  0
TEXT
  5
227
  8
AC_Mitigation_Check
 10
817129.8
 20
826161.0
 30
0.0
 40
0.25
  1
  
 72
1
 11
817129.8
 21
826161.0
 31
0.0
 73
2
  0
TEXT
  5
228
  8
AC_Mitigation_Check
 10
817130.9
 20
826161.3
 30
0.0
 40
0.25
  1
  
 72
1
 11
817130.9
 21
826161.3
 31
0.0
 73
2
  0
TEXT
  5
229
  8
AC_Mitigation_Check
 10
817125.8
 20
826159.2
 30
0.0
 40
0.25
  1
  
 72
1
 11
817125.8
 21
826159.2
 31
0.0
 73
2
  0
TEXT
  5
22A
  8
AC_Mitigation_Check
 10
817126.6
 20
826160.5
 30
0.0
 40
0.25
  1
  
 72
1
 11
817126.6
 21
826160.5
 31
0.0
 73
2
  0
TEXT
  5
22B
  8
AC_Mitigation_Check
 10
817124.5
 20
826156.4
 30
0.0
 40
0.25
  1
  
 72
1
 11
817124.5
 21
826156.4
 31
0.0
 73
2
  0
TEXT
  5
22C
  8
AC_Mitigation_Check
 10
817125.2
 20
826158.0
 30
0.0
 40
0.25
  1
  
 72
1
 11
817125.2
 21
826158.0
 31
0.0
 73
2
  0
TEXT
  5
22D
  8
AC_Mitigation_Check
 10
817122.2
 20
826151.9
 30
0.0
 40
0.25
  1
  
 72
1
 11
817122.2
 21
826151.9
 31
0.0
 73
2
  0
TEXT
  5
22E
  8
AC_Mitigation_Check
 10
817122.7
 20
826152.9
 30
0.0
 40
0.25
  1
  
 72
1
 11
817122.7
 21
826152.9
 31
0.0
 73
2
  0
TEXT
  5
22F
  8
AC_Mitigation_Check
 10
817123.5
 20
826154.4
 30
0.0
 40
0.25
  1
  
 72
1
 11
817123.5
 21
826154.4
 31
0.0
 73
2
  0
TEXT
  5
230
  8
AC_Mitigation_Check
 10
817120.8
 20
826147.6
 30
0.0
 40
0.25
  1
  
 72
1
 11
817120.8
 21
826147.6
 31
0.0
 73
2
  0
TEXT
  5
231
  8
AC_Mitigation_Check
 10
817121.5
 20
826149.1
 30
0.0
 40
0.25
  1
  
 72
1
 11
817121.5
 21
826149.1
 31
0.0
 73
2
  0
TEXT
  5
232
  8
AC_Mitigation_Check
 10
817122.0
 20
826150.4
 30
0.0
 40
0.25
  1
  
 72
1
 11
817122.0
 21
826150.4
 31
0.0
 73
2
  0
TEXT
  5
233
  8
AC_Mitigation_Check
 10
817118.4
 20
826142.7
 30
0.0
 40
0.25
  1
  
 72
1
 11
817118.4
 21
826142.7
 31
0.0
 73
2
  0
TEXT
  5
234
  8
AC_Mitigation_Check
 10
817118.8
 20
826143.9
 30
0.0
 40
0.25
  1
  
 72
1
 11
817118.8
 21
826143.9
 31
0.0
 73
2
  0
TEXT
  5
235
  8
AC_Mitigation_Check
 10
817119.7
 20
826145.4
 30
0.0
 40
0.25
  1
  
 72
1
 11
817119.7
 21
826145.4
 31
0.0
 73
2
  0
TEXT
  5
236
  8
AC_Mitigation_Check
 10
817115.9
 20
826140.4
 30
0.0
 40
0.25
  1
  
 72
1
 11
817115.9
 21
826140.4
 31
0.0
 73
2
  0
TEXT
  5
237
  8
AC_Mitigation_Check
 10
817116.7
 20
826141.7
 30
0.0
 40
0.25
  1
  
 72
1
 11
817116.7
 21
826141.7
 31
0.0
 73
2
  0
ENDSEC
  0
EOF
