  0
SECTION
  2
HEADER
  9
$ACADVER
  1
AC1009
  9
$DWGCODEPAGE
  3
ANSI_1252
  9
$INSBASE
 10
0.0
 20
0.0
 30
0.0
  9
$EXTMIN
 10
-100
 20
-100
 30
-100
  9
$EXTMAX
 10
100
 20
100
 30
100
  9
$LIMMIN
 10
0.0
 20
0.0
  9
$LIMMAX
 10
420.0
 20
297.0
  9
$ORTHOMODE
 70
0
  9
$REGENMODE
 70
1
  9
$FILLMODE
 70
1
  9
$DRAGMODE
 70
2
  9
$QTEXTMODE
 70
0
  9
$MIRRTEXT
 70
1
  9
$OSMODE
 70
20583
  9
$LTSCALE
 40
1.0
  9
$ATTMODE
 70
1
  9
$TEXTSIZE
 40
2.5
  9
$TRACEWID
 40
1.0
  9
$TEXTSTYLE
  7
OpenSans
  9
$CLAYER
  8
0
  9
$CELTYPE
  6
ByLayer
  9
$CECOLOR
 62
256
  9
$DIMSCALE
 40
1.0
  9
$DIMASZ
 40
0.175
  9
$DIMEXO
 40
0.125
  9
$DIMDLI
 40
3.75
  9
$DIMRND
 40
0.0
  9
$DIMDLE
 40
0.0
  9
$DIMEXE
 40
0.375
  9
$DIMTP
 40
0.0
  9
$DIMTM
 40
0.0
  9
$DIMTXT
 40
0.25
  9
$DIMCEN
 40
2.5
  9
$DIMTSZ
 40
0.0
  9
$DIMTOL
 70
0
  9
$DIMLIM
 70
0
  9
$DIMTIH
 70
0
  9
$DIMTOH
 70
0
  9
$DIMSE1
 70
0
  9
$DIMSE2
 70
0
  9
$DIMTAD
 70
1
  9
$DIMZIN
 70
8
  9
$DIMBLK
  1
ARCHTICK
  9
$DIMASO
 70
1
  9
$DIMSHO
 70
1
  9
$DIMPOST
  1

  9
$DIMAPOST
  1

  9
$DIMALT
 70
0
  9
$DIMALTD
 70
3
  9
$DIMALTF
 40
0.03937007874
  9
$DIMLFAC
 40
100.0
  9
$DIMTOFL
 70
1
  9
$DIMTVP
 40
0.0
  9
$DIMTIX
 70
0
  9
$DIMSOXD
 70
0
  9
$DIMSAH
 70
0
  9
$DIMBLK1
  1

  9
$DIMBLK2
  1

  9
$DIMSTYLE
  2
EZDXF
  9
$DIMCLRD
 70
0
  9
$DIMCLRE
 70
0
  9
$DIMCLRT
 70
0
  9
$DIMTFAC
 40
1.0
  9
$DIMGAP
 40
0.1
  9
$COORDS
 70
1
  9
$ATTDIA
 70
0
  9
$ATTREQ
 70
1
  9
$HANDLING
 70
1
  9
$LUNITS
 70
2
  9
$LUPREC
 70
4
  9
$SKETCHINC
 40
1.0
  9
$FILLETRAD
 40
10.0
  9
$AUNITS
 70
0
  9
$AUPREC
 70
2
  9
$MENU
  1
.
  9
$ELEVATION
 40
0.0
  9
$PELEVATION
 40
0.0
  9
$THICKNESS
 40
0.0
  9
$LIMCHECK
 70
0
  9
$CHAMFERA
 40
0.0
  9
$CHAMFERB
 40
0.0
  9
$SKPOLY
 70
0
  9
$TDCREATE
 40
2459305.745023148
  9
$TDUPDATE
 40
2459305.745023148
  9
$TDINDWG
 40
0.0
  9
$TDUSRTIMER
 40
0.0
  9
$USRTIMER
 70
1
  9
$ANGBASE
 50
0.0
  9
$ANGDIR
 70
0
  9
$PDMODE
 70
0
  9
$PDSIZE
 40
0.0
  9
$PLINEWID
 40
0.0
  9
$SPLFRAME
 70
0
  9
$SPLINETYPE
 70
6
  9
$SPLINESEGS
 70
8
  9
$HANDSEED
  5
290
  9
$SURFTAB1
 70
6
  9
$SURFTAB2
 70
6
  9
$SURFTYPE
 70
6
  9
$SURFU
 70
6
  9
$SURFV
 70
6
  9
$UCSNAME
  2

  9
$UCSORG
 10
0.0
 20
0.0
 30
0.0
  9
$UCSXDIR
 10
1.0
 20
0.0
 30
0.0
  9
$UCSYDIR
 10
0.0
 20
1.0
 30
0.0
  9
$PUCSNAME
  2

  9
$PUCSORG
 10
0.0
 20
0.0
 30
0.0
  9
$PUCSXDIR
 10
1.0
 20
0.0
 30
0.0
  9
$PUCSYDIR
 10
0.0
 20
1.0
 30
0.0
  9
$USERI1
 70
0
  9
$USERI2
 70
0
  9
$USERI3
 70
0
  9
$USERI4
 70
0
  9
$USERI5
 70
0
  9
$USERR1
 40
0.0
  9
$USERR2
 40
0.0
  9
$USERR3
 40
0.0
  9
$USERR4
 40
0.0
  9
$USERR5
 40
0.0
  9
$WORLDVIEW
 70
1
  9
$SHADEDGE
 70
3
  9
$SHADEDIF
 70
70
  9
$TILEMODE
 70
1
  9
$MAXACTVP
 70
64
  9
$PLIMCHECK
 70
0
  9
$PEXTMIN
 10
1e+20
 20
1e+20
 30
1e+20
  9
$PEXTMAX
 10
-1e+20
 20
-1e+20
 30
-1e+20
  9
$PLIMMIN
 10
0.0
 20
0.0
  9
$PLIMMAX
 10
420.0
 20
297.0
  9
$UNITMODE
 70
0
  9
$VISRETAIN
 70
1
  9
$PLINEGEN
 70
0
  9
$PSLTSCALE
 70
1
  0
ENDSEC
  0
SECTION
  2
TABLES
  0
TABLE
  2
VPORT
 70
1
  0
VPORT
  5
23
  2
*Active
 70
0
 10
0.0
 20
0.0
 11
1.0
 21
1.0
 12
70.0
 22
50.0
 13
0.0
 23
0.0
 14
0.5
 24
0.5
 15
0.5
 25
0.5
 16
0.0
 26
0.0
 36
1.0
 17
0.0
 27
0.0
 37
0.0
 40
1.0
 41
1.34
 42
50.0
 43
0.0
 44
0.0
 50
0.0
 51
0.0
 71
0
 72
1000
 73
1
 74
3
 75
0
 76
0
 77
0
 78
0
  0
ENDTAB
  0
TABLE
  2
LTYPE
 70
21
  0
LTYPE
  5
24
  2
ByBlock
 70
0
  3

 72
65
 73
0
 40
0.0
  0
LTYPE
  5
25
  2
ByLayer
 70
0
  3

 72
65
 73
0
 40
0.0
  0
LTYPE
  5
26
  2
Continuous
 70
0
  3

 72
65
 73
0
 40
0.0
  0
LTYPE
  5
2D
  2
CENTER
 70
0
  3
Center ____ _ ____ _ ____ _ ____ _ ____ _ ____
 72
65
 73
4
 40
5.08
 49
3.175
 49
-0.635
 49
0.635
 49
-0.635
  0
LTYPE
  5
2E
  2
CENTERX2
 70
0
  3
Center (2x) ________  __  ________  __  ________
 72
65
 73
4
 40
8.89
 49
6.35
 49
-0.635
 49
1.27
 49
-0.635
  0
LTYPE
  5
2F
  2
CENTER2
 70
0
  3
Center (.5x) ____ _ ____ _ ____ _ ____ _ ____
 72
65
 73
4
 40
2.54
 49
1.587
 49
-0.318
 49
0.318
 49
-0.318
  0
LTYPE
  5
30
  2
DASHED
 70
0
  3
Dashed __ __ __ __ __ __ __ __ __ __ __ __ __ _
 72
65
 73
2
 40
1.524
 49
1.27
 49
-0.254
  0
LTYPE
  5
31
  2
DASHEDX2
 70
0
  3
Dashed (2x) ____  ____  ____  ____  ____  ____
 72
65
 73
2
 40
3.048
 49
2.54
 49
-0.508
  0
LTYPE
  5
32
  2
DASHED2
 70
0
  3
Dashed (.5x) _ _ _ _ _ _ _ _ _ _ _ _ _ _
 72
65
 73
2
 40
0.762
 49
0.635
 49
-0.127
  0
LTYPE
  5
33
  2
PHANTOM
 70
0
  3
Phantom ______  __  __  ______  __  __  ______
 72
65
 73
6
 40
6.35
 49
3.175
 49
-0.635
 49
0.635
 49
-0.635
 49
0.635
 49
-0.635
  0
LTYPE
  5
34
  2
PHANTOMX2
 70
0
  3
Phantom (2x)____________    ____    ____    ____________
 72
65
 73
6
 40
10.795
 49
6.35
 49
-0.635
 49
1.27
 49
-0.635
 49
1.27
 49
-0.635
  0
LTYPE
  5
35
  2
PHANTOM2
 70
0
  3
Phantom (.5x) ___ _ _ ___ _ _ ___ _ _ ___ _ _ ___
 72
65
 73
6
 40
3.175
 49
1.587
 49
-0.318
 49
0.318
 49
-0.318
 49
0.318
 49
-0.318
  0
LTYPE
  5
36
  2
DASHDOT
 70
0
  3
Dash dot __ . __ . __ . __ . __ . __ . __ . __
 72
65
 73
4
 40
3.556
 49
2.54
 49
-0.508
 49
0.0
 49
-0.508
  0
LTYPE
  5
37
  2
DASHDOTX2
 70
0
  3
Dash dot (2x) ____  .  ____  .  ____  .  ____
 72
65
 73
4
 40
6.096
 49
5.08
 49
-0.508
 49
0.0
 49
-0.508
  0
LTYPE
  5
38
  2
DASHDOT2
 70
0
  3
Dash dot (.5x) _ . _ . _ . _ . _ . _ . _ . _
 72
65
 73
4
 40
1.778
 49
1.27
 49
-0.254
 49
0.0
 49
-0.254
  0
LTYPE
  5
39
  2
DOT
 70
0
  3
Dot .  .  .  .  .  .  .  .  .  .  .  .  .  .  .  .
 72
65
 73
2
 40
0.508
 49
0.0
 49
-0.508
  0
LTYPE
  5
3A
  2
DOTX2
 70
0
  3
Dot (2x) .    .    .    .    .    .    .    . 
 72
65
 73
2
 40
1.016
 49
0.0
 49
-1.016
  0
LTYPE
  5
3B
  2
DOT2
 70
0
  3
Dot (.5) . . . . . . . . . . . . . . . . . . . 
 72
65
 73
2
 40
0.254
 49
0.0
 49
-0.254
  0
LTYPE
  5
3C
  2
DIVIDE
 70
0
  3
Divide __ . . __ . . __ . . __ . . __ . . __
 72
65
 73
6
 40
4.064
 49
2.54
 49
-0.508
 49
0.0
 49
-0.508
 49
0.0
 49
-0.508
  0
LTYPE
  5
3D
  2
DIVIDEX2
 70
0
  3
Divide (2x) ____  . .  ____  . .  ____  . .  ____
 72
65
 73
6
 40
6.604
 49
5.08
 49
-0.508
 49
0.0
 49
-0.508
 49
0.0
 49
-0.508
  0
LTYPE
  5
3E
  2
DIVIDE2
 70
0
  3
Divide(.5x) _ . _ . _ . _ . _ . _ . _ . _
 72
65
 73
6
 40
2.032
 49
1.27
 49
-0.254
 49
0.0
 49
-0.254
 49
0.0
 49
-0.254
  0
ENDTAB
  0
TABLE
  2
LAYER
 70
5
  0
LAYER
  5
27
  2
0
 70
0
 62
7
  6
Continuous
  0
LAYER
  5
28
  2
Defpoints
 70
0
 62
7
  6
Continuous
  0
LAYER
  5
8E
  2
SPL_No_Exceedance
 70
0
 62
3
  6
Continuous
  0
LAYER
  5
8F
  2
SPL_Between_70_and_76dB
 70
0
 62
30
  6
Continuous
  0
LAYER
  5
90
  2
SPL_More_than_76dB
 70
0
 62
1
  6
Continuous
  0
ENDTAB
  0
TABLE
  2
STYLE
 70
26
  0
STYLE
  5
29
  2
Standard
 70
0
 40
0.0
 41
1.0
 50
0.0
 71
0
 42
2.5
  3
txt
  4

  0
STYLE
  5
3F
  2
OpenSans-Light
 70
0
 40
0.0
 41
1.0
 50
0.0
 71
0
 42
2.5
  3
OpenSans-Light.ttf
  4

  0
STYLE
  5
40
  2
OpenSans-Light-Italic
 70
0
 40
0.0
 41
1.0
 50
0.0
 71
0
 42
2.5
  3
OpenSans-LightItalic.ttf
  4

  0
STYLE
  5
41
  2
OpenSans
 70
0
 40
0.0
 41
1.0
 50
0.0
 71
0
 42
2.5
  3
OpenSans-Regular.ttf
  4

  0
STYLE
  5
42
  2
OpenSans-Italic
 70
0
 40
0.0
 41
1.0
 50
0.0
 71
0
 42
2.5
  3
OpenSans-Italic.ttf
  4

  0
STYLE
  5
43
  2
OpenSans-SemiBold
 70
0
 40
0.0
 41
1.0
 50
0.0
 71
0
 42
2.5
  3
OpenSans-SemiBold.ttf
  4

  0
STYLE
  5
44
  2
OpenSans-SemiBoldItalic
 70
0
 40
0.0
 41
1.0
 50
0.0
 71
0
 42
2.5
  3
OpenSans-SemiBoldItalic.ttf
  4

  0
STYLE
  5
45
  2
OpenSans-Bold
 70
0
 40
0.0
 41
1.0
 50
0.0
 71
0
 42
2.5
  3
OpenSans-Bold.ttf
  4

  0
STYLE
  5
46
  2
OpenSans-BoldItalic
 70
0
 40
0.0
 41
1.0
 50
0.0
 71
0
 42
2.5
  3
OpenSans-BoldItalic.ttf
  4

  0
STYLE
  5
47
  2
OpenSans-ExtraBold
 70
0
 40
0.0
 41
1.0
 50
0.0
 71
0
 42
2.5
  3
OpenSans-ExtraBold.ttf
  4

  0
STYLE
  5
48
  2
OpenSans-ExtraBoldItalic
 70
0
 40
0.0
 41
1.0
 50
0.0
 71
0
 42
2.5
  3
OpenSans-ExtraBoldItalic.ttf
  4

  0
STYLE
  5
49
  2
OpenSansCondensed-Bold
 70
0
 40
0.0
 41
1.0
 50
0.0
 71
0
 42
2.5
  3
OpenSansCondensed-Bold.ttf
  4

  0
STYLE
  5
4A
  2
OpenSansCondensed-Light
 70
0
 40
0.0
 41
1.0
 50
0.0
 71
0
 42
2.5
  3
OpenSansCondensed-Light.ttf
  4

  0
STYLE
  5
4B
  2
OpenSansCondensed-Italic
 70
0
 40
0.0
 41
1.0
 50
0.0
 71
0
 42
2.5
  3
OpenSansCondensed-LightItalic.ttf
  4

  0
STYLE
  5
4C
  2
LiberationSans
 70
0
 40
0.0
 41
1.0
 50
0.0
 71
0
 42
2.5
  3
LiberationSans-Regular.ttf
  4

  0
STYLE
  5
4D
  2
LiberationSans-Bold
 70
0
 40
0.0
 41
1.0
 50
0.0
 71
0
 42
2.5
  3
LiberationSans-Bold.ttf
  4

  0
STYLE
  5
4E
  2
LiberationSans-BoldItalic
 70
0
 40
0.0
 41
1.0
 50
0.0
 71
0
 42
2.5
  3
LiberationSans-BoldItalic.ttf
  4

  0
STYLE
  5
4F
  2
LiberationSans-Italic
 70
0
 40
0.0
 41
1.0
 50
0.0
 71
0
 42
2.5
  3
LiberationSans-Italic.ttf
  4

  0
STYLE
  5
50
  2
LiberationSerif
 70
0
 40
0.0
 41
1.0
 50
0.0
 71
0
 42
2.5
  3
LiberationSerif-Regular.ttf
  4

  0
STYLE
  5
51
  2
LiberationSerif-Bold
 70
0
 40
0.0
 41
1.0
 50
0.0
 71
0
 42
2.5
  3
LiberationSerif-Bold.ttf
  4

  0
STYLE
  5
52
  2
LiberationSerif-BoldItalic
 70
0
 40
0.0
 41
1.0
 50
0.0
 71
0
 42
2.5
  3
LiberationSerif-BoldItalic.ttf
  4

  0
STYLE
  5
53
  2
LiberationSerif-Italic
 70
0
 40
0.0
 41
1.0
 50
0.0
 71
0
 42
2.5
  3
LiberationSerif-Italic.ttf
  4

  0
STYLE
  5
54
  2
LiberationMono
 70
0
 40
0.0
 41
1.0
 50
0.0
 71
0
 42
2.5
  3
LiberationMono-Regular.ttf
  4

  0
STYLE
  5
55
  2
LiberationMono-Bold
 70
0
 40
0.0
 41
1.0
 50
0.0
 71
0
 42
2.5
  3
LiberationMono-Bold.ttf
  4

  0
STYLE
  5
56
  2
LiberationMono-BoldItalic
 70
0
 40
0.0
 41
1.0
 50
0.0
 71
0
 42
2.5
  3
LiberationMono-BoldItalic.ttf
  4

  0
STYLE
  5
57
  2
LiberationMono-Italic
 70
0
 40
0.0
 41
1.0
 50
0.0
 71
0
 42
2.5
  3
LiberationMono-Italic.ttf
  4

  0
ENDTAB
  0
TABLE
  2
VIEW
 70
0
  0
ENDTAB
  0
TABLE
  2
UCS
 70
0
  0
ENDTAB
  0
TABLE
  2
APPID
 70
2
  0
APPID
  5
2A
  2
ACAD
 70
0
  0
APPID
  5
28F
  2
HATCHBACKGROUNDCOLOR
 70
0
  0
ENDTAB
  0
TABLE
  2
DIMSTYLE
 70
11
  0
DIMSTYLE
105
2B
  2
Standard
 70
0
  3

  4

  5

  6

  7

 40
1.0
 41
2.5
 42
0.625
 43
3.75
 44
1.25
 45
0.0
 46
0.0
 47
0.0
 48
0.0
140
2.5
141
2.5
142
0.0
143
0.03937007874
144
1.0
145
0.0
146
1.0
147
0.625
 71
0
 72
0
 73
0
 74
0
 75
0
 76
0
 77
1
 78
8
170
0
171
3
172
1
173
0
174
0
175
0
176
0
177
0
178
0
  0
DIMSTYLE
105
71
  2
EZDXF
 70
0
  3

  4

  5
ARCHTICK
  6

  7

 40
1.0
 41
0.175
 42
0.125
 43
3.75
 44
0.375
 45
0.0
 46
0.0
 47
0.0
 48
0.0
140
0.25
141
2.5
142
0.0
143
0.03937007874
144
100.0
145
0.0
146
1.0
147
0.1
 71
0
 72
0
 73
0
 74
0
 75
0
 76
0
 77
1
 78
8
170
0
171
3
172
1
173
0
174
0
175
0
176
0
177
0
178
0
  0
DIMSTYLE
105
7D
  2
EZ_M_100_H25_CM
 70
0
  3

  4

  5

  6

  7

 40
1.0
 41
0.25
 42
0.125
 43
3.75
 44
0.375
 45
0.0
 46
0.0
 47
0.0
 48
0.0
140
0.25
141
2.5
142
0.125
143
0.03937007874
144
100.0
145
0.0
146
1.0
147
0.1
 71
0
 72
0
 73
0
 74
0
 75
0
 76
0
 77
1
 78
8
170
0
171
3
172
1
173
0
174
0
175
0
176
0
177
0
178
0
  0
DIMSTYLE
105
7E
  2
EZ_M_50_H25_CM
 70
0
  3

  4

  5

  6

  7

 40
1.0
 41
0.125
 42
0.0625
 43
3.75
 44
0.1875
 45
0.0
 46
0.0
 47
0.0
 48
0.0
140
0.125
141
2.5
142
0.0625
143
0.03937007874
144
100.0
145
0.0
146
1.0
147
0.05
 71
0
 72
0
 73
0
 74
0
 75
0
 76
0
 77
1
 78
8
170
0
171
3
172
1
173
0
174
0
175
0
176
0
177
0
178
0
  0
DIMSTYLE
105
7F
  2
EZ_M_25_H25_CM
 70
0
  3

  4

  5

  6

  7

 40
1.0
 41
0.0625
 42
0.03125
 43
3.75
 44
0.09375
 45
0.0
 46
0.0
 47
0.0
 48
0.0
140
0.0625
141
2.5
142
0.03125
143
0.03937007874
144
100.0
145
0.0
146
1.0
147
0.025
 71
0
 72
0
 73
0
 74
0
 75
0
 76
0
 77
1
 78
8
170
0
171
3
172
1
173
0
174
0
175
0
176
0
177
0
178
0
  0
DIMSTYLE
105
80
  2
EZ_M_20_H25_CM
 70
0
  3

  4

  5

  6

  7

 40
1.0
 41
0.05
 42
0.025
 43
3.75
 44
0.07500000000000001
 45
0.0
 46
0.0
 47
0.0
 48
0.0
140
0.05
141
2.5
142
0.025
143
0.03937007874
144
100.0
145
0.0
146
1.0
147
0.020000000000000004
 71
0
 72
0
 73
0
 74
0
 75
0
 76
0
 77
1
 78
8
170
0
171
3
172
1
173
0
174
0
175
0
176
0
177
0
178
0
  0
DIMSTYLE
105
81
  2
EZ_M_10_H25_CM
 70
0
  3

  4

  5

  6

  7

 40
1.0
 41
0.025
 42
0.0125
 43
3.75
 44
0.037500000000000006
 45
0.0
 46
0.0
 47
0.0
 48
0.0
140
0.025
141
2.5
142
0.0125
143
0.03937007874
144
100.0
145
0.0
146
1.0
147
0.010000000000000002
 71
0
 72
0
 73
0
 74
0
 75
0
 76
0
 77
1
 78
8
170
0
171
3
172
1
173
0
174
0
175
0
176
0
177
0
178
0
  0
DIMSTYLE
105
82
  2
EZ_M_5_H25_CM
 70
0
  3

  4

  5

  6

  7

 40
1.0
 41
0.0125
 42
0.00625
 43
3.75
 44
0.018750000000000003
 45
0.0
 46
0.0
 47
0.0
 48
0.0
140
0.0125
141
2.5
142
0.00625
143
0.03937007874
144
100.0
145
0.0
146
1.0
147
0.005000000000000001
 71
0
 72
0
 73
0
 74
0
 75
0
 76
0
 77
1
 78
8
170
0
171
3
172
1
173
0
174
0
175
0
176
0
177
0
178
0
  0
DIMSTYLE
105
83
  2
EZ_M_1_H25_CM
 70
0
  3

  4

  5

  6

  7

 40
1.0
 41
0.0025
 42
0.00125
 43
3.75
 44
0.00375
 45
0.0
 46
0.0
 47
0.0
 48
0.0
140
0.0025
141
2.5
142
0.00125
143
0.03937007874
144
100.0
145
0.0
146
1.0
147
0.001
 71
0
 72
0
 73
0
 74
0
 75
0
 76
0
 77
1
 78
8
170
0
171
3
172
1
173
0
174
0
175
0
176
0
177
0
178
0
  0
DIMSTYLE
105
84
  2
EZ_RADIUS
 70
0
  3

  4

  5
CLOSEDBLANK
  6

  7

 40
1.0
 41
0.25
 42
0.125
 43
3.75
 44
0.375
 45
0.0
 46
0.0
 47
0.0
 48
0.0
140
0.25
141
0.0
142
0.0
143
0.03937007874
144
100.0
145
0.0
146
1.0
147
0.1
 71
0
 72
0
 73
0
 74
0
 75
0
 76
0
 77
1
 78
8
170
0
171
3
172
0
173
0
174
0
175
0
176
0
177
0
178
0
  0
DIMSTYLE
105
8D
  2
EZ_RADIUS_INSIDE
 70
0
  3

  4

  5
CLOSEDBLANK
  6

  7

 40
1.0
 41
0.25
 42
0.125
 43
3.75
 44
0.375
 45
0.0
 46
0.0
 47
0.0
 48
0.0
140
0.25
141
0.0
142
0.0
143
0.03937007874
144
100.0
145
0.0
146
1.0
147
0.1
 71
0
 72
0
 73
0
 74
0
 75
0
 76
0
 77
0
 78
8
170
0
171
3
172
0
173
0
174
1
175
0
176
0
177
0
178
0
  0
ENDTAB
  0
ENDSEC
  0
SECTION
  2
BLOCKS
  0
BLOCK
  5
18
  8
0
  2
$Model_Space
 70
0
 10
0.0
 20
0.0
 30
0.0
  3
$Model_Space
  1

  0
ENDBLK
  5
19
  8
0
  0
BLOCK
  5
1C
  8
0
  2
$Paper_Space
 70
0
 10
0.0
 20
0.0
 30
0.0
  3
$Paper_Space
  1

  0
ENDBLK
  5
1D
  8
0
  0
BLOCK
  5
73
  8
0
  2
_ARCHTICK
 70
0
 10
0.0
 20
0.0
 30
0.0
  3
_ARCHTICK
  1

  0
POLYLINE
  5
75
  8
0
  6
BYBLOCK
 62
0
 66
1
 10
0.0
 20
0.0
 30
0.0
 70
0
 40
0.15
 41
0.15
  0
VERTEX
  5
77
  8
0
  6
BYBLOCK
 10
-0.5
 20
-0.5000000000000001
 30
0.0
 70
0
  0
VERTEX
  5
78
  8
0
  6
BYBLOCK
 10
0.5000000000000001
 20
0.5000000000000001
 30
0.0
 70
0
  0
SEQEND
  5
76
  8
0
  0
ENDBLK
  5
74
  8
0
  0
BLOCK
  5
7A
  8
0
  2
_CLOSEDFILLED
 70
0
 10
0.0
 20
0.0
 30
0.0
  3
_CLOSEDFILLED
  1

  0
SOLID
  5
7C
  8
0
  6
BYBLOCK
 62
0
 10
-1.0
 20
0.1643989837240255
 30
0.0
 11
0.0
 21
0.0
 31
0.0
 12
-1.0
 22
-0.1643989837240255
 32
0.0
 13
-1.0
 23
-0.1643989837240255
 33
0.0
  0
ENDBLK
  5
7B
  8
0
  0
BLOCK
  5
86
  8
0
  2
_CLOSEDBLANK
 70
0
 10
0.0
 20
0.0
 30
0.0
  3
_CLOSEDBLANK
  1

  0
POLYLINE
  5
88
  8
0
  6
BYBLOCK
 62
0
 66
1
 10
0.0
 20
0.0
 30
0.0
 70
1
  0
VERTEX
  5
8A
  8
0
  6
BYBLOCK
 10
-1.0
 20
0.1643989837240255
 30
0.0
 70
0
  0
VERTEX
  5
8B
  8
0
  6
BYBLOCK
 10
0.0
 20
0.0
 30
0.0
 70
0
  0
VERTEX
  5
8C
  8
0
  6
BYBLOCK
 10
-1.0
 20
-0.1643989837240255
 30
0.0
 70
0
  0
SEQEND
  5
89
  8
0
  0
ENDBLK
  5
87
  8
0
  0
ENDSEC
  0
SECTION
  2
ENTITIES
  0
TEXT
  5
91
  8
SPL_No_Exceedance
 10
846090.5
 20
827526.7
 30
0.0
 40
0.5
  1
69dB(A)
  7
LiberationSerif
 72
1
 11
846090.5
 21
827526.7
 31
0.0
 73
2
  0
TEXT
  5
92
  8
SPL_No_Exceedance
 10
846090.7
 20
827529.8
 30
0.0
 40
0.5
  1
70dB(A)
  7
LiberationSerif
 72
1
 11
846090.7
 21
827529.8
 31
0.0
 73
2
  0
TEXT
  5
93
  8
SPL_No_Exceedance
 10
846092.5
 20
827531.7
 30
0.0
 40
0.5
  1
70dB(A)
  7
LiberationSerif
 72
1
 11
846092.5
 21
827531.7
 31
0.0
 73
2
  0
TEXT
  5
94
  8
SPL_No_Exceedance
 10
846093.9
 20
827533.3
 30
0.0
 40
0.5
  1
70dB(A)
  7
LiberationSerif
 72
1
 11
846093.9
 21
827533.3
 31
0.0
 73
2
  0
TEXT
  5
95
  8
SPL_No_Exceedance
 10
846095.1
 20
827534.7
 30
0.0
 40
0.5
  1
70dB(A)
  7
LiberationSerif
 72
1
 11
846095.1
 21
827534.7
 31
0.0
 73
2
  0
TEXT
  5
96
  8
SPL_No_Exceedance
 10
846097.2
 20
827537.1
 30
0.0
 40
0.5
  1
70dB(A)
  7
LiberationSerif
 72
1
 11
846097.2
 21
827537.1
 31
0.0
 73
2
  0
TEXT
  5
97
  8
SPL_No_Exceedance
 10
846099.3
 20
827539.5
 30
0.0
 40
0.5
  1
70dB(A)
  7
LiberationSerif
 72
1
 11
846099.3
 21
827539.5
 31
0.0
 73
2
  0
TEXT
  5
98
  8
SPL_No_Exceedance
 10
846100.8
 20
827541.3
 30
0.0
 40
0.5
  1
70dB(A)
  7
LiberationSerif
 72
1
 11
846100.8
 21
827541.3
 31
0.0
 73
2
  0
TEXT
  5
99
  8
SPL_No_Exceedance
 10
846102.0
 20
827542.7
 30
0.0
 40
0.5
  1
70dB(A)
  7
LiberationSerif
 72
1
 11
846102.0
 21
827542.7
 31
0.0
 73
2
  0
TEXT
  5
9A
  8
SPL_No_Exceedance
 10
846104.0
 20
827544.9
 30
0.0
 40
0.5
  1
70dB(A)
  7
LiberationSerif
 72
1
 11
846104.0
 21
827544.9
 31
0.0
 73
2
  0
TEXT
  5
9B
  8
SPL_No_Exceedance
 10
846108.4
 20
827549.9
 30
0.0
 40
0.5
  1
70dB(A)
  7
LiberationSerif
 72
1
 11
846108.4
 21
827549.9
 31
0.0
 73
2
  0
TEXT
  5
9C
  8
SPL_No_Exceedance
 10
846110.3
 20
827552.1
 30
0.0
 40
0.5
  1
70dB(A)
  7
LiberationSerif
 72
1
 11
846110.3
 21
827552.1
 31
0.0
 73
2
  0
TEXT
  5
9D
  8
SPL_No_Exceedance
 10
846111.5
 20
827553.5
 30
0.0
 40
0.5
  1
70dB(A)
  7
LiberationSerif
 72
1
 11
846111.5
 21
827553.5
 31
0.0
 73
2
  0
TEXT
  5
9E
  8
SPL_No_Exceedance
 10
846113.1
 20
827555.2
 30
0.0
 40
0.5
  1
70dB(A)
  7
LiberationSerif
 72
1
 11
846113.1
 21
827555.2
 31
0.0
 73
2
  0
TEXT
  5
9F
  8
SPL_No_Exceedance
 10
846115.2
 20
827557.7
 30
0.0
 40
0.5
  1
70dB(A)
  7
LiberationSerif
 72
1
 11
846115.2
 21
827557.7
 31
0.0
 73
2
  0
TEXT
  5
A0
  8
SPL_No_Exceedance
 10
846117.3
 20
827560.1
 30
0.0
 40
0.5
  1
70dB(A)
  7
LiberationSerif
 72
1
 11
846117.3
 21
827560.1
 31
0.0
 73
2
  0
TEXT
  5
A1
  8
SPL_No_Exceedance
 10
846118.6
 20
827561.5
 30
0.0
 40
0.5
  1
70dB(A)
  7
LiberationSerif
 72
1
 11
846118.6
 21
827561.5
 31
0.0
 73
2
  0
TEXT
  5
A2
  8
SPL_No_Exceedance
 10
846120.5
 20
827563.8
 30
0.0
 40
0.5
  1
70dB(A)
  7
LiberationSerif
 72
1
 11
846120.5
 21
827563.8
 31
0.0
 73
2
  0
TEXT
  5
A3
  8
SPL_No_Exceedance
 10
846123.9
 20
827564.7
 30
0.0
 40
0.5
  1
68dB(A)
  7
LiberationSerif
 72
1
 11
846123.9
 21
827564.7
 31
0.0
 73
2
  0
TEXT
  5
A4
  8
SPL_No_Exceedance
 10
846135.1
 20
827555.1
 30
0.0
 40
0.5
  1
65dB(A)
  7
LiberationSerif
 72
1
 11
846135.1
 21
827555.1
 31
0.0
 73
2
  0
TEXT
  5
A5
  8
SPL_No_Exceedance
 10
846134.9
 20
827552.0
 30
0.0
 40
0.5
  1
57dB(A)
  7
LiberationSerif
 72
1
 11
846134.9
 21
827552.0
 31
0.0
 73
2
  0
TEXT
  5
A6
  8
SPL_No_Exceedance
 10
846133.2
 20
827550.1
 30
0.0
 40
0.5
  1
51dB(A)
  7
LiberationSerif
 72
1
 11
846133.2
 21
827550.1
 31
0.0
 73
2
  0
TEXT
  5
A7
  8
SPL_No_Exceedance
 10
846131.7
 20
827548.5
 30
0.0
 40
0.5
  1
49dB(A)
  7
LiberationSerif
 72
1
 11
846131.7
 21
827548.5
 31
0.0
 73
2
  0
TEXT
  5
A8
  8
SPL_No_Exceedance
 10
846130.5
 20
827547.1
 30
0.0
 40
0.5
  1
49dB(A)
  7
LiberationSerif
 72
1
 11
846130.5
 21
827547.1
 31
0.0
 73
2
  0
TEXT
  5
A9
  8
SPL_No_Exceedance
 10
846128.4
 20
827544.7
 30
0.0
 40
0.5
  1
49dB(A)
  7
LiberationSerif
 72
1
 11
846128.4
 21
827544.7
 31
0.0
 73
2
  0
TEXT
  5
AA
  8
SPL_No_Exceedance
 10
846126.3
 20
827542.2
 30
0.0
 40
0.5
  1
49dB(A)
  7
LiberationSerif
 72
1
 11
846126.3
 21
827542.2
 31
0.0
 73
2
  0
TEXT
  5
AB
  8
SPL_No_Exceedance
 10
846124.5
 20
827540.2
 30
0.0
 40
0.5
  1
49dB(A)
  7
LiberationSerif
 72
1
 11
846124.5
 21
827540.2
 31
0.0
 73
2
  0
TEXT
  5
AC
  8
SPL_No_Exceedance
 10
846123.2
 20
827538.8
 30
0.0
 40
0.5
  1
49dB(A)
  7
LiberationSerif
 72
1
 11
846123.2
 21
827538.8
 31
0.0
 73
2
  0
TEXT
  5
AD
  8
SPL_No_Exceedance
 10
846121.7
 20
827537.0
 30
0.0
 40
0.5
  1
49dB(A)
  7
LiberationSerif
 72
1
 11
846121.7
 21
827537.0
 31
0.0
 73
2
  0
TEXT
  5
AE
  8
SPL_No_Exceedance
 10
846120.4
 20
827535.6
 30
0.0
 40
0.5
  1
49dB(A)
  7
LiberationSerif
 72
1
 11
846120.4
 21
827535.6
 31
0.0
 73
2
  0
TEXT
  5
AF
  8
SPL_No_Exceedance
 10
846118.6
 20
827533.5
 30
0.0
 40
0.5
  1
49dB(A)
  7
LiberationSerif
 72
1
 11
846118.6
 21
827533.5
 31
0.0
 73
2
  0
TEXT
  5
B0
  8
SPL_No_Exceedance
 10
846118.2
 20
827532.7
 30
0.0
 40
0.5
  1
48dB(A)
  7
LiberationSerif
 72
1
 11
846118.2
 21
827532.7
 31
0.0
 73
2
  0
TEXT
  5
B1
  8
SPL_No_Exceedance
 10
846119.7
 20
827531.4
 30
0.0
 40
0.5
  1
48dB(A)
  7
LiberationSerif
 72
1
 11
846119.7
 21
827531.4
 31
0.0
 73
2
  0
TEXT
  5
B2
  8
SPL_No_Exceedance
 10
846121.8
 20
827529.6
 30
0.0
 40
0.5
  1
48dB(A)
  7
LiberationSerif
 72
1
 11
846121.8
 21
827529.6
 31
0.0
 73
2
  0
TEXT
  5
B3
  8
SPL_No_Exceedance
 10
846123.8
 20
827527.8
 30
0.0
 40
0.5
  1
53dB(A)
  7
LiberationSerif
 72
1
 11
846123.8
 21
827527.8
 31
0.0
 73
2
  0
TEXT
  5
B4
  8
SPL_No_Exceedance
 10
846125.9
 20
827526.0
 30
0.0
 40
0.5
  1
52dB(A)
  7
LiberationSerif
 72
1
 11
846125.9
 21
827526.0
 31
0.0
 73
2
  0
TEXT
  5
B5
  8
SPL_No_Exceedance
 10
846127.3
 20
827524.7
 30
0.0
 40
0.5
  1
52dB(A)
  7
LiberationSerif
 72
1
 11
846127.3
 21
827524.7
 31
0.0
 73
2
  0
TEXT
  5
B6
  8
SPL_No_Exceedance
 10
846129.1
 20
827523.2
 30
0.0
 40
0.5
  1
53dB(A)
  7
LiberationSerif
 72
1
 11
846129.1
 21
827523.2
 31
0.0
 73
2
  0
TEXT
  5
B7
  8
SPL_No_Exceedance
 10
846130.5
 20
827521.9
 30
0.0
 40
0.5
  1
53dB(A)
  7
LiberationSerif
 72
1
 11
846130.5
 21
827521.9
 31
0.0
 73
2
  0
TEXT
  5
B8
  8
SPL_No_Exceedance
 10
846132.6
 20
827520.1
 30
0.0
 40
0.5
  1
54dB(A)
  7
LiberationSerif
 72
1
 11
846132.6
 21
827520.1
 31
0.0
 73
2
  0
TEXT
  5
B9
  8
SPL_No_Exceedance
 10
846135.0
 20
827518.0
 30
0.0
 40
0.5
  1
55dB(A)
  7
LiberationSerif
 72
1
 11
846135.0
 21
827518.0
 31
0.0
 73
2
  0
TEXT
  5
BA
  8
SPL_No_Exceedance
 10
846137.4
 20
827515.9
 30
0.0
 40
0.5
  1
55dB(A)
  7
LiberationSerif
 72
1
 11
846137.4
 21
827515.9
 31
0.0
 73
2
  0
TEXT
  5
BB
  8
SPL_No_Exceedance
 10
846138.8
 20
827514.7
 30
0.0
 40
0.5
  1
55dB(A)
  7
LiberationSerif
 72
1
 11
846138.8
 21
827514.7
 31
0.0
 73
2
  0
TEXT
  5
BC
  8
SPL_No_Exceedance
 10
846140.4
 20
827513.2
 30
0.0
 40
0.5
  1
55dB(A)
  7
LiberationSerif
 72
1
 11
846140.4
 21
827513.2
 31
0.0
 73
2
  0
TEXT
  5
BD
  8
SPL_No_Exceedance
 10
846142.4
 20
827511.5
 30
0.0
 40
0.5
  1
56dB(A)
  7
LiberationSerif
 72
1
 11
846142.4
 21
827511.5
 31
0.0
 73
2
  0
TEXT
  5
BE
  8
SPL_No_Exceedance
 10
846143.0
 20
827508.5
 30
0.0
 40
0.5
  1
55dB(A)
  7
LiberationSerif
 72
1
 11
846143.0
 21
827508.5
 31
0.0
 73
2
  0
TEXT
  5
BF
  8
SPL_No_Exceedance
 10
846129.0
 20
827505.9
 30
0.0
 40
0.5
  1
56dB(A)
  7
LiberationSerif
 72
1
 11
846129.0
 21
827505.9
 31
0.0
 73
2
  0
TEXT
  5
C0
  8
SPL_No_Exceedance
 10
846126.1
 20
827506.0
 30
0.0
 40
0.5
  1
59dB(A)
  7
LiberationSerif
 72
1
 11
846126.1
 21
827506.0
 31
0.0
 73
2
  0
TEXT
  5
C1
  8
SPL_No_Exceedance
 10
846123.2
 20
827506.4
 30
0.0
 40
0.5
  1
61dB(A)
  7
LiberationSerif
 72
1
 11
846123.2
 21
827506.4
 31
0.0
 73
2
  0
TEXT
  5
C2
  8
SPL_No_Exceedance
 10
846121.5
 20
827507.8
 30
0.0
 40
0.5
  1
62dB(A)
  7
LiberationSerif
 72
1
 11
846121.5
 21
827507.8
 31
0.0
 73
2
  0
TEXT
  5
C3
  8
SPL_No_Exceedance
 10
846119.6
 20
827509.5
 30
0.0
 40
0.5
  1
62dB(A)
  7
LiberationSerif
 72
1
 11
846119.6
 21
827509.5
 31
0.0
 73
2
  0
TEXT
  5
C4
  8
SPL_No_Exceedance
 10
846114.2
 20
827512.9
 30
0.0
 40
0.5
  1
63dB(A)
  7
LiberationSerif
 72
1
 11
846114.2
 21
827512.9
 31
0.0
 73
2
  0
TEXT
  5
C5
  8
SPL_No_Exceedance
 10
846112.1
 20
827514.8
 30
0.0
 40
0.5
  1
63dB(A)
  7
LiberationSerif
 72
1
 11
846112.1
 21
827514.8
 31
0.0
 73
2
  0
TEXT
  5
C6
  8
SPL_No_Exceedance
 10
846110.7
 20
827516.0
 30
0.0
 40
0.5
  1
63dB(A)
  7
LiberationSerif
 72
1
 11
846110.7
 21
827516.0
 31
0.0
 73
2
  0
TEXT
  5
C7
  8
SPL_No_Exceedance
 10
846109.0
 20
827517.5
 30
0.0
 40
0.5
  1
63dB(A)
  7
LiberationSerif
 72
1
 11
846109.0
 21
827517.5
 31
0.0
 73
2
  0
TEXT
  5
C8
  8
SPL_No_Exceedance
 10
846107.1
 20
827519.1
 30
0.0
 40
0.5
  1
63dB(A)
  7
LiberationSerif
 72
1
 11
846107.1
 21
827519.1
 31
0.0
 73
2
  0
TEXT
  5
C9
  8
SPL_No_Exceedance
 10
846105.4
 20
827520.6
 30
0.0
 40
0.5
  1
63dB(A)
  7
LiberationSerif
 72
1
 11
846105.4
 21
827520.6
 31
0.0
 73
2
  0
TEXT
  5
CA
  8
SPL_No_Exceedance
 10
846104.1
 20
827521.8
 30
0.0
 40
0.5
  1
63dB(A)
  7
LiberationSerif
 72
1
 11
846104.1
 21
827521.8
 31
0.0
 73
2
  0
TEXT
  5
CB
  8
SPL_No_Exceedance
 10
846101.9
 20
827523.8
 30
0.0
 40
0.5
  1
62dB(A)
  7
LiberationSerif
 72
1
 11
846101.9
 21
827523.8
 31
0.0
 73
2
  0
TEXT
  5
CC
  8
SPL_No_Exceedance
 10
846201.4
 20
827459.0
 30
0.0
 40
0.5
  1
63dB(A)
  7
LiberationSerif
 72
1
 11
846201.4
 21
827459.0
 31
0.0
 73
2
  0
TEXT
  5
CD
  8
SPL_No_Exceedance
 10
846202.3
 20
827461.6
 30
0.0
 40
0.5
  1
59dB(A)
  7
LiberationSerif
 72
1
 11
846202.3
 21
827461.6
 31
0.0
 73
2
  0
TEXT
  5
CE
  8
SPL_No_Exceedance
 10
846202.9
 20
827463.4
 30
0.0
 40
0.5
  1
58dB(A)
  7
LiberationSerif
 72
1
 11
846202.9
 21
827463.4
 31
0.0
 73
2
  0
TEXT
  5
CF
  8
SPL_No_Exceedance
 10
846203.8
 20
827465.7
 30
0.0
 40
0.5
  1
57dB(A)
  7
LiberationSerif
 72
1
 11
846203.8
 21
827465.7
 31
0.0
 73
2
  0
TEXT
  5
D0
  8
SPL_No_Exceedance
 10
846204.4
 20
827467.7
 30
0.0
 40
0.5
  1
56dB(A)
  7
LiberationSerif
 72
1
 11
846204.4
 21
827467.7
 31
0.0
 73
2
  0
TEXT
  5
D1
  8
SPL_No_Exceedance
 10
846205.3
 20
827470.2
 30
0.0
 40
0.5
  1
55dB(A)
  7
LiberationSerif
 72
1
 11
846205.3
 21
827470.2
 31
0.0
 73
2
  0
TEXT
  5
D2
  8
SPL_No_Exceedance
 10
846206.3
 20
827473.1
 30
0.0
 40
0.5
  1
54dB(A)
  7
LiberationSerif
 72
1
 11
846206.3
 21
827473.1
 31
0.0
 73
2
  0
TEXT
  5
D3
  8
SPL_No_Exceedance
 10
846207.2
 20
827475.8
 30
0.0
 40
0.5
  1
53dB(A)
  7
LiberationSerif
 72
1
 11
846207.2
 21
827475.8
 31
0.0
 73
2
  0
TEXT
  5
D4
  8
SPL_No_Exceedance
 10
846207.8
 20
827477.6
 30
0.0
 40
0.5
  1
53dB(A)
  7
LiberationSerif
 72
1
 11
846207.8
 21
827477.6
 31
0.0
 73
2
  0
TEXT
  5
D5
  8
SPL_No_Exceedance
 10
846208.7
 20
827479.9
 30
0.0
 40
0.5
  1
52dB(A)
  7
LiberationSerif
 72
1
 11
846208.7
 21
827479.9
 31
0.0
 73
2
  0
TEXT
  5
D6
  8
SPL_No_Exceedance
 10
846228.3
 20
827481.1
 30
0.0
 40
0.5
  1
62dB(A)
  7
LiberationSerif
 72
1
 11
846228.3
 21
827481.1
 31
0.0
 73
2
  0
TEXT
  5
D7
  8
SPL_No_Exceedance
 10
846227.5
 20
827478.8
 30
0.0
 40
0.5
  1
62dB(A)
  7
LiberationSerif
 72
1
 11
846227.5
 21
827478.8
 31
0.0
 73
2
  0
TEXT
  5
D8
  8
SPL_No_Exceedance
 10
846226.8
 20
827476.7
 30
0.0
 40
0.5
  1
63dB(A)
  7
LiberationSerif
 72
1
 11
846226.8
 21
827476.7
 31
0.0
 73
2
  0
TEXT
  5
D9
  8
SPL_No_Exceedance
 10
846226.2
 20
827475.0
 30
0.0
 40
0.5
  1
63dB(A)
  7
LiberationSerif
 72
1
 11
846226.2
 21
827475.0
 31
0.0
 73
2
  0
TEXT
  5
DA
  8
SPL_No_Exceedance
 10
846225.2
 20
827472.0
 30
0.0
 40
0.5
  1
63dB(A)
  7
LiberationSerif
 72
1
 11
846225.2
 21
827472.0
 31
0.0
 73
2
  0
TEXT
  5
DB
  8
SPL_No_Exceedance
 10
846225.0
 20
827466.5
 30
0.0
 40
0.5
  1
64dB(A)
  7
LiberationSerif
 72
1
 11
846225.0
 21
827466.5
 31
0.0
 73
2
  0
TEXT
  5
DC
  8
SPL_No_Exceedance
 10
846224.0
 20
827463.7
 30
0.0
 40
0.5
  1
64dB(A)
  7
LiberationSerif
 72
1
 11
846224.0
 21
827463.7
 31
0.0
 73
2
  0
TEXT
  5
DD
  8
SPL_No_Exceedance
 10
846223.4
 20
827462.0
 30
0.0
 40
0.5
  1
65dB(A)
  7
LiberationSerif
 72
1
 11
846223.4
 21
827462.0
 31
0.0
 73
2
  0
TEXT
  5
DE
  8
SPL_No_Exceedance
 10
846222.6
 20
827459.7
 30
0.0
 40
0.5
  1
65dB(A)
  7
LiberationSerif
 72
1
 11
846222.6
 21
827459.7
 31
0.0
 73
2
  0
TEXT
  5
DF
  8
SPL_No_Exceedance
 10
846221.2
 20
827456.8
 30
0.0
 40
0.5
  1
65dB(A)
  7
LiberationSerif
 72
1
 11
846221.2
 21
827456.8
 31
0.0
 73
2
  0
TEXT
  5
E0
  8
SPL_No_Exceedance
 10
846220.2
 20
827453.8
 30
0.0
 40
0.5
  1
65dB(A)
  7
LiberationSerif
 72
1
 11
846220.2
 21
827453.8
 31
0.0
 73
2
  0
TEXT
  5
E1
  8
SPL_No_Exceedance
 10
846219.6
 20
827452.1
 30
0.0
 40
0.5
  1
66dB(A)
  7
LiberationSerif
 72
1
 11
846219.6
 21
827452.1
 31
0.0
 73
2
  0
TEXT
  5
E2
  8
SPL_No_Exceedance
 10
846218.9
 20
827450.0
 30
0.0
 40
0.5
  1
66dB(A)
  7
LiberationSerif
 72
1
 11
846218.9
 21
827450.0
 31
0.0
 73
2
  0
TEXT
  5
E3
  8
SPL_No_Exceedance
 10
846218.1
 20
827447.7
 30
0.0
 40
0.5
  1
67dB(A)
  7
LiberationSerif
 72
1
 11
846218.1
 21
827447.7
 31
0.0
 73
2
  0
TEXT
  5
E4
  8
SPL_No_Exceedance
 10
846160.4
 20
827465.3
 30
0.0
 40
0.5
  1
58dB(A)
  7
LiberationSerif
 72
1
 11
846160.4
 21
827465.3
 31
0.0
 73
2
  0
TEXT
  5
E5
  8
SPL_No_Exceedance
 10
846162.2
 20
827467.6
 30
0.0
 40
0.5
  1
57dB(A)
  7
LiberationSerif
 72
1
 11
846162.2
 21
827467.6
 31
0.0
 73
2
  0
TEXT
  5
E6
  8
SPL_No_Exceedance
 10
846162.8
 20
827469.5
 30
0.0
 40
0.5
  1
57dB(A)
  7
LiberationSerif
 72
1
 11
846162.8
 21
827469.5
 31
0.0
 73
2
  0
TEXT
  5
E7
  8
SPL_No_Exceedance
 10
846166.5
 20
827470.5
 30
0.0
 40
0.5
  1
57dB(A)
  7
LiberationSerif
 72
1
 11
846166.5
 21
827470.5
 31
0.0
 73
2
  0
TEXT
  5
E8
  8
SPL_No_Exceedance
 10
846168.7
 20
827471.5
 30
0.0
 40
0.5
  1
57dB(A)
  7
LiberationSerif
 72
1
 11
846168.7
 21
827471.5
 31
0.0
 73
2
  0
TEXT
  5
E9
  8
SPL_No_Exceedance
 10
846172.0
 20
827468.1
 30
0.0
 40
0.5
  1
48dB(A)
  7
LiberationSerif
 72
1
 11
846172.0
 21
827468.1
 31
0.0
 73
2
  0
TEXT
  5
EA
  8
SPL_No_Exceedance
 10
846174.6
 20
827467.3
 30
0.0
 40
0.5
  1
50dB(A)
  7
LiberationSerif
 72
1
 11
846174.6
 21
827467.3
 31
0.0
 73
2
  0
TEXT
  5
EB
  8
SPL_No_Exceedance
 10
846176.4
 20
827466.8
 30
0.0
 40
0.5
  1
53dB(A)
  7
LiberationSerif
 72
1
 11
846176.4
 21
827466.8
 31
0.0
 73
2
  0
TEXT
  5
EC
  8
SPL_No_Exceedance
 10
846178.7
 20
827466.2
 30
0.0
 40
0.5
  1
54dB(A)
  7
LiberationSerif
 72
1
 11
846178.7
 21
827466.2
 31
0.0
 73
2
  0
TEXT
  5
ED
  8
SPL_No_Exceedance
 10
846180.6
 20
827465.7
 30
0.0
 40
0.5
  1
54dB(A)
  7
LiberationSerif
 72
1
 11
846180.6
 21
827465.7
 31
0.0
 73
2
  0
TEXT
  5
EE
  8
SPL_No_Exceedance
 10
846183.2
 20
827464.9
 30
0.0
 40
0.5
  1
54dB(A)
  7
LiberationSerif
 72
1
 11
846183.2
 21
827464.9
 31
0.0
 73
2
  0
TEXT
  5
EF
  8
SPL_No_Exceedance
 10
846185.8
 20
827464.2
 30
0.0
 40
0.5
  1
54dB(A)
  7
LiberationSerif
 72
1
 11
846185.8
 21
827464.2
 31
0.0
 73
2
  0
TEXT
  5
F0
  8
SPL_No_Exceedance
 10
846188.5
 20
827463.5
 30
0.0
 40
0.5
  1
54dB(A)
  7
LiberationSerif
 72
1
 11
846188.5
 21
827463.5
 31
0.0
 73
2
  0
TEXT
  5
F1
  8
SPL_No_Exceedance
 10
846190.4
 20
827463.0
 30
0.0
 40
0.5
  1
54dB(A)
  7
LiberationSerif
 72
1
 11
846190.4
 21
827463.0
 31
0.0
 73
2
  0
TEXT
  5
F2
  8
SPL_No_Exceedance
 10
846192.4
 20
827460.7
 30
0.0
 40
0.5
  1
48dB(A)
  7
LiberationSerif
 72
1
 11
846192.4
 21
827460.7
 31
0.0
 73
2
  0
TEXT
  5
F3
  8
SPL_No_Exceedance
 10
846195.0
 20
827460.0
 30
0.0
 40
0.5
  1
53dB(A)
  7
LiberationSerif
 72
1
 11
846195.0
 21
827460.0
 31
0.0
 73
2
  0
TEXT
  5
F4
  8
SPL_No_Exceedance
 10
846196.9
 20
827459.4
 30
0.0
 40
0.5
  1
57dB(A)
  7
LiberationSerif
 72
1
 11
846196.9
 21
827459.4
 31
0.0
 73
2
  0
TEXT
  5
F5
  8
SPL_No_Exceedance
 10
846189.1
 20
827447.7
 30
0.0
 40
0.5
  1
66dB(A)
  7
LiberationSerif
 72
1
 11
846189.1
 21
827447.7
 31
0.0
 73
2
  0
TEXT
  5
F6
  8
SPL_No_Exceedance
 10
846186.4
 20
827446.5
 30
0.0
 40
0.5
  1
66dB(A)
  7
LiberationSerif
 72
1
 11
846186.4
 21
827446.5
 31
0.0
 73
2
  0
TEXT
  5
F7
  8
SPL_No_Exceedance
 10
846184.4
 20
827447.1
 30
0.0
 40
0.5
  1
66dB(A)
  7
LiberationSerif
 72
1
 11
846184.4
 21
827447.1
 31
0.0
 73
2
  0
TEXT
  5
F8
  8
SPL_No_Exceedance
 10
846181.8
 20
827447.8
 30
0.0
 40
0.5
  1
66dB(A)
  7
LiberationSerif
 72
1
 11
846181.8
 21
827447.8
 31
0.0
 73
2
  0
TEXT
  5
F9
  8
SPL_No_Exceedance
 10
846178.9
 20
827447.5
 30
0.0
 40
0.5
  1
66dB(A)
  7
LiberationSerif
 72
1
 11
846178.9
 21
827447.5
 31
0.0
 73
2
  0
TEXT
  5
FA
  8
SPL_No_Exceedance
 10
846176.2
 20
827448.2
 30
0.0
 40
0.5
  1
66dB(A)
  7
LiberationSerif
 72
1
 11
846176.2
 21
827448.2
 31
0.0
 73
2
  0
TEXT
  5
FB
  8
SPL_No_Exceedance
 10
846174.3
 20
827448.8
 30
0.0
 40
0.5
  1
65dB(A)
  7
LiberationSerif
 72
1
 11
846174.3
 21
827448.8
 31
0.0
 73
2
  0
TEXT
  5
FC
  8
SPL_No_Exceedance
 10
846172.1
 20
827449.4
 30
0.0
 40
0.5
  1
65dB(A)
  7
LiberationSerif
 72
1
 11
846172.1
 21
827449.4
 31
0.0
 73
2
  0
TEXT
  5
FD
  8
SPL_No_Exceedance
 10
846170.2
 20
827449.9
 30
0.0
 40
0.5
  1
65dB(A)
  7
LiberationSerif
 72
1
 11
846170.2
 21
827449.9
 31
0.0
 73
2
  0
TEXT
  5
FE
  8
SPL_No_Exceedance
 10
846167.6
 20
827450.6
 30
0.0
 40
0.5
  1
65dB(A)
  7
LiberationSerif
 72
1
 11
846167.6
 21
827450.6
 31
0.0
 73
2
  0
TEXT
  5
FF
  8
SPL_No_Exceedance
 10
846164.7
 20
827451.4
 30
0.0
 40
0.5
  1
64dB(A)
  7
LiberationSerif
 72
1
 11
846164.7
 21
827451.4
 31
0.0
 73
2
  0
TEXT
  5
100
  8
SPL_No_Exceedance
 10
846161.9
 20
827452.2
 30
0.0
 40
0.5
  1
64dB(A)
  7
LiberationSerif
 72
1
 11
846161.9
 21
827452.2
 31
0.0
 73
2
  0
TEXT
  5
101
  8
SPL_No_Exceedance
 10
846160.1
 20
827452.7
 30
0.0
 40
0.5
  1
64dB(A)
  7
LiberationSerif
 72
1
 11
846160.1
 21
827452.7
 31
0.0
 73
2
  0
TEXT
  5
102
  8
SPL_No_Exceedance
 10
846157.6
 20
827453.4
 30
0.0
 40
0.5
  1
64dB(A)
  7
LiberationSerif
 72
1
 11
846157.6
 21
827453.4
 31
0.0
 73
2
  0
TEXT
  5
103
  8
SPL_No_Exceedance
 10
846155.8
 20
827456.0
 30
0.0
 40
0.5
  1
58dB(A)
  7
LiberationSerif
 72
1
 11
846155.8
 21
827456.0
 31
0.0
 73
2
  0
TEXT
  5
104
  8
SPL_Between_70_and_76dB
 10
846294.7
 20
827430.5
 30
0.0
 40
0.5
  1
72dB(A)
  7
LiberationSerif
 72
1
 11
846294.7
 21
827430.5
 31
0.0
 73
2
  0
TEXT
  5
105
  8
SPL_Between_70_and_76dB
 10
846292.7
 20
827427.6
 30
0.0
 40
0.5
  1
73dB(A)
  7
LiberationSerif
 72
1
 11
846292.7
 21
827427.6
 31
0.0
 73
2
  0
TEXT
  5
106
  8
SPL_Between_70_and_76dB
 10
846290.5
 20
827426.3
 30
0.0
 40
0.5
  1
73dB(A)
  7
LiberationSerif
 72
1
 11
846290.5
 21
827426.3
 31
0.0
 73
2
  0
TEXT
  5
107
  8
SPL_Between_70_and_76dB
 10
846288.0
 20
827424.9
 30
0.0
 40
0.5
  1
73dB(A)
  7
LiberationSerif
 72
1
 11
846288.0
 21
827424.9
 31
0.0
 73
2
  0
TEXT
  5
108
  8
SPL_Between_70_and_76dB
 10
846284.7
 20
827425.1
 30
0.0
 40
0.5
  1
72dB(A)
  7
LiberationSerif
 72
1
 11
846284.7
 21
827425.1
 31
0.0
 73
2
  0
TEXT
  5
109
  8
SPL_No_Exceedance
 10
846284.5
 20
827433.3
 30
0.0
 40
0.5
  1
62dB(A)
  7
LiberationSerif
 72
1
 11
846284.5
 21
827433.3
 31
0.0
 73
2
  0
TEXT
  5
10A
  8
SPL_No_Exceedance
 10
846292.4
 20
827448.1
 30
0.0
 40
0.5
  1
62dB(A)
  7
LiberationSerif
 72
1
 11
846292.4
 21
827448.1
 31
0.0
 73
2
  0
TEXT
  5
10B
  8
SPL_No_Exceedance
 10
846294.1
 20
827450.4
 30
0.0
 40
0.5
  1
61dB(A)
  7
LiberationSerif
 72
1
 11
846294.1
 21
827450.4
 31
0.0
 73
2
  0
TEXT
  5
10C
  8
SPL_No_Exceedance
 10
846295.2
 20
827451.9
 30
0.0
 40
0.5
  1
61dB(A)
  7
LiberationSerif
 72
1
 11
846295.2
 21
827451.9
 31
0.0
 73
2
  0
TEXT
  5
10D
  8
SPL_No_Exceedance
 10
846296.7
 20
827453.9
 30
0.0
 40
0.5
  1
61dB(A)
  7
LiberationSerif
 72
1
 11
846296.7
 21
827453.9
 31
0.0
 73
2
  0
TEXT
  5
10E
  8
SPL_No_Exceedance
 10
846300.0
 20
827455.2
 30
0.0
 40
0.5
  1
56dB(A)
  7
LiberationSerif
 72
1
 11
846300.0
 21
827455.2
 31
0.0
 73
2
  0
TEXT
  5
10F
  8
SPL_No_Exceedance
 10
846301.7
 20
827457.5
 30
0.0
 40
0.5
  1
60dB(A)
  7
LiberationSerif
 72
1
 11
846301.7
 21
827457.5
 31
0.0
 73
2
  0
TEXT
  5
110
  8
SPL_No_Exceedance
 10
846302.8
 20
827459.0
 30
0.0
 40
0.5
  1
60dB(A)
  7
LiberationSerif
 72
1
 11
846302.8
 21
827459.0
 31
0.0
 73
2
  0
TEXT
  5
111
  8
SPL_No_Exceedance
 10
846304.2
 20
827460.9
 30
0.0
 40
0.5
  1
60dB(A)
  7
LiberationSerif
 72
1
 11
846304.2
 21
827460.9
 31
0.0
 73
2
  0
TEXT
  5
112
  8
SPL_Between_70_and_76dB
 10
846322.0
 20
827449.6
 30
0.0
 40
0.5
  1
71dB(A)
  7
LiberationSerif
 72
1
 11
846322.0
 21
827449.6
 31
0.0
 73
2
  0
TEXT
  5
113
  8
SPL_Between_70_and_76dB
 10
846320.6
 20
827446.6
 30
0.0
 40
0.5
  1
72dB(A)
  7
LiberationSerif
 72
1
 11
846320.6
 21
827446.6
 31
0.0
 73
2
  0
TEXT
  5
114
  8
SPL_Between_70_and_76dB
 10
846318.1
 20
827445.2
 30
0.0
 40
0.5
  1
72dB(A)
  7
LiberationSerif
 72
1
 11
846318.1
 21
827445.2
 31
0.0
 73
2
  0
TEXT
  5
115
  8
SPL_Between_70_and_76dB
 10
846316.3
 20
827444.1
 30
0.0
 40
0.5
  1
72dB(A)
  7
LiberationSerif
 72
1
 11
846316.3
 21
827444.1
 31
0.0
 73
2
  0
TEXT
  5
116
  8
SPL_Between_70_and_76dB
 10
846313.3
 20
827442.4
 30
0.0
 40
0.5
  1
72dB(A)
  7
LiberationSerif
 72
1
 11
846313.3
 21
827442.4
 31
0.0
 73
2
  0
TEXT
  5
117
  8
SPL_Between_70_and_76dB
 10
846310.1
 20
827440.6
 30
0.0
 40
0.5
  1
72dB(A)
  7
LiberationSerif
 72
1
 11
846310.1
 21
827440.6
 31
0.0
 73
2
  0
TEXT
  5
118
  8
SPL_Between_70_and_76dB
 10
846308.7
 20
827437.5
 30
0.0
 40
0.5
  1
73dB(A)
  7
LiberationSerif
 72
1
 11
846308.7
 21
827437.5
 31
0.0
 73
2
  0
TEXT
  5
119
  8
SPL_Between_70_and_76dB
 10
846306.6
 20
827436.3
 30
0.0
 40
0.5
  1
73dB(A)
  7
LiberationSerif
 72
1
 11
846306.6
 21
827436.3
 31
0.0
 73
2
  0
TEXT
  5
11A
  8
SPL_Between_70_and_76dB
 10
846304.7
 20
827435.2
 30
0.0
 40
0.5
  1
73dB(A)
  7
LiberationSerif
 72
1
 11
846304.7
 21
827435.2
 31
0.0
 73
2
  0
TEXT
  5
11B
  8
SPL_Between_70_and_76dB
 10
846301.1
 20
827434.9
 30
0.0
 40
0.5
  1
72dB(A)
  7
LiberationSerif
 72
1
 11
846301.1
 21
827434.9
 31
0.0
 73
2
  0
TEXT
  5
11C
  8
SPL_Between_70_and_76dB
 10
846297.5
 20
827432.8
 30
0.0
 40
0.5
  1
72dB(A)
  7
LiberationSerif
 72
1
 11
846297.5
 21
827432.8
 31
0.0
 73
2
  0
TEXT
  5
11D
  8
SPL_No_Exceedance
 10
846307.2
 20
827462.0
 30
0.0
 40
0.5
  1
56dB(A)
  7
LiberationSerif
 72
1
 11
846307.2
 21
827462.0
 31
0.0
 73
2
  0
TEXT
  5
11E
  8
SPL_No_Exceedance
 10
846308.6
 20
827464.0
 30
0.0
 40
0.5
  1
59dB(A)
  7
LiberationSerif
 72
1
 11
846308.6
 21
827464.0
 31
0.0
 73
2
  0
TEXT
  5
11F
  8
SPL_No_Exceedance
 10
846309.7
 20
827465.5
 30
0.0
 40
0.5
  1
60dB(A)
  7
LiberationSerif
 72
1
 11
846309.7
 21
827465.5
 31
0.0
 73
2
  0
TEXT
  5
120
  8
SPL_No_Exceedance
 10
846311.4
 20
827467.8
 30
0.0
 40
0.5
  1
60dB(A)
  7
LiberationSerif
 72
1
 11
846311.4
 21
827467.8
 31
0.0
 73
2
  0
TEXT
  5
121
  8
SPL_No_Exceedance
 10
846312.8
 20
827473.0
 30
0.0
 40
0.5
  1
60dB(A)
  7
LiberationSerif
 72
1
 11
846312.8
 21
827473.0
 31
0.0
 73
2
  0
TEXT
  5
122
  8
SPL_No_Exceedance
 10
846314.5
 20
827475.4
 30
0.0
 40
0.5
  1
60dB(A)
  7
LiberationSerif
 72
1
 11
846314.5
 21
827475.4
 31
0.0
 73
2
  0
TEXT
  5
123
  8
SPL_No_Exceedance
 10
846315.6
 20
827476.9
 30
0.0
 40
0.5
  1
60dB(A)
  7
LiberationSerif
 72
1
 11
846315.6
 21
827476.9
 31
0.0
 73
2
  0
TEXT
  5
124
  8
SPL_No_Exceedance
 10
846317.0
 20
827478.9
 30
0.0
 40
0.5
  1
60dB(A)
  7
LiberationSerif
 72
1
 11
846317.0
 21
827478.9
 31
0.0
 73
2
  0
TEXT
  5
125
  8
SPL_No_Exceedance
 10
846320.4
 20
827480.1
 30
0.0
 40
0.5
  1
57dB(A)
  7
LiberationSerif
 72
1
 11
846320.4
 21
827480.1
 31
0.0
 73
2
  0
TEXT
  5
126
  8
SPL_No_Exceedance
 10
846322.0
 20
827482.4
 30
0.0
 40
0.5
  1
59dB(A)
  7
LiberationSerif
 72
1
 11
846322.0
 21
827482.4
 31
0.0
 73
2
  0
TEXT
  5
127
  8
SPL_No_Exceedance
 10
846323.1
 20
827483.9
 30
0.0
 40
0.5
  1
60dB(A)
  7
LiberationSerif
 72
1
 11
846323.1
 21
827483.9
 31
0.0
 73
2
  0
TEXT
  5
128
  8
SPL_No_Exceedance
 10
846324.5
 20
827485.8
 30
0.0
 40
0.5
  1
60dB(A)
  7
LiberationSerif
 72
1
 11
846324.5
 21
827485.8
 31
0.0
 73
2
  0
TEXT
  5
129
  8
SPL_No_Exceedance
 10
846339.4
 20
827473.4
 30
0.0
 40
0.5
  1
69dB(A)
  7
LiberationSerif
 72
1
 11
846339.4
 21
827473.4
 31
0.0
 73
2
  0
TEXT
  5
12A
  8
SPL_No_Exceedance
 10
846337.7
 20
827471.2
 30
0.0
 40
0.5
  1
69dB(A)
  7
LiberationSerif
 72
1
 11
846337.7
 21
827471.2
 31
0.0
 73
2
  0
TEXT
  5
12B
  8
SPL_No_Exceedance
 10
846336.5
 20
827469.5
 30
0.0
 40
0.5
  1
69dB(A)
  7
LiberationSerif
 72
1
 11
846336.5
 21
827469.5
 31
0.0
 73
2
  0
TEXT
  5
12C
  8
SPL_No_Exceedance
 10
846334.4
 20
827466.6
 30
0.0
 40
0.5
  1
70dB(A)
  7
LiberationSerif
 72
1
 11
846334.4
 21
827466.6
 31
0.0
 73
2
  0
TEXT
  5
12D
  8
SPL_No_Exceedance
 10
846332.3
 20
827463.7
 30
0.0
 40
0.5
  1
70dB(A)
  7
LiberationSerif
 72
1
 11
846332.3
 21
827463.7
 31
0.0
 73
2
  0
TEXT
  5
12E
  8
SPL_No_Exceedance
 10
846330.6
 20
827461.4
 30
0.0
 40
0.5
  1
70dB(A)
  7
LiberationSerif
 72
1
 11
846330.6
 21
827461.4
 31
0.0
 73
2
  0
TEXT
  5
12F
  8
SPL_No_Exceedance
 10
846328.5
 20
827458.5
 30
0.0
 40
0.5
  1
70dB(A)
  7
LiberationSerif
 72
1
 11
846328.5
 21
827458.5
 31
0.0
 73
2
  0
TEXT
  5
130
  8
SPL_Between_70_and_76dB
 10
846326.4
 20
827455.6
 30
0.0
 40
0.5
  1
71dB(A)
  7
LiberationSerif
 72
1
 11
846326.4
 21
827455.6
 31
0.0
 73
2
  0
TEXT
  5
131
  8
SPL_Between_70_and_76dB
 10
846325.2
 20
827453.9
 30
0.0
 40
0.5
  1
71dB(A)
  7
LiberationSerif
 72
1
 11
846325.2
 21
827453.9
 31
0.0
 73
2
  0
TEXT
  5
132
  8
SPL_Between_70_and_76dB
 10
846323.5
 20
827451.6
 30
0.0
 40
0.5
  1
71dB(A)
  7
LiberationSerif
 72
1
 11
846323.5
 21
827451.6
 31
0.0
 73
2
  0
TEXT
  5
133
  8
SPL_No_Exceedance
 10
846320.4
 20
827450.5
 30
0.0
 40
0.5
  1
68dB(A)
  7
LiberationSerif
 72
1
 11
846320.4
 21
827450.5
 31
0.0
 73
2
  0
TEXT
  5
134
  8
SPL_No_Exceedance
 10
846326.1
 20
827488.0
 30
0.0
 40
0.5
  1
60dB(A)
  7
LiberationSerif
 72
1
 11
846326.1
 21
827488.0
 31
0.0
 73
2
  0
TEXT
  5
135
  8
SPL_No_Exceedance
 10
846327.5
 20
827489.9
 30
0.0
 40
0.5
  1
60dB(A)
  7
LiberationSerif
 72
1
 11
846327.5
 21
827489.9
 31
0.0
 73
2
  0
TEXT
  5
136
  8
SPL_No_Exceedance
 10
846328.6
 20
827491.4
 30
0.0
 40
0.5
  1
60dB(A)
  7
LiberationSerif
 72
1
 11
846328.6
 21
827491.4
 31
0.0
 73
2
  0
TEXT
  5
137
  8
SPL_No_Exceedance
 10
846330.3
 20
827493.8
 30
0.0
 40
0.5
  1
60dB(A)
  7
LiberationSerif
 72
1
 11
846330.3
 21
827493.8
 31
0.0
 73
2
  0
TEXT
  5
138
  8
SPL_No_Exceedance
 10
846331.6
 20
827499.0
 30
0.0
 40
0.5
  1
60dB(A)
  7
LiberationSerif
 72
1
 11
846331.6
 21
827499.0
 31
0.0
 73
2
  0
TEXT
  5
139
  8
SPL_No_Exceedance
 10
846333.4
 20
827501.3
 30
0.0
 40
0.5
  1
61dB(A)
  7
LiberationSerif
 72
1
 11
846333.4
 21
827501.3
 31
0.0
 73
2
  0
TEXT
  5
13A
  8
SPL_No_Exceedance
 10
846334.5
 20
827502.9
 30
0.0
 40
0.5
  1
61dB(A)
  7
LiberationSerif
 72
1
 11
846334.5
 21
827502.9
 31
0.0
 73
2
  0
TEXT
  5
13B
  8
SPL_No_Exceedance
 10
846335.9
 20
827504.9
 30
0.0
 40
0.5
  1
61dB(A)
  7
LiberationSerif
 72
1
 11
846335.9
 21
827504.9
 31
0.0
 73
2
  0
TEXT
  5
13C
  8
SPL_No_Exceedance
 10
846338.2
 20
827506.9
 30
0.0
 40
0.5
  1
61dB(A)
  7
LiberationSerif
 72
1
 11
846338.2
 21
827506.9
 31
0.0
 73
2
  0
TEXT
  5
13D
  8
SPL_No_Exceedance
 10
846339.9
 20
827509.2
 30
0.0
 40
0.5
  1
61dB(A)
  7
LiberationSerif
 72
1
 11
846339.9
 21
827509.2
 31
0.0
 73
2
  0
TEXT
  5
13E
  8
SPL_No_Exceedance
 10
846341.5
 20
827510.5
 30
0.0
 40
0.5
  1
62dB(A)
  7
LiberationSerif
 72
1
 11
846341.5
 21
827510.5
 31
0.0
 73
2
  0
TEXT
  5
13F
  8
SPL_No_Exceedance
 10
846345.7
 20
827512.4
 30
0.0
 40
0.5
  1
61dB(A)
  7
LiberationSerif
 72
1
 11
846345.7
 21
827512.4
 31
0.0
 73
2
  0
TEXT
  5
140
  8
SPL_No_Exceedance
 10
846351.0
 20
827513.6
 30
0.0
 40
0.5
  1
61dB(A)
  7
LiberationSerif
 72
1
 11
846351.0
 21
827513.6
 31
0.0
 73
2
  0
TEXT
  5
141
  8
SPL_No_Exceedance
 10
846355.6
 20
827514.6
 30
0.0
 40
0.5
  1
63dB(A)
  7
LiberationSerif
 72
1
 11
846355.6
 21
827514.6
 31
0.0
 73
2
  0
TEXT
  5
142
  8
SPL_No_Exceedance
 10
846358.1
 20
827512.5
 30
0.0
 40
0.5
  1
65dB(A)
  7
LiberationSerif
 72
1
 11
846358.1
 21
827512.5
 31
0.0
 73
2
  0
TEXT
  5
143
  8
SPL_No_Exceedance
 10
846358.7
 20
827509.7
 30
0.0
 40
0.5
  1
65dB(A)
  7
LiberationSerif
 72
1
 11
846358.7
 21
827509.7
 31
0.0
 73
2
  0
TEXT
  5
144
  8
SPL_No_Exceedance
 10
846359.6
 20
827505.5
 30
0.0
 40
0.5
  1
65dB(A)
  7
LiberationSerif
 72
1
 11
846359.6
 21
827505.5
 31
0.0
 73
2
  0
TEXT
  5
145
  8
SPL_No_Exceedance
 10
846360.3
 20
827502.6
 30
0.0
 40
0.5
  1
66dB(A)
  7
LiberationSerif
 72
1
 11
846360.3
 21
827502.6
 31
0.0
 73
2
  0
TEXT
  5
146
  8
SPL_No_Exceedance
 10
846358.9
 20
827499.5
 30
0.0
 40
0.5
  1
67dB(A)
  7
LiberationSerif
 72
1
 11
846358.9
 21
827499.5
 31
0.0
 73
2
  0
TEXT
  5
147
  8
SPL_No_Exceedance
 10
846357.0
 20
827497.7
 30
0.0
 40
0.5
  1
67dB(A)
  7
LiberationSerif
 72
1
 11
846357.0
 21
827497.7
 31
0.0
 73
2
  0
TEXT
  5
148
  8
SPL_No_Exceedance
 10
846355.3
 20
827495.4
 30
0.0
 40
0.5
  1
67dB(A)
  7
LiberationSerif
 72
1
 11
846355.3
 21
827495.4
 31
0.0
 73
2
  0
TEXT
  5
149
  8
SPL_No_Exceedance
 10
846354.1
 20
827493.7
 30
0.0
 40
0.5
  1
67dB(A)
  7
LiberationSerif
 72
1
 11
846354.1
 21
827493.7
 31
0.0
 73
2
  0
TEXT
  5
14A
  8
SPL_No_Exceedance
 10
846352.0
 20
827490.8
 30
0.0
 40
0.5
  1
67dB(A)
  7
LiberationSerif
 72
1
 11
846352.0
 21
827490.8
 31
0.0
 73
2
  0
TEXT
  5
14B
  8
SPL_No_Exceedance
 10
846349.9
 20
827487.9
 30
0.0
 40
0.5
  1
67dB(A)
  7
LiberationSerif
 72
1
 11
846349.9
 21
827487.9
 31
0.0
 73
2
  0
TEXT
  5
14C
  8
SPL_No_Exceedance
 10
846348.2
 20
827485.5
 30
0.0
 40
0.5
  1
68dB(A)
  7
LiberationSerif
 72
1
 11
846348.2
 21
827485.5
 31
0.0
 73
2
  0
TEXT
  5
14D
  8
SPL_No_Exceedance
 10
846346.1
 20
827482.7
 30
0.0
 40
0.5
  1
68dB(A)
  7
LiberationSerif
 72
1
 11
846346.1
 21
827482.7
 31
0.0
 73
2
  0
TEXT
  5
14E
  8
SPL_No_Exceedance
 10
846344.0
 20
827479.8
 30
0.0
 40
0.5
  1
68dB(A)
  7
LiberationSerif
 72
1
 11
846344.0
 21
827479.8
 31
0.0
 73
2
  0
TEXT
  5
14F
  8
SPL_No_Exceedance
 10
846342.8
 20
827478.2
 30
0.0
 40
0.5
  1
68dB(A)
  7
LiberationSerif
 72
1
 11
846342.8
 21
827478.2
 31
0.0
 73
2
  0
TEXT
  5
150
  8
SPL_No_Exceedance
 10
846341.2
 20
827475.9
 30
0.0
 40
0.5
  1
69dB(A)
  7
LiberationSerif
 72
1
 11
846341.2
 21
827475.9
 31
0.0
 73
2
  0
TEXT
  5
151
  8
SPL_No_Exceedance
 10
846150.7
 20
827568.8
 30
0.0
 40
0.5
  1
66dB(A)
  7
LiberationSerif
 72
1
 11
846150.7
 21
827568.8
 31
0.0
 73
2
  0
TEXT
  5
152
  8
SPL_No_Exceedance
 10
846150.6
 20
827571.2
 30
0.0
 40
0.5
  1
66dB(A)
  7
LiberationSerif
 72
1
 11
846150.6
 21
827571.2
 31
0.0
 73
2
  0
TEXT
  5
153
  8
SPL_No_Exceedance
 10
846150.5
 20
827573.4
 30
0.0
 40
0.5
  1
66dB(A)
  7
LiberationSerif
 72
1
 11
846150.5
 21
827573.4
 31
0.0
 73
2
  0
TEXT
  5
154
  8
SPL_No_Exceedance
 10
846150.5
 20
827575.3
 30
0.0
 40
0.5
  1
67dB(A)
  7
LiberationSerif
 72
1
 11
846150.5
 21
827575.3
 31
0.0
 73
2
  0
TEXT
  5
155
  8
SPL_No_Exceedance
 10
846150.3
 20
827578.4
 30
0.0
 40
0.5
  1
67dB(A)
  7
LiberationSerif
 72
1
 11
846150.3
 21
827578.4
 31
0.0
 73
2
  0
TEXT
  5
156
  8
SPL_No_Exceedance
 10
846152.2
 20
827584.0
 30
0.0
 40
0.5
  1
68dB(A)
  7
LiberationSerif
 72
1
 11
846152.2
 21
827584.0
 31
0.0
 73
2
  0
TEXT
  5
157
  8
SPL_No_Exceedance
 10
846153.2
 20
827586.0
 30
0.0
 40
0.5
  1
68dB(A)
  7
LiberationSerif
 72
1
 11
846153.2
 21
827586.0
 31
0.0
 73
2
  0
TEXT
  5
158
  8
SPL_No_Exceedance
 10
846154.3
 20
827588.2
 30
0.0
 40
0.5
  1
68dB(A)
  7
LiberationSerif
 72
1
 11
846154.3
 21
827588.2
 31
0.0
 73
2
  0
TEXT
  5
159
  8
SPL_No_Exceedance
 10
846155.5
 20
827590.7
 30
0.0
 40
0.5
  1
68dB(A)
  7
LiberationSerif
 72
1
 11
846155.5
 21
827590.7
 31
0.0
 73
2
  0
TEXT
  5
15A
  8
SPL_No_Exceedance
 10
846156.7
 20
827593.1
 30
0.0
 40
0.5
  1
68dB(A)
  7
LiberationSerif
 72
1
 11
846156.7
 21
827593.1
 31
0.0
 73
2
  0
TEXT
  5
15B
  8
SPL_No_Exceedance
 10
846157.6
 20
827594.9
 30
0.0
 40
0.5
  1
68dB(A)
  7
LiberationSerif
 72
1
 11
846157.6
 21
827594.9
 31
0.0
 73
2
  0
TEXT
  5
15C
  8
SPL_No_Exceedance
 10
846158.7
 20
827597.1
 30
0.0
 40
0.5
  1
68dB(A)
  7
LiberationSerif
 72
1
 11
846158.7
 21
827597.1
 31
0.0
 73
2
  0
TEXT
  5
15D
  8
SPL_No_Exceedance
 10
846159.8
 20
827599.2
 30
0.0
 40
0.5
  1
68dB(A)
  7
LiberationSerif
 72
1
 11
846159.8
 21
827599.2
 31
0.0
 73
2
  0
TEXT
  5
15E
  8
SPL_No_Exceedance
 10
846160.6
 20
827600.9
 30
0.0
 40
0.5
  1
68dB(A)
  7
LiberationSerif
 72
1
 11
846160.6
 21
827600.9
 31
0.0
 73
2
  0
TEXT
  5
15F
  8
SPL_No_Exceedance
 10
846161.9
 20
827603.5
 30
0.0
 40
0.5
  1
68dB(A)
  7
LiberationSerif
 72
1
 11
846161.9
 21
827603.5
 31
0.0
 73
2
  0
TEXT
  5
160
  8
SPL_No_Exceedance
 10
846163.3
 20
827606.4
 30
0.0
 40
0.5
  1
68dB(A)
  7
LiberationSerif
 72
1
 11
846163.3
 21
827606.4
 31
0.0
 73
2
  0
TEXT
  5
161
  8
SPL_No_Exceedance
 10
846164.6
 20
827609.0
 30
0.0
 40
0.5
  1
68dB(A)
  7
LiberationSerif
 72
1
 11
846164.6
 21
827609.0
 31
0.0
 73
2
  0
TEXT
  5
162
  8
SPL_No_Exceedance
 10
846165.5
 20
827610.7
 30
0.0
 40
0.5
  1
68dB(A)
  7
LiberationSerif
 72
1
 11
846165.5
 21
827610.7
 31
0.0
 73
2
  0
TEXT
  5
163
  8
SPL_No_Exceedance
 10
846166.6
 20
827613.0
 30
0.0
 40
0.5
  1
69dB(A)
  7
LiberationSerif
 72
1
 11
846166.6
 21
827613.0
 31
0.0
 73
2
  0
TEXT
  5
164
  8
SPL_No_Exceedance
 10
846169.4
 20
827614.4
 30
0.0
 40
0.5
  1
68dB(A)
  7
LiberationSerif
 72
1
 11
846169.4
 21
827614.4
 31
0.0
 73
2
  0
TEXT
  5
165
  8
SPL_No_Exceedance
 10
846180.9
 20
827598.6
 30
0.0
 40
0.5
  1
49dB(A)
  7
LiberationSerif
 72
1
 11
846180.9
 21
827598.6
 31
0.0
 73
2
  0
TEXT
  5
166
  8
SPL_No_Exceedance
 10
846179.8
 20
827596.4
 30
0.0
 40
0.5
  1
49dB(A)
  7
LiberationSerif
 72
1
 11
846179.8
 21
827596.4
 31
0.0
 73
2
  0
TEXT
  5
167
  8
SPL_No_Exceedance
 10
846179.0
 20
827594.7
 30
0.0
 40
0.5
  1
49dB(A)
  7
LiberationSerif
 72
1
 11
846179.0
 21
827594.7
 31
0.0
 73
2
  0
TEXT
  5
168
  8
SPL_No_Exceedance
 10
846177.7
 20
827592.2
 30
0.0
 40
0.5
  1
49dB(A)
  7
LiberationSerif
 72
1
 11
846177.7
 21
827592.2
 31
0.0
 73
2
  0
TEXT
  5
169
  8
SPL_No_Exceedance
 10
846175.8
 20
827589.7
 30
0.0
 40
0.5
  1
49dB(A)
  7
LiberationSerif
 72
1
 11
846175.8
 21
827589.7
 31
0.0
 73
2
  0
TEXT
  5
16A
  8
SPL_No_Exceedance
 10
846174.6
 20
827587.3
 30
0.0
 40
0.5
  1
49dB(A)
  7
LiberationSerif
 72
1
 11
846174.6
 21
827587.3
 31
0.0
 73
2
  0
TEXT
  5
16B
  8
SPL_No_Exceedance
 10
846173.8
 20
827585.5
 30
0.0
 40
0.5
  1
49dB(A)
  7
LiberationSerif
 72
1
 11
846173.8
 21
827585.5
 31
0.0
 73
2
  0
TEXT
  5
16C
  8
SPL_No_Exceedance
 10
846172.7
 20
827583.4
 30
0.0
 40
0.5
  1
49dB(A)
  7
LiberationSerif
 72
1
 11
846172.7
 21
827583.4
 31
0.0
 73
2
  0
TEXT
  5
16D
  8
SPL_No_Exceedance
 10
846171.9
 20
827581.7
 30
0.0
 40
0.5
  1
49dB(A)
  7
LiberationSerif
 72
1
 11
846171.9
 21
827581.7
 31
0.0
 73
2
  0
TEXT
  5
16E
  8
SPL_No_Exceedance
 10
846170.6
 20
827579.2
 30
0.0
 40
0.5
  1
49dB(A)
  7
LiberationSerif
 72
1
 11
846170.6
 21
827579.2
 31
0.0
 73
2
  0
TEXT
  5
16F
  8
SPL_No_Exceedance
 10
846170.8
 20
827572.7
 30
0.0
 40
0.5
  1
48dB(A)
  7
LiberationSerif
 72
1
 11
846170.8
 21
827572.7
 31
0.0
 73
2
  0
TEXT
  5
170
  8
SPL_No_Exceedance
 10
846168.4
 20
827570.8
 30
0.0
 40
0.5
  1
48dB(A)
  7
LiberationSerif
 72
1
 11
846168.4
 21
827570.8
 31
0.0
 73
2
  0
TEXT
  5
171
  8
SPL_No_Exceedance
 10
846165.8
 20
827570.7
 30
0.0
 40
0.5
  1
48dB(A)
  7
LiberationSerif
 72
1
 11
846165.8
 21
827570.7
 31
0.0
 73
2
  0
TEXT
  5
172
  8
SPL_No_Exceedance
 10
846164.0
 20
827570.6
 30
0.0
 40
0.5
  1
49dB(A)
  7
LiberationSerif
 72
1
 11
846164.0
 21
827570.6
 31
0.0
 73
2
  0
TEXT
  5
173
  8
SPL_No_Exceedance
 10
846161.1
 20
827570.5
 30
0.0
 40
0.5
  1
49dB(A)
  7
LiberationSerif
 72
1
 11
846161.1
 21
827570.5
 31
0.0
 73
2
  0
TEXT
  5
174
  8
SPL_No_Exceedance
 10
846171.4
 20
827615.0
 30
0.0
 40
0.5
  1
68dB(A)
  7
LiberationSerif
 72
1
 11
846171.4
 21
827615.0
 31
0.0
 73
2
  0
TEXT
  5
175
  8
SPL_No_Exceedance
 10
846173.6
 20
827616.1
 30
0.0
 40
0.5
  1
68dB(A)
  7
LiberationSerif
 72
1
 11
846173.6
 21
827616.1
 31
0.0
 73
2
  0
TEXT
  5
176
  8
SPL_No_Exceedance
 10
846175.5
 20
827617.1
 30
0.0
 40
0.5
  1
68dB(A)
  7
LiberationSerif
 72
1
 11
846175.5
 21
827617.1
 31
0.0
 73
2
  0
TEXT
  5
177
  8
SPL_No_Exceedance
 10
846177.1
 20
827618.0
 30
0.0
 40
0.5
  1
68dB(A)
  7
LiberationSerif
 72
1
 11
846177.1
 21
827618.0
 31
0.0
 73
2
  0
TEXT
  5
178
  8
SPL_No_Exceedance
 10
846180.0
 20
827619.4
 30
0.0
 40
0.5
  1
68dB(A)
  7
LiberationSerif
 72
1
 11
846180.0
 21
827619.4
 31
0.0
 73
2
  0
TEXT
  5
179
  8
SPL_No_Exceedance
 10
846182.9
 20
827620.9
 30
0.0
 40
0.5
  1
68dB(A)
  7
LiberationSerif
 72
1
 11
846182.9
 21
827620.9
 31
0.0
 73
2
  0
TEXT
  5
17A
  8
SPL_No_Exceedance
 10
846185.3
 20
827622.2
 30
0.0
 40
0.5
  1
68dB(A)
  7
LiberationSerif
 72
1
 11
846185.3
 21
827622.2
 31
0.0
 73
2
  0
TEXT
  5
17B
  8
SPL_No_Exceedance
 10
846187.0
 20
827623.1
 30
0.0
 40
0.5
  1
68dB(A)
  7
LiberationSerif
 72
1
 11
846187.0
 21
827623.1
 31
0.0
 73
2
  0
TEXT
  5
17C
  8
SPL_No_Exceedance
 10
846189.0
 20
827624.1
 30
0.0
 40
0.5
  1
68dB(A)
  7
LiberationSerif
 72
1
 11
846189.0
 21
827624.1
 31
0.0
 73
2
  0
TEXT
  5
17D
  8
SPL_No_Exceedance
 10
846190.7
 20
827625.0
 30
0.0
 40
0.5
  1
68dB(A)
  7
LiberationSerif
 72
1
 11
846190.7
 21
827625.0
 31
0.0
 73
2
  0
TEXT
  5
17E
  8
SPL_No_Exceedance
 10
846193.2
 20
827626.3
 30
0.0
 40
0.5
  1
68dB(A)
  7
LiberationSerif
 72
1
 11
846193.2
 21
827626.3
 31
0.0
 73
2
  0
TEXT
  5
17F
  8
SPL_No_Exceedance
 10
846196.1
 20
827627.8
 30
0.0
 40
0.5
  1
68dB(A)
  7
LiberationSerif
 72
1
 11
846196.1
 21
827627.8
 31
0.0
 73
2
  0
TEXT
  5
180
  8
SPL_No_Exceedance
 10
846198.8
 20
827629.2
 30
0.0
 40
0.5
  1
68dB(A)
  7
LiberationSerif
 72
1
 11
846198.8
 21
827629.2
 31
0.0
 73
2
  0
TEXT
  5
181
  8
SPL_No_Exceedance
 10
846200.5
 20
827630.1
 30
0.0
 40
0.5
  1
68dB(A)
  7
LiberationSerif
 72
1
 11
846200.5
 21
827630.1
 31
0.0
 73
2
  0
TEXT
  5
182
  8
SPL_No_Exceedance
 10
846203.2
 20
827631.5
 30
0.0
 40
0.5
  1
68dB(A)
  7
LiberationSerif
 72
1
 11
846203.2
 21
827631.5
 31
0.0
 73
2
  0
TEXT
  5
183
  8
SPL_No_Exceedance
 10
846206.6
 20
827631.2
 30
0.0
 40
0.5
  1
67dB(A)
  7
LiberationSerif
 72
1
 11
846206.6
 21
827631.2
 31
0.0
 73
2
  0
TEXT
  5
184
  8
SPL_No_Exceedance
 10
846209.9
 20
827616.5
 30
0.0
 40
0.5
  1
62dB(A)
  7
LiberationSerif
 72
1
 11
846209.9
 21
827616.5
 31
0.0
 73
2
  0
TEXT
  5
185
  8
SPL_No_Exceedance
 10
846208.5
 20
827613.6
 30
0.0
 40
0.5
  1
52dB(A)
  7
LiberationSerif
 72
1
 11
846208.5
 21
827613.6
 31
0.0
 73
2
  0
TEXT
  5
186
  8
SPL_No_Exceedance
 10
846206.3
 20
827612.5
 30
0.0
 40
0.5
  1
52dB(A)
  7
LiberationSerif
 72
1
 11
846206.3
 21
827612.5
 31
0.0
 73
2
  0
TEXT
  5
187
  8
SPL_No_Exceedance
 10
846204.6
 20
827611.6
 30
0.0
 40
0.5
  1
51dB(A)
  7
LiberationSerif
 72
1
 11
846204.6
 21
827611.6
 31
0.0
 73
2
  0
TEXT
  5
188
  8
SPL_No_Exceedance
 10
846202.0
 20
827610.3
 30
0.0
 40
0.5
  1
51dB(A)
  7
LiberationSerif
 72
1
 11
846202.0
 21
827610.3
 31
0.0
 73
2
  0
TEXT
  5
189
  8
SPL_No_Exceedance
 10
846200.0
 20
827607.8
 30
0.0
 40
0.5
  1
51dB(A)
  7
LiberationSerif
 72
1
 11
846200.0
 21
827607.8
 31
0.0
 73
2
  0
TEXT
  5
18A
  8
SPL_No_Exceedance
 10
846197.9
 20
827606.7
 30
0.0
 40
0.5
  1
51dB(A)
  7
LiberationSerif
 72
1
 11
846197.9
 21
827606.7
 31
0.0
 73
2
  0
TEXT
  5
18B
  8
SPL_No_Exceedance
 10
846196.2
 20
827605.9
 30
0.0
 40
0.5
  1
50dB(A)
  7
LiberationSerif
 72
1
 11
846196.2
 21
827605.9
 31
0.0
 73
2
  0
TEXT
  5
18C
  8
SPL_No_Exceedance
 10
846193.6
 20
827604.5
 30
0.0
 40
0.5
  1
50dB(A)
  7
LiberationSerif
 72
1
 11
846193.6
 21
827604.5
 31
0.0
 73
2
  0
TEXT
  5
18D
  8
SPL_No_Exceedance
 10
846188.6
 20
827603.3
 30
0.0
 40
0.5
  1
49dB(A)
  7
LiberationSerif
 72
1
 11
846188.6
 21
827603.3
 31
0.0
 73
2
  0
TEXT
  5
18E
  8
SPL_No_Exceedance
 10
846186.0
 20
827601.9
 30
0.0
 40
0.5
  1
49dB(A)
  7
LiberationSerif
 72
1
 11
846186.0
 21
827601.9
 31
0.0
 73
2
  0
TEXT
  5
18F
  8
SPL_No_Exceedance
 10
846184.4
 20
827601.1
 30
0.0
 40
0.5
  1
49dB(A)
  7
LiberationSerif
 72
1
 11
846184.4
 21
827601.1
 31
0.0
 73
2
  0
TEXT
  5
190
  8
SPL_No_Exceedance
 10
846182.3
 20
827600.0
 30
0.0
 40
0.5
  1
49dB(A)
  7
LiberationSerif
 72
1
 11
846182.3
 21
827600.0
 31
0.0
 73
2
  0
TEXT
  5
191
  8
SPL_No_Exceedance
 10
846215.3
 20
827636.0
 30
0.0
 40
0.5
  1
68dB(A)
  7
LiberationSerif
 72
1
 11
846215.3
 21
827636.0
 31
0.0
 73
2
  0
TEXT
  5
192
  8
SPL_No_Exceedance
 10
846217.5
 20
827638.2
 30
0.0
 40
0.5
  1
68dB(A)
  7
LiberationSerif
 72
1
 11
846217.5
 21
827638.2
 31
0.0
 73
2
  0
TEXT
  5
193
  8
SPL_No_Exceedance
 10
846220.1
 20
827638.6
 30
0.0
 40
0.5
  1
68dB(A)
  7
LiberationSerif
 72
1
 11
846220.1
 21
827638.6
 31
0.0
 73
2
  0
TEXT
  5
194
  8
SPL_No_Exceedance
 10
846222.2
 20
827638.9
 30
0.0
 40
0.5
  1
68dB(A)
  7
LiberationSerif
 72
1
 11
846222.2
 21
827638.9
 31
0.0
 73
2
  0
TEXT
  5
195
  8
SPL_No_Exceedance
 10
846224.1
 20
827639.1
 30
0.0
 40
0.5
  1
68dB(A)
  7
LiberationSerif
 72
1
 11
846224.1
 21
827639.1
 31
0.0
 73
2
  0
TEXT
  5
196
  8
SPL_No_Exceedance
 10
846227.2
 20
827639.6
 30
0.0
 40
0.5
  1
68dB(A)
  7
LiberationSerif
 72
1
 11
846227.2
 21
827639.6
 31
0.0
 73
2
  0
TEXT
  5
197
  8
SPL_No_Exceedance
 10
846230.4
 20
827640.0
 30
0.0
 40
0.5
  1
68dB(A)
  7
LiberationSerif
 72
1
 11
846230.4
 21
827640.0
 31
0.0
 73
2
  0
TEXT
  5
198
  8
SPL_No_Exceedance
 10
846233.1
 20
827640.4
 30
0.0
 40
0.5
  1
68dB(A)
  7
LiberationSerif
 72
1
 11
846233.1
 21
827640.4
 31
0.0
 73
2
  0
TEXT
  5
199
  8
SPL_No_Exceedance
 10
846235.0
 20
827640.7
 30
0.0
 40
0.5
  1
68dB(A)
  7
LiberationSerif
 72
1
 11
846235.0
 21
827640.7
 31
0.0
 73
2
  0
TEXT
  5
19A
  8
SPL_No_Exceedance
 10
846237.3
 20
827641.0
 30
0.0
 40
0.5
  1
68dB(A)
  7
LiberationSerif
 72
1
 11
846237.3
 21
827641.0
 31
0.0
 73
2
  0
TEXT
  5
19B
  8
SPL_No_Exceedance
 10
846239.2
 20
827641.3
 30
0.0
 40
0.5
  1
68dB(A)
  7
LiberationSerif
 72
1
 11
846239.2
 21
827641.3
 31
0.0
 73
2
  0
TEXT
  5
19C
  8
SPL_No_Exceedance
 10
846241.9
 20
827641.6
 30
0.0
 40
0.5
  1
68dB(A)
  7
LiberationSerif
 72
1
 11
846241.9
 21
827641.6
 31
0.0
 73
2
  0
TEXT
  5
19D
  8
SPL_No_Exceedance
 10
846245.2
 20
827642.1
 30
0.0
 40
0.5
  1
68dB(A)
  7
LiberationSerif
 72
1
 11
846245.2
 21
827642.1
 31
0.0
 73
2
  0
TEXT
  5
19E
  8
SPL_No_Exceedance
 10
846248.3
 20
827642.5
 30
0.0
 40
0.5
  1
68dB(A)
  7
LiberationSerif
 72
1
 11
846248.3
 21
827642.5
 31
0.0
 73
2
  0
TEXT
  5
19F
  8
SPL_No_Exceedance
 10
846250.2
 20
827642.8
 30
0.0
 40
0.5
  1
68dB(A)
  7
LiberationSerif
 72
1
 11
846250.2
 21
827642.8
 31
0.0
 73
2
  0
TEXT
  5
1A0
  8
SPL_No_Exceedance
 10
846252.3
 20
827643.1
 30
0.0
 40
0.5
  1
68dB(A)
  7
LiberationSerif
 72
1
 11
846252.3
 21
827643.1
 31
0.0
 73
2
  0
TEXT
  5
1A1
  8
SPL_No_Exceedance
 10
846254.8
 20
827643.4
 30
0.0
 40
0.5
  1
68dB(A)
  7
LiberationSerif
 72
1
 11
846254.8
 21
827643.4
 31
0.0
 73
2
  0
TEXT
  5
1A2
  8
SPL_No_Exceedance
 10
846257.5
 20
827642.2
 30
0.0
 40
0.5
  1
67dB(A)
  7
LiberationSerif
 72
1
 11
846257.5
 21
827642.2
 31
0.0
 73
2
  0
TEXT
  5
1A3
  8
SPL_No_Exceedance
 10
846252.1
 20
827624.6
 30
0.0
 40
0.5
  1
51dB(A)
  7
LiberationSerif
 72
1
 11
846252.1
 21
827624.6
 31
0.0
 73
2
  0
TEXT
  5
1A4
  8
SPL_No_Exceedance
 10
846249.7
 20
827624.3
 30
0.0
 40
0.5
  1
51dB(A)
  7
LiberationSerif
 72
1
 11
846249.7
 21
827624.3
 31
0.0
 73
2
  0
TEXT
  5
1A5
  8
SPL_No_Exceedance
 10
846247.8
 20
827624.0
 30
0.0
 40
0.5
  1
50dB(A)
  7
LiberationSerif
 72
1
 11
846247.8
 21
827624.0
 31
0.0
 73
2
  0
TEXT
  5
1A6
  8
SPL_No_Exceedance
 10
846244.9
 20
827623.6
 30
0.0
 40
0.5
  1
50dB(A)
  7
LiberationSerif
 72
1
 11
846244.9
 21
827623.6
 31
0.0
 73
2
  0
TEXT
  5
1A7
  8
SPL_No_Exceedance
 10
846242.2
 20
827622.0
 30
0.0
 40
0.5
  1
50dB(A)
  7
LiberationSerif
 72
1
 11
846242.2
 21
827622.0
 31
0.0
 73
2
  0
TEXT
  5
1A8
  8
SPL_No_Exceedance
 10
846239.8
 20
827621.6
 30
0.0
 40
0.5
  1
50dB(A)
  7
LiberationSerif
 72
1
 11
846239.8
 21
827621.6
 31
0.0
 73
2
  0
TEXT
  5
1A9
  8
SPL_No_Exceedance
 10
846238.0
 20
827621.4
 30
0.0
 40
0.5
  1
50dB(A)
  7
LiberationSerif
 72
1
 11
846238.0
 21
827621.4
 31
0.0
 73
2
  0
TEXT
  5
1AA
  8
SPL_No_Exceedance
 10
846235.1
 20
827621.0
 30
0.0
 40
0.5
  1
50dB(A)
  7
LiberationSerif
 72
1
 11
846235.1
 21
827621.0
 31
0.0
 73
2
  0
TEXT
  5
1AB
  8
SPL_No_Exceedance
 10
846229.8
 20
827621.2
 30
0.0
 40
0.5
  1
50dB(A)
  7
LiberationSerif
 72
1
 11
846229.8
 21
827621.2
 31
0.0
 73
2
  0
TEXT
  5
1AC
  8
SPL_No_Exceedance
 10
846226.6
 20
827620.7
 30
0.0
 40
0.5
  1
51dB(A)
  7
LiberationSerif
 72
1
 11
846226.6
 21
827620.7
 31
0.0
 73
2
  0
TEXT
  5
1AD
  8
SPL_No_Exceedance
 10
846224.8
 20
827620.5
 30
0.0
 40
0.5
  1
51dB(A)
  7
LiberationSerif
 72
1
 11
846224.8
 21
827620.5
 31
0.0
 73
2
  0
TEXT
  5
1AE
  8
SPL_No_Exceedance
 10
846222.7
 20
827620.2
 30
0.0
 40
0.5
  1
51dB(A)
  7
LiberationSerif
 72
1
 11
846222.7
 21
827620.2
 31
0.0
 73
2
  0
TEXT
  5
1AF
  8
SPL_No_Exceedance
 10
846220.1
 20
827619.8
 30
0.0
 40
0.5
  1
51dB(A)
  7
LiberationSerif
 72
1
 11
846220.1
 21
827619.8
 31
0.0
 73
2
  0
TEXT
  5
1B0
  8
SPL_No_Exceedance
 10
846217.4
 20
827621.3
 30
0.0
 40
0.5
  1
61dB(A)
  7
LiberationSerif
 72
1
 11
846217.4
 21
827621.3
 31
0.0
 73
2
  0
TEXT
  5
1B1
  8
SPL_No_Exceedance
 10
846256.7
 20
827641.3
 30
0.0
 40
0.5
  1
63dB(A)
  7
LiberationSerif
 72
1
 11
846256.7
 21
827641.3
 31
0.0
 73
2
  0
TEXT
  5
1B2
  8
SPL_No_Exceedance
 10
846259.6
 20
827642.2
 30
0.0
 40
0.5
  1
67dB(A)
  7
LiberationSerif
 72
1
 11
846259.6
 21
827642.2
 31
0.0
 73
2
  0
TEXT
  5
1B3
  8
SPL_No_Exceedance
 10
846262.0
 20
827641.3
 30
0.0
 40
0.5
  1
67dB(A)
  7
LiberationSerif
 72
1
 11
846262.0
 21
827641.3
 31
0.0
 73
2
  0
TEXT
  5
1B4
  8
SPL_No_Exceedance
 10
846264.1
 20
827640.5
 30
0.0
 40
0.5
  1
67dB(A)
  7
LiberationSerif
 72
1
 11
846264.1
 21
827640.5
 31
0.0
 73
2
  0
TEXT
  5
1B5
  8
SPL_No_Exceedance
 10
846265.8
 20
827639.8
 30
0.0
 40
0.5
  1
67dB(A)
  7
LiberationSerif
 72
1
 11
846265.8
 21
827639.8
 31
0.0
 73
2
  0
TEXT
  5
1B6
  8
SPL_No_Exceedance
 10
846268.7
 20
827638.7
 30
0.0
 40
0.5
  1
67dB(A)
  7
LiberationSerif
 72
1
 11
846268.7
 21
827638.7
 31
0.0
 73
2
  0
TEXT
  5
1B7
  8
SPL_No_Exceedance
 10
846271.8
 20
827637.5
 30
0.0
 40
0.5
  1
66dB(A)
  7
LiberationSerif
 72
1
 11
846271.8
 21
827637.5
 31
0.0
 73
2
  0
TEXT
  5
1B8
  8
SPL_No_Exceedance
 10
846274.3
 20
827636.5
 30
0.0
 40
0.5
  1
67dB(A)
  7
LiberationSerif
 72
1
 11
846274.3
 21
827636.5
 31
0.0
 73
2
  0
TEXT
  5
1B9
  8
SPL_No_Exceedance
 10
846276.1
 20
827635.8
 30
0.0
 40
0.5
  1
67dB(A)
  7
LiberationSerif
 72
1
 11
846276.1
 21
827635.8
 31
0.0
 73
2
  0
TEXT
  5
1BA
  8
SPL_No_Exceedance
 10
846278.3
 20
827634.9
 30
0.0
 40
0.5
  1
67dB(A)
  7
LiberationSerif
 72
1
 11
846278.3
 21
827634.9
 31
0.0
 73
2
  0
TEXT
  5
1BB
  8
SPL_No_Exceedance
 10
846280.1
 20
827634.3
 30
0.0
 40
0.5
  1
67dB(A)
  7
LiberationSerif
 72
1
 11
846280.1
 21
827634.3
 31
0.0
 73
2
  0
TEXT
  5
1BC
  8
SPL_No_Exceedance
 10
846282.6
 20
827633.3
 30
0.0
 40
0.5
  1
67dB(A)
  7
LiberationSerif
 72
1
 11
846282.6
 21
827633.3
 31
0.0
 73
2
  0
TEXT
  5
1BD
  8
SPL_No_Exceedance
 10
846285.7
 20
827632.1
 30
0.0
 40
0.5
  1
67dB(A)
  7
LiberationSerif
 72
1
 11
846285.7
 21
827632.1
 31
0.0
 73
2
  0
TEXT
  5
1BE
  8
SPL_No_Exceedance
 10
846288.6
 20
827630.9
 30
0.0
 40
0.5
  1
67dB(A)
  7
LiberationSerif
 72
1
 11
846288.6
 21
827630.9
 31
0.0
 73
2
  0
TEXT
  5
1BF
  8
SPL_No_Exceedance
 10
846290.4
 20
827630.3
 30
0.0
 40
0.5
  1
67dB(A)
  7
LiberationSerif
 72
1
 11
846290.4
 21
827630.3
 31
0.0
 73
2
  0
TEXT
  5
1C0
  8
SPL_No_Exceedance
 10
846292.4
 20
827629.5
 30
0.0
 40
0.5
  1
67dB(A)
  7
LiberationSerif
 72
1
 11
846292.4
 21
827629.5
 31
0.0
 73
2
  0
TEXT
  5
1C1
  8
SPL_No_Exceedance
 10
846294.8
 20
827628.6
 30
0.0
 40
0.5
  1
67dB(A)
  7
LiberationSerif
 72
1
 11
846294.8
 21
827628.6
 31
0.0
 73
2
  0
TEXT
  5
1C2
  8
SPL_No_Exceedance
 10
846296.5
 20
827626.2
 30
0.0
 40
0.5
  1
65dB(A)
  7
LiberationSerif
 72
1
 11
846296.5
 21
827626.2
 31
0.0
 73
2
  0
TEXT
  5
1C3
  8
SPL_No_Exceedance
 10
846284.3
 20
827613.0
 30
0.0
 40
0.5
  1
53dB(A)
  7
LiberationSerif
 72
1
 11
846284.3
 21
827613.0
 31
0.0
 73
2
  0
TEXT
  5
1C4
  8
SPL_No_Exceedance
 10
846282.1
 20
827613.9
 30
0.0
 40
0.5
  1
53dB(A)
  7
LiberationSerif
 72
1
 11
846282.1
 21
827613.9
 31
0.0
 73
2
  0
TEXT
  5
1C5
  8
SPL_No_Exceedance
 10
846280.3
 20
827614.5
 30
0.0
 40
0.5
  1
53dB(A)
  7
LiberationSerif
 72
1
 11
846280.3
 21
827614.5
 31
0.0
 73
2
  0
TEXT
  5
1C6
  8
SPL_No_Exceedance
 10
846277.6
 20
827615.6
 30
0.0
 40
0.5
  1
53dB(A)
  7
LiberationSerif
 72
1
 11
846277.6
 21
827615.6
 31
0.0
 73
2
  0
TEXT
  5
1C7
  8
SPL_No_Exceedance
 10
846274.4
 20
827615.5
 30
0.0
 40
0.5
  1
52dB(A)
  7
LiberationSerif
 72
1
 11
846274.4
 21
827615.5
 31
0.0
 73
2
  0
TEXT
  5
1C8
  8
SPL_No_Exceedance
 10
846272.2
 20
827616.4
 30
0.0
 40
0.5
  1
52dB(A)
  7
LiberationSerif
 72
1
 11
846272.2
 21
827616.4
 31
0.0
 73
2
  0
TEXT
  5
1C9
  8
SPL_No_Exceedance
 10
846270.4
 20
827617.1
 30
0.0
 40
0.5
  1
52dB(A)
  7
LiberationSerif
 72
1
 11
846270.4
 21
827617.1
 31
0.0
 73
2
  0
TEXT
  5
1CA
  8
SPL_No_Exceedance
 10
846267.7
 20
827618.1
 30
0.0
 40
0.5
  1
52dB(A)
  7
LiberationSerif
 72
1
 11
846267.7
 21
827618.1
 31
0.0
 73
2
  0
TEXT
  5
1CB
  8
SPL_No_Exceedance
 10
846263.2
 20
827620.9
 30
0.0
 40
0.5
  1
51dB(A)
  7
LiberationSerif
 72
1
 11
846263.2
 21
827620.9
 31
0.0
 73
2
  0
TEXT
  5
1CC
  8
SPL_No_Exceedance
 10
846260.2
 20
827622.0
 30
0.0
 40
0.5
  1
51dB(A)
  7
LiberationSerif
 72
1
 11
846260.2
 21
827622.0
 31
0.0
 73
2
  0
TEXT
  5
1CD
  8
SPL_No_Exceedance
 10
846258.5
 20
827622.7
 30
0.0
 40
0.5
  1
51dB(A)
  7
LiberationSerif
 72
1
 11
846258.5
 21
827622.7
 31
0.0
 73
2
  0
TEXT
  5
1CE
  8
SPL_No_Exceedance
 10
846256.5
 20
827623.5
 30
0.0
 40
0.5
  1
51dB(A)
  7
LiberationSerif
 72
1
 11
846256.5
 21
827623.5
 31
0.0
 73
2
  0
TEXT
  5
1CF
  8
SPL_No_Exceedance
 10
846254.2
 20
827624.3
 30
0.0
 40
0.5
  1
51dB(A)
  7
LiberationSerif
 72
1
 11
846254.2
 21
827624.3
 31
0.0
 73
2
  0
TEXT
  5
1D0
  8
SPL_No_Exceedance
 10
846295.4
 20
827626.3
 30
0.0
 40
0.5
  1
41dB(A)
  7
LiberationSerif
 72
1
 11
846295.4
 21
827626.3
 31
0.0
 73
2
  0
TEXT
  5
1D1
  8
SPL_No_Exceedance
 10
846298.8
 20
827625.7
 30
0.0
 40
0.5
  1
67dB(A)
  7
LiberationSerif
 72
1
 11
846298.8
 21
827625.7
 31
0.0
 73
2
  0
TEXT
  5
1D2
  8
SPL_No_Exceedance
 10
846301.0
 20
827623.6
 30
0.0
 40
0.5
  1
67dB(A)
  7
LiberationSerif
 72
1
 11
846301.0
 21
827623.6
 31
0.0
 73
2
  0
TEXT
  5
1D3
  8
SPL_No_Exceedance
 10
846302.3
 20
827622.3
 30
0.0
 40
0.5
  1
67dB(A)
  7
LiberationSerif
 72
1
 11
846302.3
 21
827622.3
 31
0.0
 73
2
  0
TEXT
  5
1D4
  8
SPL_No_Exceedance
 10
846304.6
 20
827620.1
 30
0.0
 40
0.5
  1
67dB(A)
  7
LiberationSerif
 72
1
 11
846304.6
 21
827620.1
 31
0.0
 73
2
  0
TEXT
  5
1D5
  8
SPL_No_Exceedance
 10
846307.0
 20
827617.8
 30
0.0
 40
0.5
  1
67dB(A)
  7
LiberationSerif
 72
1
 11
846307.0
 21
827617.8
 31
0.0
 73
2
  0
TEXT
  5
1D6
  8
SPL_No_Exceedance
 10
846308.9
 20
827616.0
 30
0.0
 40
0.5
  1
67dB(A)
  7
LiberationSerif
 72
1
 11
846308.9
 21
827616.0
 31
0.0
 73
2
  0
TEXT
  5
1D7
  8
SPL_No_Exceedance
 10
846310.3
 20
827614.6
 30
0.0
 40
0.5
  1
66dB(A)
  7
LiberationSerif
 72
1
 11
846310.3
 21
827614.6
 31
0.0
 73
2
  0
TEXT
  5
1D8
  8
SPL_No_Exceedance
 10
846313.8
 20
827612.0
 30
0.0
 40
0.5
  1
67dB(A)
  7
LiberationSerif
 72
1
 11
846313.8
 21
827612.0
 31
0.0
 73
2
  0
TEXT
  5
1D9
  8
SPL_No_Exceedance
 10
846314.6
 20
827610.3
 30
0.0
 40
0.5
  1
67dB(A)
  7
LiberationSerif
 72
1
 11
846314.6
 21
827610.3
 31
0.0
 73
2
  0
TEXT
  5
1DA
  8
SPL_No_Exceedance
 10
846315.8
 20
827607.8
 30
0.0
 40
0.5
  1
66dB(A)
  7
LiberationSerif
 72
1
 11
846315.8
 21
827607.8
 31
0.0
 73
2
  0
TEXT
  5
1DB
  8
SPL_No_Exceedance
 10
846317.3
 20
827604.9
 30
0.0
 40
0.5
  1
66dB(A)
  7
LiberationSerif
 72
1
 11
846317.3
 21
827604.9
 31
0.0
 73
2
  0
TEXT
  5
1DC
  8
SPL_No_Exceedance
 10
846318.7
 20
827602.1
 30
0.0
 40
0.5
  1
65dB(A)
  7
LiberationSerif
 72
1
 11
846318.7
 21
827602.1
 31
0.0
 73
2
  0
TEXT
  5
1DD
  8
SPL_No_Exceedance
 10
846319.5
 20
827600.4
 30
0.0
 40
0.5
  1
65dB(A)
  7
LiberationSerif
 72
1
 11
846319.5
 21
827600.4
 31
0.0
 73
2
  0
TEXT
  5
1DE
  8
SPL_No_Exceedance
 10
846320.5
 20
827598.4
 30
0.0
 40
0.5
  1
65dB(A)
  7
LiberationSerif
 72
1
 11
846320.5
 21
827598.4
 31
0.0
 73
2
  0
TEXT
  5
1DF
  8
SPL_No_Exceedance
 10
846319.2
 20
827595.6
 30
0.0
 40
0.5
  1
62dB(A)
  7
LiberationSerif
 72
1
 11
846319.2
 21
827595.6
 31
0.0
 73
2
  0
TEXT
  5
1E0
  8
SPL_No_Exceedance
 10
846317.1
 20
827592.6
 30
0.0
 40
0.5
  1
61dB(A)
  7
LiberationSerif
 72
1
 11
846317.1
 21
827592.6
 31
0.0
 73
2
  0
TEXT
  5
1E1
  8
SPL_No_Exceedance
 10
846311.9
 20
827591.2
 30
0.0
 40
0.5
  1
60dB(A)
  7
LiberationSerif
 72
1
 11
846311.9
 21
827591.2
 31
0.0
 73
2
  0
TEXT
  5
1E2
  8
SPL_No_Exceedance
 10
846309.3
 20
827589.9
 30
0.0
 40
0.5
  1
59dB(A)
  7
LiberationSerif
 72
1
 11
846309.3
 21
827589.9
 31
0.0
 73
2
  0
TEXT
  5
1E3
  8
SPL_No_Exceedance
 10
846307.5
 20
827589.1
 30
0.0
 40
0.5
  1
59dB(A)
  7
LiberationSerif
 72
1
 11
846307.5
 21
827589.1
 31
0.0
 73
2
  0
TEXT
  5
1E4
  8
SPL_No_Exceedance
 10
846304.2
 20
827590.9
 30
0.0
 40
0.5
  1
56dB(A)
  7
LiberationSerif
 72
1
 11
846304.2
 21
827590.9
 31
0.0
 73
2
  0
TEXT
  5
1E5
  8
SPL_No_Exceedance
 10
846298.9
 20
827598.5
 30
0.0
 40
0.5
  1
53dB(A)
  7
LiberationSerif
 72
1
 11
846298.9
 21
827598.5
 31
0.0
 73
2
  0
TEXT
  5
1E6
  8
SPL_No_Exceedance
 10
846296.8
 20
827600.5
 30
0.0
 40
0.5
  1
51dB(A)
  7
LiberationSerif
 72
1
 11
846296.8
 21
827600.5
 31
0.0
 73
2
  0
TEXT
  5
1E7
  8
SPL_No_Exceedance
 10
846295.5
 20
827601.8
 30
0.0
 40
0.5
  1
48dB(A)
  7
LiberationSerif
 72
1
 11
846295.5
 21
827601.8
 31
0.0
 73
2
  0
TEXT
  5
1E8
  8
SPL_No_Exceedance
 10
846293.8
 20
827603.4
 30
0.0
 40
0.5
  1
46dB(A)
  7
LiberationSerif
 72
1
 11
846293.8
 21
827603.4
 31
0.0
 73
2
  0
TEXT
  5
1E9
  8
SPL_No_Exceedance
 10
846292.5
 20
827606.4
 30
0.0
 40
0.5
  1
45dB(A)
  7
LiberationSerif
 72
1
 11
846292.5
 21
827606.4
 31
0.0
 73
2
  0
TEXT
  5
1EA
  8
SPL_No_Exceedance
 10
846290.4
 20
827608.4
 30
0.0
 40
0.5
  1
46dB(A)
  7
LiberationSerif
 72
1
 11
846290.4
 21
827608.4
 31
0.0
 73
2
  0
TEXT
  5
1EB
  8
SPL_No_Exceedance
 10
846289.0
 20
827609.7
 30
0.0
 40
0.5
  1
46dB(A)
  7
LiberationSerif
 72
1
 11
846289.0
 21
827609.7
 31
0.0
 73
2
  0
TEXT
  5
1EC
  8
SPL_No_Exceedance
 10
846287.3
 20
827611.4
 30
0.0
 40
0.5
  1
46dB(A)
  7
LiberationSerif
 72
1
 11
846287.3
 21
827611.4
 31
0.0
 73
2
  0
TEXT
  5
1ED
  8
SPL_No_Exceedance
 10
846232.3
 20
827528.4
 30
0.0
 40
0.5
  1
59dB(A)
  7
LiberationSerif
 72
1
 11
846232.3
 21
827528.4
 31
0.0
 73
2
  0
TEXT
  5
1EE
  8
SPL_No_Exceedance
 10
846231.5
 20
827531.4
 30
0.0
 40
0.5
  1
56dB(A)
  7
LiberationSerif
 72
1
 11
846231.5
 21
827531.4
 31
0.0
 73
2
  0
TEXT
  5
1EF
  8
SPL_No_Exceedance
 10
846232.5
 20
827533.8
 30
0.0
 40
0.5
  1
51dB(A)
  7
LiberationSerif
 72
1
 11
846232.5
 21
827533.8
 31
0.0
 73
2
  0
TEXT
  5
1F0
  8
SPL_No_Exceedance
 10
846233.2
 20
827535.5
 30
0.0
 40
0.5
  1
51dB(A)
  7
LiberationSerif
 72
1
 11
846233.2
 21
827535.5
 31
0.0
 73
2
  0
TEXT
  5
1F1
  8
SPL_No_Exceedance
 10
846234.3
 20
827538.2
 30
0.0
 40
0.5
  1
51dB(A)
  7
LiberationSerif
 72
1
 11
846234.3
 21
827538.2
 31
0.0
 73
2
  0
TEXT
  5
1F2
  8
SPL_No_Exceedance
 10
846236.1
 20
827542.6
 30
0.0
 40
0.5
  1
51dB(A)
  7
LiberationSerif
 72
1
 11
846236.1
 21
827542.6
 31
0.0
 73
2
  0
TEXT
  5
1F3
  8
SPL_No_Exceedance
 10
846237.6
 20
827546.2
 30
0.0
 40
0.5
  1
51dB(A)
  7
LiberationSerif
 72
1
 11
846237.6
 21
827546.2
 31
0.0
 73
2
  0
TEXT
  5
1F4
  8
SPL_No_Exceedance
 10
846238.8
 20
827549.1
 30
0.0
 40
0.5
  1
51dB(A)
  7
LiberationSerif
 72
1
 11
846238.8
 21
827549.1
 31
0.0
 73
2
  0
TEXT
  5
1F5
  8
SPL_No_Exceedance
 10
846239.5
 20
827550.9
 30
0.0
 40
0.5
  1
51dB(A)
  7
LiberationSerif
 72
1
 11
846239.5
 21
827550.9
 31
0.0
 73
2
  0
TEXT
  5
1F6
  8
SPL_No_Exceedance
 10
846240.6
 20
827553.4
 30
0.0
 40
0.5
  1
51dB(A)
  7
LiberationSerif
 72
1
 11
846240.6
 21
827553.4
 31
0.0
 73
2
  0
TEXT
  5
1F7
  8
SPL_No_Exceedance
 10
846241.6
 20
827555.8
 30
0.0
 40
0.5
  1
51dB(A)
  7
LiberationSerif
 72
1
 11
846241.6
 21
827555.8
 31
0.0
 73
2
  0
TEXT
  5
1F8
  8
SPL_No_Exceedance
 10
846242.5
 20
827557.9
 30
0.0
 40
0.5
  1
51dB(A)
  7
LiberationSerif
 72
1
 11
846242.5
 21
827557.9
 31
0.0
 73
2
  0
TEXT
  5
1F9
  8
SPL_No_Exceedance
 10
846243.2
 20
827559.6
 30
0.0
 40
0.5
  1
51dB(A)
  7
LiberationSerif
 72
1
 11
846243.2
 21
827559.6
 31
0.0
 73
2
  0
TEXT
  5
1FA
  8
SPL_No_Exceedance
 10
846244.3
 20
827562.2
 30
0.0
 40
0.5
  1
51dB(A)
  7
LiberationSerif
 72
1
 11
846244.3
 21
827562.2
 31
0.0
 73
2
  0
TEXT
  5
1FB
  8
SPL_No_Exceedance
 10
846245.4
 20
827564.9
 30
0.0
 40
0.5
  1
51dB(A)
  7
LiberationSerif
 72
1
 11
846245.4
 21
827564.9
 31
0.0
 73
2
  0
TEXT
  5
1FC
  8
SPL_No_Exceedance
 10
846246.5
 20
827567.5
 30
0.0
 40
0.5
  1
50dB(A)
  7
LiberationSerif
 72
1
 11
846246.5
 21
827567.5
 31
0.0
 73
2
  0
TEXT
  5
1FD
  8
SPL_No_Exceedance
 10
846247.2
 20
827569.2
 30
0.0
 40
0.5
  1
50dB(A)
  7
LiberationSerif
 72
1
 11
846247.2
 21
827569.2
 31
0.0
 73
2
  0
TEXT
  5
1FE
  8
SPL_No_Exceedance
 10
846248.1
 20
827571.4
 30
0.0
 40
0.5
  1
50dB(A)
  7
LiberationSerif
 72
1
 11
846248.1
 21
827571.4
 31
0.0
 73
2
  0
TEXT
  5
1FF
  8
SPL_No_Exceedance
 10
846250.8
 20
827572.9
 30
0.0
 40
0.5
  1
49dB(A)
  7
LiberationSerif
 72
1
 11
846250.8
 21
827572.9
 31
0.0
 73
2
  0
TEXT
  5
200
  8
SPL_No_Exceedance
 10
846252.0
 20
827574.4
 30
0.0
 40
0.5
  1
49dB(A)
  7
LiberationSerif
 72
1
 11
846252.0
 21
827574.4
 31
0.0
 73
2
  0
TEXT
  5
201
  8
SPL_No_Exceedance
 10
846253.8
 20
827575.9
 30
0.0
 40
0.5
  1
49dB(A)
  7
LiberationSerif
 72
1
 11
846253.8
 21
827575.9
 31
0.0
 73
2
  0
TEXT
  5
202
  8
SPL_No_Exceedance
 10
846255.2
 20
827577.0
 30
0.0
 40
0.5
  1
48dB(A)
  7
LiberationSerif
 72
1
 11
846255.2
 21
827577.0
 31
0.0
 73
2
  0
TEXT
  5
203
  8
SPL_No_Exceedance
 10
846257.5
 20
827578.8
 30
0.0
 40
0.5
  1
47dB(A)
  7
LiberationSerif
 72
1
 11
846257.5
 21
827578.8
 31
0.0
 73
2
  0
TEXT
  5
204
  8
SPL_No_Exceedance
 10
846259.7
 20
827580.7
 30
0.0
 40
0.5
  1
47dB(A)
  7
LiberationSerif
 72
1
 11
846259.7
 21
827580.7
 31
0.0
 73
2
  0
TEXT
  5
205
  8
SPL_No_Exceedance
 10
846261.9
 20
827582.5
 30
0.0
 40
0.5
  1
45dB(A)
  7
LiberationSerif
 72
1
 11
846261.9
 21
827582.5
 31
0.0
 73
2
  0
TEXT
  5
206
  8
SPL_No_Exceedance
 10
846263.3
 20
827583.6
 30
0.0
 40
0.5
  1
45dB(A)
  7
LiberationSerif
 72
1
 11
846263.3
 21
827583.6
 31
0.0
 73
2
  0
TEXT
  5
207
  8
SPL_No_Exceedance
 10
846265.1
 20
827585.1
 30
0.0
 40
0.5
  1
45dB(A)
  7
LiberationSerif
 72
1
 11
846265.1
 21
827585.1
 31
0.0
 73
2
  0
TEXT
  5
208
  8
SPL_No_Exceedance
 10
846267.1
 20
827586.7
 30
0.0
 40
0.5
  1
44dB(A)
  7
LiberationSerif
 72
1
 11
846267.1
 21
827586.7
 31
0.0
 73
2
  0
TEXT
  5
209
  8
SPL_No_Exceedance
 10
846268.9
 20
827588.2
 30
0.0
 40
0.5
  1
44dB(A)
  7
LiberationSerif
 72
1
 11
846268.9
 21
827588.2
 31
0.0
 73
2
  0
TEXT
  5
20A
  8
SPL_No_Exceedance
 10
846270.4
 20
827589.4
 30
0.0
 40
0.5
  1
44dB(A)
  7
LiberationSerif
 72
1
 11
846270.4
 21
827589.4
 31
0.0
 73
2
  0
TEXT
  5
20B
  8
SPL_No_Exceedance
 10
846272.6
 20
827591.2
 30
0.0
 40
0.5
  1
44dB(A)
  7
LiberationSerif
 72
1
 11
846272.6
 21
827591.2
 31
0.0
 73
2
  0
TEXT
  5
20C
  8
SPL_No_Exceedance
 10
846275.7
 20
827592.6
 30
0.0
 40
0.5
  1
44dB(A)
  7
LiberationSerif
 72
1
 11
846275.7
 21
827592.6
 31
0.0
 73
2
  0
TEXT
  5
20D
  8
SPL_No_Exceedance
 10
846278.0
 20
827594.5
 30
0.0
 40
0.5
  1
44dB(A)
  7
LiberationSerif
 72
1
 11
846278.0
 21
827594.5
 31
0.0
 73
2
  0
TEXT
  5
20E
  8
SPL_No_Exceedance
 10
846279.8
 20
827596.0
 30
0.0
 40
0.5
  1
44dB(A)
  7
LiberationSerif
 72
1
 11
846279.8
 21
827596.0
 31
0.0
 73
2
  0
TEXT
  5
20F
  8
SPL_No_Exceedance
 10
846283.1
 20
827596.2
 30
0.0
 40
0.5
  1
52dB(A)
  7
LiberationSerif
 72
1
 11
846283.1
 21
827596.2
 31
0.0
 73
2
  0
TEXT
  5
210
  8
SPL_No_Exceedance
 10
846294.0
 20
827585.8
 30
0.0
 40
0.5
  1
56dB(A)
  7
LiberationSerif
 72
1
 11
846294.0
 21
827585.8
 31
0.0
 73
2
  0
TEXT
  5
211
  8
SPL_No_Exceedance
 10
846293.3
 20
827582.7
 30
0.0
 40
0.5
  1
58dB(A)
  7
LiberationSerif
 72
1
 11
846293.3
 21
827582.7
 31
0.0
 73
2
  0
TEXT
  5
212
  8
SPL_No_Exceedance
 10
846291.3
 20
827581.1
 30
0.0
 40
0.5
  1
58dB(A)
  7
LiberationSerif
 72
1
 11
846291.3
 21
827581.1
 31
0.0
 73
2
  0
TEXT
  5
213
  8
SPL_No_Exceedance
 10
846289.9
 20
827579.9
 30
0.0
 40
0.5
  1
58dB(A)
  7
LiberationSerif
 72
1
 11
846289.9
 21
827579.9
 31
0.0
 73
2
  0
TEXT
  5
214
  8
SPL_No_Exceedance
 10
846287.6
 20
827578.1
 30
0.0
 40
0.5
  1
58dB(A)
  7
LiberationSerif
 72
1
 11
846287.6
 21
827578.1
 31
0.0
 73
2
  0
TEXT
  5
215
  8
SPL_No_Exceedance
 10
846285.6
 20
827575.4
 30
0.0
 40
0.5
  1
58dB(A)
  7
LiberationSerif
 72
1
 11
846285.6
 21
827575.4
 31
0.0
 73
2
  0
TEXT
  5
216
  8
SPL_No_Exceedance
 10
846283.4
 20
827573.6
 30
0.0
 40
0.5
  1
58dB(A)
  7
LiberationSerif
 72
1
 11
846283.4
 21
827573.6
 31
0.0
 73
2
  0
TEXT
  5
217
  8
SPL_No_Exceedance
 10
846281.9
 20
827572.4
 30
0.0
 40
0.5
  1
58dB(A)
  7
LiberationSerif
 72
1
 11
846281.9
 21
827572.4
 31
0.0
 73
2
  0
TEXT
  5
218
  8
SPL_No_Exceedance
 10
846280.1
 20
827570.9
 30
0.0
 40
0.5
  1
58dB(A)
  7
LiberationSerif
 72
1
 11
846280.1
 21
827570.9
 31
0.0
 73
2
  0
TEXT
  5
219
  8
SPL_No_Exceedance
 10
846278.0
 20
827569.2
 30
0.0
 40
0.5
  1
58dB(A)
  7
LiberationSerif
 72
1
 11
846278.0
 21
827569.2
 31
0.0
 73
2
  0
TEXT
  5
21A
  8
SPL_No_Exceedance
 10
846276.2
 20
827567.7
 30
0.0
 40
0.5
  1
58dB(A)
  7
LiberationSerif
 72
1
 11
846276.2
 21
827567.7
 31
0.0
 73
2
  0
TEXT
  5
21B
  8
SPL_No_Exceedance
 10
846274.7
 20
827566.5
 30
0.0
 40
0.5
  1
58dB(A)
  7
LiberationSerif
 72
1
 11
846274.7
 21
827566.5
 31
0.0
 73
2
  0
TEXT
  5
21C
  8
SPL_No_Exceedance
 10
846272.5
 20
827564.7
 30
0.0
 40
0.5
  1
58dB(A)
  7
LiberationSerif
 72
1
 11
846272.5
 21
827564.7
 31
0.0
 73
2
  0
TEXT
  5
21D
  8
SPL_No_Exceedance
 10
846269.9
 20
827562.6
 30
0.0
 40
0.5
  1
58dB(A)
  7
LiberationSerif
 72
1
 11
846269.9
 21
827562.6
 31
0.0
 73
2
  0
TEXT
  5
21E
  8
SPL_No_Exceedance
 10
846267.7
 20
827560.8
 30
0.0
 40
0.5
  1
58dB(A)
  7
LiberationSerif
 72
1
 11
846267.7
 21
827560.8
 31
0.0
 73
2
  0
TEXT
  5
21F
  8
SPL_No_Exceedance
 10
846266.3
 20
827559.6
 30
0.0
 40
0.5
  1
58dB(A)
  7
LiberationSerif
 72
1
 11
846266.3
 21
827559.6
 31
0.0
 73
2
  0
TEXT
  5
220
  8
SPL_No_Exceedance
 10
846264.4
 20
827558.1
 30
0.0
 40
0.5
  1
58dB(A)
  7
LiberationSerif
 72
1
 11
846264.4
 21
827558.1
 31
0.0
 73
2
  0
TEXT
  5
221
  8
SPL_No_Exceedance
 10
846263.1
 20
827556.3
 30
0.0
 40
0.5
  1
58dB(A)
  7
LiberationSerif
 72
1
 11
846263.1
 21
827556.3
 31
0.0
 73
2
  0
TEXT
  5
222
  8
SPL_No_Exceedance
 10
846262.2
 20
827554.1
 30
0.0
 40
0.5
  1
58dB(A)
  7
LiberationSerif
 72
1
 11
846262.2
 21
827554.1
 31
0.0
 73
2
  0
TEXT
  5
223
  8
SPL_No_Exceedance
 10
846261.4
 20
827552.4
 30
0.0
 40
0.5
  1
58dB(A)
  7
LiberationSerif
 72
1
 11
846261.4
 21
827552.4
 31
0.0
 73
2
  0
TEXT
  5
224
  8
SPL_No_Exceedance
 10
846260.3
 20
827549.7
 30
0.0
 40
0.5
  1
58dB(A)
  7
LiberationSerif
 72
1
 11
846260.3
 21
827549.7
 31
0.0
 73
2
  0
TEXT
  5
225
  8
SPL_No_Exceedance
 10
846259.0
 20
827546.7
 30
0.0
 40
0.5
  1
58dB(A)
  7
LiberationSerif
 72
1
 11
846259.0
 21
827546.7
 31
0.0
 73
2
  0
TEXT
  5
226
  8
SPL_No_Exceedance
 10
846257.9
 20
827544.0
 30
0.0
 40
0.5
  1
59dB(A)
  7
LiberationSerif
 72
1
 11
846257.9
 21
827544.0
 31
0.0
 73
2
  0
TEXT
  5
227
  8
SPL_No_Exceedance
 10
846257.2
 20
827542.3
 30
0.0
 40
0.5
  1
59dB(A)
  7
LiberationSerif
 72
1
 11
846257.2
 21
827542.3
 31
0.0
 73
2
  0
TEXT
  5
228
  8
SPL_No_Exceedance
 10
846256.3
 20
827540.1
 30
0.0
 40
0.5
  1
59dB(A)
  7
LiberationSerif
 72
1
 11
846256.3
 21
827540.1
 31
0.0
 73
2
  0
TEXT
  5
229
  8
SPL_No_Exceedance
 10
846255.2
 20
827537.6
 30
0.0
 40
0.5
  1
59dB(A)
  7
LiberationSerif
 72
1
 11
846255.2
 21
827537.6
 31
0.0
 73
2
  0
TEXT
  5
22A
  8
SPL_No_Exceedance
 10
846254.3
 20
827535.4
 30
0.0
 40
0.5
  1
59dB(A)
  7
LiberationSerif
 72
1
 11
846254.3
 21
827535.4
 31
0.0
 73
2
  0
TEXT
  5
22B
  8
SPL_No_Exceedance
 10
846253.6
 20
827533.7
 30
0.0
 40
0.5
  1
59dB(A)
  7
LiberationSerif
 72
1
 11
846253.6
 21
827533.7
 31
0.0
 73
2
  0
TEXT
  5
22C
  8
SPL_No_Exceedance
 10
846252.4
 20
827530.9
 30
0.0
 40
0.5
  1
58dB(A)
  7
LiberationSerif
 72
1
 11
846252.4
 21
827530.9
 31
0.0
 73
2
  0
TEXT
  5
22D
  8
SPL_No_Exceedance
 10
846250.8
 20
827521.9
 30
0.0
 40
0.5
  1
60dB(A)
  7
LiberationSerif
 72
1
 11
846250.8
 21
827521.9
 31
0.0
 73
2
  0
TEXT
  5
22E
  8
SPL_No_Exceedance
 10
846247.8
 20
827521.1
 30
0.0
 40
0.5
  1
60dB(A)
  7
LiberationSerif
 72
1
 11
846247.8
 21
827521.1
 31
0.0
 73
2
  0
TEXT
  5
22F
  8
SPL_No_Exceedance
 10
846245.4
 20
827522.1
 30
0.0
 40
0.5
  1
60dB(A)
  7
LiberationSerif
 72
1
 11
846245.4
 21
827522.1
 31
0.0
 73
2
  0
TEXT
  5
230
  8
SPL_No_Exceedance
 10
846243.4
 20
827523.0
 30
0.0
 40
0.5
  1
60dB(A)
  7
LiberationSerif
 72
1
 11
846243.4
 21
827523.0
 31
0.0
 73
2
  0
TEXT
  5
231
  8
SPL_No_Exceedance
 10
846241.7
 20
827523.7
 30
0.0
 40
0.5
  1
60dB(A)
  7
LiberationSerif
 72
1
 11
846241.7
 21
827523.7
 31
0.0
 73
2
  0
TEXT
  5
232
  8
SPL_No_Exceedance
 10
846238.7
 20
827525.0
 30
0.0
 40
0.5
  1
59dB(A)
  7
LiberationSerif
 72
1
 11
846238.7
 21
827525.0
 31
0.0
 73
2
  0
TEXT
  5
233
  8
SPL_No_Exceedance
 10
846182.4
 20
827572.7
 30
0.0
 40
0.5
  1
43dB(A)
  7
LiberationSerif
 72
1
 11
846182.4
 21
827572.7
 31
0.0
 73
2
  0
TEXT
  5
234
  8
SPL_No_Exceedance
 10
846185.5
 20
827573.1
 30
0.0
 40
0.5
  1
44dB(A)
  7
LiberationSerif
 72
1
 11
846185.5
 21
827573.1
 31
0.0
 73
2
  0
TEXT
  5
235
  8
SPL_No_Exceedance
 10
846187.8
 20
827571.9
 30
0.0
 40
0.5
  1
44dB(A)
  7
LiberationSerif
 72
1
 11
846187.8
 21
827571.9
 31
0.0
 73
2
  0
TEXT
  5
236
  8
SPL_No_Exceedance
 10
846189.4
 20
827571.0
 30
0.0
 40
0.5
  1
44dB(A)
  7
LiberationSerif
 72
1
 11
846189.4
 21
827571.0
 31
0.0
 73
2
  0
TEXT
  5
237
  8
SPL_No_Exceedance
 10
846192.0
 20
827569.5
 30
0.0
 40
0.5
  1
44dB(A)
  7
LiberationSerif
 72
1
 11
846192.0
 21
827569.5
 31
0.0
 73
2
  0
TEXT
  5
238
  8
SPL_No_Exceedance
 10
846196.1
 20
827567.2
 30
0.0
 40
0.5
  1
47dB(A)
  7
LiberationSerif
 72
1
 11
846196.1
 21
827567.2
 31
0.0
 73
2
  0
TEXT
  5
239
  8
SPL_No_Exceedance
 10
846198.7
 20
827565.8
 30
0.0
 40
0.5
  1
49dB(A)
  7
LiberationSerif
 72
1
 11
846198.7
 21
827565.8
 31
0.0
 73
2
  0
TEXT
  5
23A
  8
SPL_No_Exceedance
 10
846200.2
 20
827564.9
 30
0.0
 40
0.5
  1
51dB(A)
  7
LiberationSerif
 72
1
 11
846200.2
 21
827564.9
 31
0.0
 73
2
  0
TEXT
  5
23B
  8
SPL_No_Exceedance
 10
846202.1
 20
827563.8
 30
0.0
 40
0.5
  1
52dB(A)
  7
LiberationSerif
 72
1
 11
846202.1
 21
827563.8
 31
0.0
 73
2
  0
TEXT
  5
23C
  8
SPL_No_Exceedance
 10
846204.3
 20
827562.6
 30
0.0
 40
0.5
  1
54dB(A)
  7
LiberationSerif
 72
1
 11
846204.3
 21
827562.6
 31
0.0
 73
2
  0
TEXT
  5
23D
  8
SPL_No_Exceedance
 10
846206.0
 20
827561.7
 30
0.0
 40
0.5
  1
56dB(A)
  7
LiberationSerif
 72
1
 11
846206.0
 21
827561.7
 31
0.0
 73
2
  0
TEXT
  5
23E
  8
SPL_No_Exceedance
 10
846208.3
 20
827560.4
 30
0.0
 40
0.5
  1
55dB(A)
  7
LiberationSerif
 72
1
 11
846208.3
 21
827560.4
 31
0.0
 73
2
  0
TEXT
  5
23F
  8
SPL_No_Exceedance
 10
846210.9
 20
827558.9
 30
0.0
 40
0.5
  1
55dB(A)
  7
LiberationSerif
 72
1
 11
846210.9
 21
827558.9
 31
0.0
 73
2
  0
TEXT
  5
240
  8
SPL_No_Exceedance
 10
846213.5
 20
827557.5
 30
0.0
 40
0.5
  1
53dB(A)
  7
LiberationSerif
 72
1
 11
846213.5
 21
827557.5
 31
0.0
 73
2
  0
TEXT
  5
241
  8
SPL_No_Exceedance
 10
846215.1
 20
827556.6
 30
0.0
 40
0.5
  1
52dB(A)
  7
LiberationSerif
 72
1
 11
846215.1
 21
827556.6
 31
0.0
 73
2
  0
TEXT
  5
242
  8
SPL_No_Exceedance
 10
846217.4
 20
827555.3
 30
0.0
 40
0.5
  1
52dB(A)
  7
LiberationSerif
 72
1
 11
846217.4
 21
827555.3
 31
0.0
 73
2
  0
TEXT
  5
243
  8
SPL_No_Exceedance
 10
846218.6
 20
827552.5
 30
0.0
 40
0.5
  1
56dB(A)
  7
LiberationSerif
 72
1
 11
846218.6
 21
827552.5
 31
0.0
 73
2
  0
TEXT
  5
244
  8
SPL_No_Exceedance
 10
846215.7
 20
827537.8
 30
0.0
 40
0.5
  1
55dB(A)
  7
LiberationSerif
 72
1
 11
846215.7
 21
827537.8
 31
0.0
 73
2
  0
TEXT
  5
245
  8
SPL_No_Exceedance
 10
846212.6
 20
827537.3
 30
0.0
 40
0.5
  1
56dB(A)
  7
LiberationSerif
 72
1
 11
846212.6
 21
827537.3
 31
0.0
 73
2
  0
TEXT
  5
246
  8
SPL_No_Exceedance
 10
846210.4
 20
827538.6
 30
0.0
 40
0.5
  1
56dB(A)
  7
LiberationSerif
 72
1
 11
846210.4
 21
827538.6
 31
0.0
 73
2
  0
TEXT
  5
247
  8
SPL_No_Exceedance
 10
846208.8
 20
827539.5
 30
0.0
 40
0.5
  1
56dB(A)
  7
LiberationSerif
 72
1
 11
846208.8
 21
827539.5
 31
0.0
 73
2
  0
TEXT
  5
248
  8
SPL_No_Exceedance
 10
846206.2
 20
827540.9
 30
0.0
 40
0.5
  1
55dB(A)
  7
LiberationSerif
 72
1
 11
846206.2
 21
827540.9
 31
0.0
 73
2
  0
TEXT
  5
249
  8
SPL_No_Exceedance
 10
846202.1
 20
827543.3
 30
0.0
 40
0.5
  1
55dB(A)
  7
LiberationSerif
 72
1
 11
846202.1
 21
827543.3
 31
0.0
 73
2
  0
TEXT
  5
24A
  8
SPL_No_Exceedance
 10
846199.5
 20
827544.7
 30
0.0
 40
0.5
  1
55dB(A)
  7
LiberationSerif
 72
1
 11
846199.5
 21
827544.7
 31
0.0
 73
2
  0
TEXT
  5
24B
  8
SPL_No_Exceedance
 10
846197.9
 20
827545.5
 30
0.0
 40
0.5
  1
55dB(A)
  7
LiberationSerif
 72
1
 11
846197.9
 21
827545.5
 31
0.0
 73
2
  0
TEXT
  5
24C
  8
SPL_No_Exceedance
 10
846195.9
 20
827546.7
 30
0.0
 40
0.5
  1
55dB(A)
  7
LiberationSerif
 72
1
 11
846195.9
 21
827546.7
 31
0.0
 73
2
  0
TEXT
  5
24D
  8
SPL_No_Exceedance
 10
846193.8
 20
827547.9
 30
0.0
 40
0.5
  1
55dB(A)
  7
LiberationSerif
 72
1
 11
846193.8
 21
827547.9
 31
0.0
 73
2
  0
TEXT
  5
24E
  8
SPL_No_Exceedance
 10
846191.8
 20
827549.0
 30
0.0
 40
0.5
  1
56dB(A)
  7
LiberationSerif
 72
1
 11
846191.8
 21
827549.0
 31
0.0
 73
2
  0
TEXT
  5
24F
  8
SPL_No_Exceedance
 10
846190.2
 20
827549.9
 30
0.0
 40
0.5
  1
56dB(A)
  7
LiberationSerif
 72
1
 11
846190.2
 21
827549.9
 31
0.0
 73
2
  0
TEXT
  5
250
  8
SPL_No_Exceedance
 10
846187.7
 20
827551.3
 30
0.0
 40
0.5
  1
56dB(A)
  7
LiberationSerif
 72
1
 11
846187.7
 21
827551.3
 31
0.0
 73
2
  0
TEXT
  5
251
  8
SPL_No_Exceedance
 10
846183.5
 20
827553.6
 30
0.0
 40
0.5
  1
56dB(A)
  7
LiberationSerif
 72
1
 11
846183.5
 21
827553.6
 31
0.0
 73
2
  0
TEXT
  5
252
  8
SPL_No_Exceedance
 10
846181.0
 20
827555.0
 30
0.0
 40
0.5
  1
56dB(A)
  7
LiberationSerif
 72
1
 11
846181.0
 21
827555.0
 31
0.0
 73
2
  0
TEXT
  5
253
  8
SPL_No_Exceedance
 10
846179.3
 20
827555.9
 30
0.0
 40
0.5
  1
56dB(A)
  7
LiberationSerif
 72
1
 11
846179.3
 21
827555.9
 31
0.0
 73
2
  0
TEXT
  5
254
  8
SPL_No_Exceedance
 10
846177.1
 20
827557.2
 30
0.0
 40
0.5
  1
57dB(A)
  7
LiberationSerif
 72
1
 11
846177.1
 21
827557.2
 31
0.0
 73
2
  0
TEXT
  5
255
  8
SPL_No_Exceedance
 10
846175.9
 20
827560.0
 30
0.0
 40
0.5
  1
56dB(A)
  7
LiberationSerif
 72
1
 11
846175.9
 21
827560.0
 31
0.0
 73
2
  0
TEXT
  5
256
  8
SPL_No_Exceedance
 10
846164.2
 20
827485.8
 30
0.0
 40
0.5
  1
52dB(A)
  7
LiberationSerif
 72
1
 11
846164.2
 21
827485.8
 31
0.0
 73
2
  0
TEXT
  5
257
  8
SPL_No_Exceedance
 10
846160.5
 20
827485.9
 30
0.0
 40
0.5
  1
58dB(A)
  7
LiberationSerif
 72
1
 11
846160.5
 21
827485.9
 31
0.0
 73
2
  0
TEXT
  5
258
  8
SPL_No_Exceedance
 10
846157.2
 20
827487.5
 30
0.0
 40
0.5
  1
58dB(A)
  7
LiberationSerif
 72
1
 11
846157.2
 21
827487.5
 31
0.0
 73
2
  0
TEXT
  5
259
  8
SPL_No_Exceedance
 10
846156.2
 20
827489.2
 30
0.0
 40
0.5
  1
58dB(A)
  7
LiberationSerif
 72
1
 11
846156.2
 21
827489.2
 31
0.0
 73
2
  0
TEXT
  5
25A
  8
SPL_No_Exceedance
 10
846154.7
 20
827492.0
 30
0.0
 40
0.5
  1
60dB(A)
  7
LiberationSerif
 72
1
 11
846154.7
 21
827492.0
 31
0.0
 73
2
  0
TEXT
  5
25B
  8
SPL_No_Exceedance
 10
846155.3
 20
827500.2
 30
0.0
 40
0.5
  1
59dB(A)
  7
LiberationSerif
 72
1
 11
846155.3
 21
827500.2
 31
0.0
 73
2
  0
TEXT
  5
25C
  8
SPL_No_Exceedance
 10
846159.1
 20
827502.3
 30
0.0
 40
0.5
  1
58dB(A)
  7
LiberationSerif
 72
1
 11
846159.1
 21
827502.3
 31
0.0
 73
2
  0
TEXT
  5
25D
  8
SPL_No_Exceedance
 10
846160.8
 20
827503.2
 30
0.0
 40
0.5
  1
58dB(A)
  7
LiberationSerif
 72
1
 11
846160.8
 21
827503.2
 31
0.0
 73
2
  0
TEXT
  5
25E
  8
SPL_No_Exceedance
 10
846163.2
 20
827504.6
 30
0.0
 40
0.5
  1
58dB(A)
  7
LiberationSerif
 72
1
 11
846163.2
 21
827504.6
 31
0.0
 73
2
  0
TEXT
  5
25F
  8
SPL_No_Exceedance
 10
846165.6
 20
827505.9
 30
0.0
 40
0.5
  1
58dB(A)
  7
LiberationSerif
 72
1
 11
846165.6
 21
827505.9
 31
0.0
 73
2
  0
TEXT
  5
260
  8
SPL_No_Exceedance
 10
846168.0
 20
827507.2
 30
0.0
 40
0.5
  1
57dB(A)
  7
LiberationSerif
 72
1
 11
846168.0
 21
827507.2
 31
0.0
 73
2
  0
TEXT
  5
261
  8
SPL_No_Exceedance
 10
846169.7
 20
827508.1
 30
0.0
 40
0.5
  1
57dB(A)
  7
LiberationSerif
 72
1
 11
846169.7
 21
827508.1
 31
0.0
 73
2
  0
TEXT
  5
262
  8
SPL_No_Exceedance
 10
846171.7
 20
827509.2
 30
0.0
 40
0.5
  1
57dB(A)
  7
LiberationSerif
 72
1
 11
846171.7
 21
827509.2
 31
0.0
 73
2
  0
TEXT
  5
263
  8
SPL_No_Exceedance
 10
846173.4
 20
827510.2
 30
0.0
 40
0.5
  1
57dB(A)
  7
LiberationSerif
 72
1
 11
846173.4
 21
827510.2
 31
0.0
 73
2
  0
TEXT
  5
264
  8
SPL_No_Exceedance
 10
846175.9
 20
827511.5
 30
0.0
 40
0.5
  1
57dB(A)
  7
LiberationSerif
 72
1
 11
846175.9
 21
827511.5
 31
0.0
 73
2
  0
TEXT
  5
265
  8
SPL_No_Exceedance
 10
846179.3
 20
827513.6
 30
0.0
 40
0.5
  1
57dB(A)
  7
LiberationSerif
 72
1
 11
846179.3
 21
827513.6
 31
0.0
 73
2
  0
TEXT
  5
266
  8
SPL_No_Exceedance
 10
846182.2
 20
827515.2
 30
0.0
 40
0.5
  1
57dB(A)
  7
LiberationSerif
 72
1
 11
846182.2
 21
827515.2
 31
0.0
 73
2
  0
TEXT
  5
267
  8
SPL_No_Exceedance
 10
846183.8
 20
827516.1
 30
0.0
 40
0.5
  1
57dB(A)
  7
LiberationSerif
 72
1
 11
846183.8
 21
827516.1
 31
0.0
 73
2
  0
TEXT
  5
268
  8
SPL_No_Exceedance
 10
846185.9
 20
827517.2
 30
0.0
 40
0.5
  1
57dB(A)
  7
LiberationSerif
 72
1
 11
846185.9
 21
827517.2
 31
0.0
 73
2
  0
TEXT
  5
269
  8
SPL_No_Exceedance
 10
846190.9
 20
827515.8
 30
0.0
 40
0.5
  1
56dB(A)
  7
LiberationSerif
 72
1
 11
846190.9
 21
827515.8
 31
0.0
 73
2
  0
TEXT
  5
26A
  8
SPL_No_Exceedance
 10
846193.7
 20
827516.0
 30
0.0
 40
0.5
  1
56dB(A)
  7
LiberationSerif
 72
1
 11
846193.7
 21
827516.0
 31
0.0
 73
2
  0
TEXT
  5
26B
  8
SPL_No_Exceedance
 10
846195.6
 20
827516.2
 30
0.0
 40
0.5
  1
56dB(A)
  7
LiberationSerif
 72
1
 11
846195.6
 21
827516.2
 31
0.0
 73
2
  0
TEXT
  5
26C
  8
SPL_No_Exceedance
 10
846198.0
 20
827516.4
 30
0.0
 40
0.5
  1
56dB(A)
  7
LiberationSerif
 72
1
 11
846198.0
 21
827516.4
 31
0.0
 73
2
  0
TEXT
  5
26D
  8
SPL_No_Exceedance
 10
846199.9
 20
827516.5
 30
0.0
 40
0.5
  1
55dB(A)
  7
LiberationSerif
 72
1
 11
846199.9
 21
827516.5
 31
0.0
 73
2
  0
TEXT
  5
26E
  8
SPL_No_Exceedance
 10
846202.6
 20
827516.7
 30
0.0
 40
0.5
  1
55dB(A)
  7
LiberationSerif
 72
1
 11
846202.6
 21
827516.7
 31
0.0
 73
2
  0
TEXT
  5
26F
  8
SPL_No_Exceedance
 10
846205.3
 20
827517.0
 30
0.0
 40
0.5
  1
55dB(A)
  7
LiberationSerif
 72
1
 11
846205.3
 21
827517.0
 31
0.0
 73
2
  0
TEXT
  5
270
  8
SPL_No_Exceedance
 10
846208.1
 20
827517.2
 30
0.0
 40
0.5
  1
55dB(A)
  7
LiberationSerif
 72
1
 11
846208.1
 21
827517.2
 31
0.0
 73
2
  0
TEXT
  5
271
  8
SPL_No_Exceedance
 10
846210.0
 20
827517.4
 30
0.0
 40
0.5
  1
55dB(A)
  7
LiberationSerif
 72
1
 11
846210.0
 21
827517.4
 31
0.0
 73
2
  0
TEXT
  5
272
  8
SPL_No_Exceedance
 10
846212.5
 20
827517.6
 30
0.0
 40
0.5
  1
55dB(A)
  7
LiberationSerif
 72
1
 11
846212.5
 21
827517.6
 31
0.0
 73
2
  0
TEXT
  5
273
  8
SPL_No_Exceedance
 10
846215.2
 20
827517.8
 30
0.0
 40
0.5
  1
55dB(A)
  7
LiberationSerif
 72
1
 11
846215.2
 21
827517.8
 31
0.0
 73
2
  0
TEXT
  5
274
  8
SPL_No_Exceedance
 10
846217.2
 20
827518.0
 30
0.0
 40
0.5
  1
55dB(A)
  7
LiberationSerif
 72
1
 11
846217.2
 21
827518.0
 31
0.0
 73
2
  0
TEXT
  5
275
  8
SPL_No_Exceedance
 10
846221.4
 20
827516.3
 30
0.0
 40
0.5
  1
55dB(A)
  7
LiberationSerif
 72
1
 11
846221.4
 21
827516.3
 31
0.0
 73
2
  0
TEXT
  5
276
  8
SPL_No_Exceedance
 10
846223.5
 20
827514.1
 30
0.0
 40
0.5
  1
58dB(A)
  7
LiberationSerif
 72
1
 11
846223.5
 21
827514.1
 31
0.0
 73
2
  0
TEXT
  5
277
  8
SPL_No_Exceedance
 10
846223.7
 20
827512.1
 30
0.0
 40
0.5
  1
58dB(A)
  7
LiberationSerif
 72
1
 11
846223.7
 21
827512.1
 31
0.0
 73
2
  0
TEXT
  5
278
  8
SPL_No_Exceedance
 10
846224.0
 20
827508.8
 30
0.0
 40
0.5
  1
58dB(A)
  7
LiberationSerif
 72
1
 11
846224.0
 21
827508.8
 31
0.0
 73
2
  0
TEXT
  5
279
  8
SPL_No_Exceedance
 10
846223.2
 20
827505.8
 30
0.0
 40
0.5
  1
58dB(A)
  7
LiberationSerif
 72
1
 11
846223.2
 21
827505.8
 31
0.0
 73
2
  0
TEXT
  5
27A
  8
SPL_No_Exceedance
 10
846223.4
 20
827503.0
 30
0.0
 40
0.5
  1
58dB(A)
  7
LiberationSerif
 72
1
 11
846223.4
 21
827503.0
 31
0.0
 73
2
  0
TEXT
  5
27B
  8
SPL_No_Exceedance
 10
846213.0
 20
827500.1
 30
0.0
 40
0.5
  1
52dB(A)
  7
LiberationSerif
 72
1
 11
846213.0
 21
827500.1
 31
0.0
 73
2
  0
TEXT
  5
27C
  8
SPL_No_Exceedance
 10
846210.2
 20
827499.9
 30
0.0
 40
0.5
  1
51dB(A)
  7
LiberationSerif
 72
1
 11
846210.2
 21
827499.9
 31
0.0
 73
2
  0
TEXT
  5
27D
  8
SPL_No_Exceedance
 10
846208.3
 20
827499.7
 30
0.0
 40
0.5
  1
52dB(A)
  7
LiberationSerif
 72
1
 11
846208.3
 21
827499.7
 31
0.0
 73
2
  0
TEXT
  5
27E
  8
SPL_No_Exceedance
 10
846205.9
 20
827499.5
 30
0.0
 40
0.5
  1
53dB(A)
  7
LiberationSerif
 72
1
 11
846205.9
 21
827499.5
 31
0.0
 73
2
  0
TEXT
  5
27F
  8
SPL_No_Exceedance
 10
846204.0
 20
827499.4
 30
0.0
 40
0.5
  1
53dB(A)
  7
LiberationSerif
 72
1
 11
846204.0
 21
827499.4
 31
0.0
 73
2
  0
TEXT
  5
280
  8
SPL_No_Exceedance
 10
846201.2
 20
827499.1
 30
0.0
 40
0.5
  1
53dB(A)
  7
LiberationSerif
 72
1
 11
846201.2
 21
827499.1
 31
0.0
 73
2
  0
TEXT
  5
281
  8
SPL_No_Exceedance
 10
846198.6
 20
827498.9
 30
0.0
 40
0.5
  1
53dB(A)
  7
LiberationSerif
 72
1
 11
846198.6
 21
827498.9
 31
0.0
 73
2
  0
TEXT
  5
282
  8
SPL_No_Exceedance
 10
846196.2
 20
827498.7
 30
0.0
 40
0.5
  1
53dB(A)
  7
LiberationSerif
 72
1
 11
846196.2
 21
827498.7
 31
0.0
 73
2
  0
TEXT
  5
283
  8
SPL_No_Exceedance
 10
846194.4
 20
827498.5
 30
0.0
 40
0.5
  1
53dB(A)
  7
LiberationSerif
 72
1
 11
846194.4
 21
827498.5
 31
0.0
 73
2
  0
TEXT
  5
284
  8
SPL_No_Exceedance
 10
846191.3
 20
827498.3
 30
0.0
 40
0.5
  1
54dB(A)
  7
LiberationSerif
 72
1
 11
846191.3
 21
827498.3
 31
0.0
 73
2
  0
TEXT
  5
285
  8
SPL_No_Exceedance
 10
846186.3
 20
827497.3
 30
0.0
 40
0.5
  1
54dB(A)
  7
LiberationSerif
 72
1
 11
846186.3
 21
827497.3
 31
0.0
 73
2
  0
TEXT
  5
286
  8
SPL_No_Exceedance
 10
846183.8
 20
827495.9
 30
0.0
 40
0.5
  1
54dB(A)
  7
LiberationSerif
 72
1
 11
846183.8
 21
827495.9
 31
0.0
 73
2
  0
TEXT
  5
287
  8
SPL_No_Exceedance
 10
846182.2
 20
827495.1
 30
0.0
 40
0.5
  1
54dB(A)
  7
LiberationSerif
 72
1
 11
846182.2
 21
827495.1
 31
0.0
 73
2
  0
TEXT
  5
288
  8
SPL_No_Exceedance
 10
846180.2
 20
827494.0
 30
0.0
 40
0.5
  1
53dB(A)
  7
LiberationSerif
 72
1
 11
846180.2
 21
827494.0
 31
0.0
 73
2
  0
TEXT
  5
289
  8
SPL_No_Exceedance
 10
846178.1
 20
827492.8
 30
0.0
 40
0.5
  1
53dB(A)
  7
LiberationSerif
 72
1
 11
846178.1
 21
827492.8
 31
0.0
 73
2
  0
TEXT
  5
28A
  8
SPL_No_Exceedance
 10
846176.4
 20
827491.9
 30
0.0
 40
0.5
  1
53dB(A)
  7
LiberationSerif
 72
1
 11
846176.4
 21
827491.9
 31
0.0
 73
2
  0
TEXT
  5
28B
  8
SPL_No_Exceedance
 10
846174.0
 20
827490.6
 30
0.0
 40
0.5
  1
52dB(A)
  7
LiberationSerif
 72
1
 11
846174.0
 21
827490.6
 31
0.0
 73
2
  0
TEXT
  5
28C
  8
SPL_No_Exceedance
 10
846171.6
 20
827489.2
 30
0.0
 40
0.5
  1
52dB(A)
  7
LiberationSerif
 72
1
 11
846171.6
 21
827489.2
 31
0.0
 73
2
  0
TEXT
  5
28D
  8
SPL_No_Exceedance
 10
846169.2
 20
827487.9
 30
0.0
 40
0.5
  1
52dB(A)
  7
LiberationSerif
 72
1
 11
846169.2
 21
827487.9
 31
0.0
 73
2
  0
TEXT
  5
28E
  8
SPL_No_Exceedance
 10
846167.5
 20
827487.0
 30
0.0
 40
0.5
  1
52dB(A)
  7
LiberationSerif
 72
1
 11
846167.5
 21
827487.0
 31
0.0
 73
2
  0
ENDSEC
  0
EOF
